<?xml version="1.0" encoding="utf-8" standalone="no"?>
<!DOCTYPE svg PUBLIC "-//W3C//DTD SVG 1.1//EN"
  "http://www.w3.org/Graphics/SVG/1.1/DTD/svg11.dtd">
<!-- Created with matplotlib (http://matplotlib.org/) -->
<svg height="236pt" version="1.1" viewBox="0 0 421 236" width="421pt" xmlns="http://www.w3.org/2000/svg" xmlns:xlink="http://www.w3.org/1999/xlink">
 <defs>
  <style type="text/css">
*{stroke-linecap:butt;stroke-linejoin:round;stroke-miterlimit:100000;}
  </style>
 </defs>
 <g id="figure_1">
  <g id="patch_1">
   <path d="M -0 236.390625 
L 421.863188 236.390625 
L 421.863188 0 
L -0 0 
L -0 236.390625 
z
" style="fill:none;"/>
  </g>
  <g id="axes_1">
   <g id="patch_2">
    <path d="M 43.08375 196.336875 
L 329.925938 196.336875 
L 329.925938 13.006875 
L 43.08375 13.006875 
L 43.08375 196.336875 
z
" style="fill:none;"/>
   </g>
   <g id="LineCollection_1">
    <path clip-path="url(#p78a0dc69a9)" d="M 86.257801 126.724873 
L 86.257801 126.476825 
" style="fill:none;stroke:#e91e63;stroke-opacity:0.8;stroke-width:2.0;"/>
    <path clip-path="url(#p78a0dc69a9)" d="M 129.431853 152.987413 
L 129.431853 87.166027 
" style="fill:none;stroke:#e91e63;stroke-opacity:0.8;stroke-width:2.0;"/>
    <path clip-path="url(#p78a0dc69a9)" d="M 154.687054 129.63344 
L 154.687054 55.764706 
" style="fill:none;stroke:#e91e63;stroke-opacity:0.8;stroke-width:2.0;"/>
    <path clip-path="url(#p78a0dc69a9)" d="M 172.605904 149.68531 
L 172.605904 95.648649 
" style="fill:none;stroke:#e91e63;stroke-opacity:0.8;stroke-width:2.0;"/>
    <path clip-path="url(#p78a0dc69a9)" d="M 186.504844 117.736896 
L 186.504844 41.340597 
" style="fill:none;stroke:#e91e63;stroke-opacity:0.8;stroke-width:2.0;"/>
    <path clip-path="url(#p78a0dc69a9)" d="M 211.760045 132.098929 
L 211.760045 44.198748 
" style="fill:none;stroke:#e91e63;stroke-opacity:0.8;stroke-width:2.0;"/>
    <path clip-path="url(#p78a0dc69a9)" d="M 229.678895 52.352598 
L 229.678895 46.567177 
" style="fill:none;stroke:#e91e63;stroke-opacity:0.8;stroke-width:2.0;"/>
    <path clip-path="url(#p78a0dc69a9)" d="M 254.934096 50.045561 
L 254.934096 48.115589 
" style="fill:none;stroke:#e91e63;stroke-opacity:0.8;stroke-width:2.0;"/>
    <path clip-path="url(#p78a0dc69a9)" d="M 272.852947 66.45145 
L 272.852947 47.185856 
" style="fill:none;stroke:#e91e63;stroke-opacity:0.8;stroke-width:2.0;"/>
    <path clip-path="url(#p78a0dc69a9)" d="M 298.108148 29.957371 
L 298.108148 28.65669 
" style="fill:none;stroke:#e91e63;stroke-opacity:0.8;stroke-width:2.0;"/>
    <path clip-path="url(#p78a0dc69a9)" d="M 316.026998 28.432243 
L 316.026998 27.263862 
" style="fill:none;stroke:#e91e63;stroke-opacity:0.8;stroke-width:2.0;"/>
    <path clip-path="url(#p78a0dc69a9)" d="M 329.925938 43.524259 
L 329.925938 22.50187 
" style="fill:none;stroke:#e91e63;stroke-opacity:0.8;stroke-width:2.0;"/>
   </g>
   <g id="LineCollection_2">
    <path clip-path="url(#p78a0dc69a9)" d="M 86.257801 181.33475 
L 86.257801 119.47711 
" style="fill:none;stroke:#f29312;stroke-opacity:0.8;stroke-width:2.0;"/>
    <path clip-path="url(#p78a0dc69a9)" d="M 129.431853 88.393991 
L 129.431853 85.959676 
" style="fill:none;stroke:#f29312;stroke-opacity:0.8;stroke-width:2.0;"/>
    <path clip-path="url(#p78a0dc69a9)" d="M 154.687054 75.963793 
L 154.687054 61.884337 
" style="fill:none;stroke:#f29312;stroke-opacity:0.8;stroke-width:2.0;"/>
    <path clip-path="url(#p78a0dc69a9)" d="M 172.605904 68.313931 
L 172.605904 53.024266 
" style="fill:none;stroke:#f29312;stroke-opacity:0.8;stroke-width:2.0;"/>
    <path clip-path="url(#p78a0dc69a9)" d="M 186.504844 61.594665 
L 186.504844 47.539155 
" style="fill:none;stroke:#f29312;stroke-opacity:0.8;stroke-width:2.0;"/>
    <path clip-path="url(#p78a0dc69a9)" d="M 211.760045 153.376157 
L 211.760045 59.448967 
" style="fill:none;stroke:#f29312;stroke-opacity:0.8;stroke-width:2.0;"/>
    <path clip-path="url(#p78a0dc69a9)" d="M 229.678895 135.536672 
L 229.678895 56.506736 
" style="fill:none;stroke:#f29312;stroke-opacity:0.8;stroke-width:2.0;"/>
    <path clip-path="url(#p78a0dc69a9)" d="M 254.934096 53.291825 
L 254.934096 46.825128 
" style="fill:none;stroke:#f29312;stroke-opacity:0.8;stroke-width:2.0;"/>
    <path clip-path="url(#p78a0dc69a9)" d="M 272.852947 65.740525 
L 272.852947 42.912169 
" style="fill:none;stroke:#f29312;stroke-opacity:0.8;stroke-width:2.0;"/>
    <path clip-path="url(#p78a0dc69a9)" d="M 298.108148 112.967863 
L 298.108148 18.461846 
" style="fill:none;stroke:#f29312;stroke-opacity:0.8;stroke-width:2.0;"/>
    <path clip-path="url(#p78a0dc69a9)" d="M 316.026998 58.018742 
L 316.026998 18.960249 
" style="fill:none;stroke:#f29312;stroke-opacity:0.8;stroke-width:2.0;"/>
    <path clip-path="url(#p78a0dc69a9)" d="M 329.925938 26.551765 
L 329.925938 25.690198 
" style="fill:none;stroke:#f29312;stroke-opacity:0.8;stroke-width:2.0;"/>
   </g>
   <g id="LineCollection_3">
    <path clip-path="url(#p78a0dc69a9)" d="M 86.257801 126.943303 
L 86.257801 126.310035 
" style="fill:none;stroke:#4caf50;stroke-opacity:0.8;stroke-width:2.0;"/>
    <path clip-path="url(#p78a0dc69a9)" d="M 129.431853 163.325815 
L 129.431853 96.49438 
" style="fill:none;stroke:#4caf50;stroke-opacity:0.8;stroke-width:2.0;"/>
    <path clip-path="url(#p78a0dc69a9)" d="M 154.687054 81.730093 
L 154.687054 62.79482 
" style="fill:none;stroke:#4caf50;stroke-opacity:0.8;stroke-width:2.0;"/>
    <path clip-path="url(#p78a0dc69a9)" d="M 172.605904 125.853164 
L 172.605904 45.320165 
" style="fill:none;stroke:#4caf50;stroke-opacity:0.8;stroke-width:2.0;"/>
    <path clip-path="url(#p78a0dc69a9)" d="M 186.504844 51.479054 
L 186.504844 50.452961 
" style="fill:none;stroke:#4caf50;stroke-opacity:0.8;stroke-width:2.0;"/>
    <path clip-path="url(#p78a0dc69a9)" d="M 211.760045 132.961748 
L 211.760045 47.340744 
" style="fill:none;stroke:#4caf50;stroke-opacity:0.8;stroke-width:2.0;"/>
    <path clip-path="url(#p78a0dc69a9)" d="M 229.678895 61.080398 
L 229.678895 44.061265 
" style="fill:none;stroke:#4caf50;stroke-opacity:0.8;stroke-width:2.0;"/>
    <path clip-path="url(#p78a0dc69a9)" d="M 254.934096 132.692029 
L 254.934096 41.237983 
" style="fill:none;stroke:#4caf50;stroke-opacity:0.8;stroke-width:2.0;"/>
    <path clip-path="url(#p78a0dc69a9)" d="M 272.852947 120.221502 
L 272.852947 33.992161 
" style="fill:none;stroke:#4caf50;stroke-opacity:0.8;stroke-width:2.0;"/>
    <path clip-path="url(#p78a0dc69a9)" d="M 298.108148 54.919924 
L 298.108148 28.180404 
" style="fill:none;stroke:#4caf50;stroke-opacity:0.8;stroke-width:2.0;"/>
    <path clip-path="url(#p78a0dc69a9)" d="M 316.026998 114.801043 
L 316.026998 21.951601 
" style="fill:none;stroke:#4caf50;stroke-opacity:0.8;stroke-width:2.0;"/>
    <path clip-path="url(#p78a0dc69a9)" d="M 329.925938 39.699632 
L 329.925938 21.900969 
" style="fill:none;stroke:#4caf50;stroke-opacity:0.8;stroke-width:2.0;"/>
   </g>
   <g id="LineCollection_4">
    <path clip-path="url(#p78a0dc69a9)" d="M 86.257801 176.229453 
L 86.257801 118.901452 
" style="fill:none;stroke:#2196f3;stroke-opacity:0.8;stroke-width:2.0;"/>
    <path clip-path="url(#p78a0dc69a9)" d="M 129.431853 88.719899 
L 129.431853 86.127669 
" style="fill:none;stroke:#2196f3;stroke-opacity:0.8;stroke-width:2.0;"/>
    <path clip-path="url(#p78a0dc69a9)" d="M 154.687054 82.383896 
L 154.687054 62.652913 
" style="fill:none;stroke:#2196f3;stroke-opacity:0.8;stroke-width:2.0;"/>
    <path clip-path="url(#p78a0dc69a9)" d="M 172.605904 69.668889 
L 172.605904 54.259029 
" style="fill:none;stroke:#2196f3;stroke-opacity:0.8;stroke-width:2.0;"/>
    <path clip-path="url(#p78a0dc69a9)" d="M 186.504844 120.110733 
L 186.504844 35.626007 
" style="fill:none;stroke:#2196f3;stroke-opacity:0.8;stroke-width:2.0;"/>
    <path clip-path="url(#p78a0dc69a9)" d="M 211.760045 76.110634 
L 211.760045 58.519266 
" style="fill:none;stroke:#2196f3;stroke-opacity:0.8;stroke-width:2.0;"/>
    <path clip-path="url(#p78a0dc69a9)" d="M 229.678895 121.232761 
L 229.678895 28.746986 
" style="fill:none;stroke:#2196f3;stroke-opacity:0.8;stroke-width:2.0;"/>
    <path clip-path="url(#p78a0dc69a9)" d="M 254.934096 62.187724 
L 254.934096 45.046932 
" style="fill:none;stroke:#2196f3;stroke-opacity:0.8;stroke-width:2.0;"/>
    <path clip-path="url(#p78a0dc69a9)" d="M 272.852947 50.674472 
L 272.852947 39.473853 
" style="fill:none;stroke:#2196f3;stroke-opacity:0.8;stroke-width:2.0;"/>
    <path clip-path="url(#p78a0dc69a9)" d="M 298.108148 114.700155 
L 298.108148 28.278086 
" style="fill:none;stroke:#2196f3;stroke-opacity:0.8;stroke-width:2.0;"/>
    <path clip-path="url(#p78a0dc69a9)" d="M 316.026998 132.029539 
L 316.026998 48.753285 
" style="fill:none;stroke:#2196f3;stroke-opacity:0.8;stroke-width:2.0;"/>
    <path clip-path="url(#p78a0dc69a9)" d="M 329.925938 27.013368 
L 329.925938 25.039359 
" style="fill:none;stroke:#2196f3;stroke-opacity:0.8;stroke-width:2.0;"/>
   </g>
   <g id="line2d_1">
    <defs>
     <path d="M 3 0 
L -3 -0 
" id="m185c772746" style="stroke:#e91e63;stroke-width:0.5;"/>
    </defs>
    <g clip-path="url(#p78a0dc69a9)">
     <use style="fill:#e91e63;opacity:0.8;stroke:#e91e63;stroke-width:0.5;" x="86.2578013399" xlink:href="#m185c772746" y="126.724873149"/>
     <use style="fill:#e91e63;opacity:0.8;stroke:#e91e63;stroke-width:0.5;" x="129.43185268" xlink:href="#m185c772746" y="152.987412782"/>
     <use style="fill:#e91e63;opacity:0.8;stroke:#e91e63;stroke-width:0.5;" x="154.687053718" xlink:href="#m185c772746" y="129.633440192"/>
     <use style="fill:#e91e63;opacity:0.8;stroke:#e91e63;stroke-width:0.5;" x="172.60590402" xlink:href="#m185c772746" y="149.685309798"/>
     <use style="fill:#e91e63;opacity:0.8;stroke:#e91e63;stroke-width:0.5;" x="186.504844116" xlink:href="#m185c772746" y="117.736896176"/>
     <use style="fill:#e91e63;opacity:0.8;stroke:#e91e63;stroke-width:0.5;" x="211.760045154" xlink:href="#m185c772746" y="132.098928822"/>
     <use style="fill:#e91e63;opacity:0.8;stroke:#e91e63;stroke-width:0.5;" x="229.678895456" xlink:href="#m185c772746" y="52.3525982521"/>
     <use style="fill:#e91e63;opacity:0.8;stroke:#e91e63;stroke-width:0.5;" x="254.934096494" xlink:href="#m185c772746" y="50.0455610846"/>
     <use style="fill:#e91e63;opacity:0.8;stroke:#e91e63;stroke-width:0.5;" x="272.852946796" xlink:href="#m185c772746" y="66.4514496715"/>
     <use style="fill:#e91e63;opacity:0.8;stroke:#e91e63;stroke-width:0.5;" x="298.108147834" xlink:href="#m185c772746" y="29.9573711223"/>
     <use style="fill:#e91e63;opacity:0.8;stroke:#e91e63;stroke-width:0.5;" x="316.026998136" xlink:href="#m185c772746" y="28.4322430089"/>
     <use style="fill:#e91e63;opacity:0.8;stroke:#e91e63;stroke-width:0.5;" x="329.925938232" xlink:href="#m185c772746" y="43.5242592219"/>
    </g>
   </g>
   <g id="line2d_2">
    <g clip-path="url(#p78a0dc69a9)">
     <use style="fill:#e91e63;opacity:0.8;stroke:#e91e63;stroke-width:0.5;" x="86.2578013399" xlink:href="#m185c772746" y="126.476825312"/>
     <use style="fill:#e91e63;opacity:0.8;stroke:#e91e63;stroke-width:0.5;" x="129.43185268" xlink:href="#m185c772746" y="87.1660267888"/>
     <use style="fill:#e91e63;opacity:0.8;stroke:#e91e63;stroke-width:0.5;" x="154.687053718" xlink:href="#m185c772746" y="55.7647057569"/>
     <use style="fill:#e91e63;opacity:0.8;stroke:#e91e63;stroke-width:0.5;" x="172.60590402" xlink:href="#m185c772746" y="95.6486487021"/>
     <use style="fill:#e91e63;opacity:0.8;stroke:#e91e63;stroke-width:0.5;" x="186.504844116" xlink:href="#m185c772746" y="41.3405967818"/>
     <use style="fill:#e91e63;opacity:0.8;stroke:#e91e63;stroke-width:0.5;" x="211.760045154" xlink:href="#m185c772746" y="44.1987475936"/>
     <use style="fill:#e91e63;opacity:0.8;stroke:#e91e63;stroke-width:0.5;" x="229.678895456" xlink:href="#m185c772746" y="46.5671767863"/>
     <use style="fill:#e91e63;opacity:0.8;stroke:#e91e63;stroke-width:0.5;" x="254.934096494" xlink:href="#m185c772746" y="48.1155886884"/>
     <use style="fill:#e91e63;opacity:0.8;stroke:#e91e63;stroke-width:0.5;" x="272.852946796" xlink:href="#m185c772746" y="47.1858555772"/>
     <use style="fill:#e91e63;opacity:0.8;stroke:#e91e63;stroke-width:0.5;" x="298.108147834" xlink:href="#m185c772746" y="28.6566904587"/>
     <use style="fill:#e91e63;opacity:0.8;stroke:#e91e63;stroke-width:0.5;" x="316.026998136" xlink:href="#m185c772746" y="27.2638620307"/>
     <use style="fill:#e91e63;opacity:0.8;stroke:#e91e63;stroke-width:0.5;" x="329.925938232" xlink:href="#m185c772746" y="22.5018701659"/>
    </g>
   </g>
   <g id="line2d_3">
    <path clip-path="url(#p78a0dc69a9)" d="M 86.257801 126.600849 
L 129.431853 120.07672 
L 154.687054 92.699073 
L 172.605904 122.666979 
L 186.504844 79.538746 
L 211.760045 88.148838 
L 229.678895 49.459888 
L 254.934096 49.080575 
L 272.852947 56.818653 
L 298.108148 29.307031 
L 316.026998 27.848053 
L 329.925938 33.013065 
" style="fill:none;opacity:0.8;stroke:#e91e63;stroke-linecap:square;stroke-width:2.0;"/>
   </g>
   <g id="line2d_4">
    <defs>
     <path d="M 3 0 
L -3 -0 
" id="mb2350e324a" style="stroke:#f29312;stroke-width:0.5;"/>
    </defs>
    <g clip-path="url(#p78a0dc69a9)">
     <use style="fill:#f29312;opacity:0.8;stroke:#f29312;stroke-width:0.5;" x="86.2578013399" xlink:href="#mb2350e324a" y="181.334750123"/>
     <use style="fill:#f29312;opacity:0.8;stroke:#f29312;stroke-width:0.5;" x="129.43185268" xlink:href="#mb2350e324a" y="88.3939905793"/>
     <use style="fill:#f29312;opacity:0.8;stroke:#f29312;stroke-width:0.5;" x="154.687053718" xlink:href="#mb2350e324a" y="75.9637930483"/>
     <use style="fill:#f29312;opacity:0.8;stroke:#f29312;stroke-width:0.5;" x="172.60590402" xlink:href="#mb2350e324a" y="68.3139313287"/>
     <use style="fill:#f29312;opacity:0.8;stroke:#f29312;stroke-width:0.5;" x="186.504844116" xlink:href="#mb2350e324a" y="61.5946646798"/>
     <use style="fill:#f29312;opacity:0.8;stroke:#f29312;stroke-width:0.5;" x="211.760045154" xlink:href="#mb2350e324a" y="153.376157477"/>
     <use style="fill:#f29312;opacity:0.8;stroke:#f29312;stroke-width:0.5;" x="229.678895456" xlink:href="#mb2350e324a" y="135.536672354"/>
     <use style="fill:#f29312;opacity:0.8;stroke:#f29312;stroke-width:0.5;" x="254.934096494" xlink:href="#mb2350e324a" y="53.2918249621"/>
     <use style="fill:#f29312;opacity:0.8;stroke:#f29312;stroke-width:0.5;" x="272.852946796" xlink:href="#mb2350e324a" y="65.7405252118"/>
     <use style="fill:#f29312;opacity:0.8;stroke:#f29312;stroke-width:0.5;" x="298.108147834" xlink:href="#mb2350e324a" y="112.967863353"/>
     <use style="fill:#f29312;opacity:0.8;stroke:#f29312;stroke-width:0.5;" x="316.026998136" xlink:href="#mb2350e324a" y="58.018741868"/>
     <use style="fill:#f29312;opacity:0.8;stroke:#f29312;stroke-width:0.5;" x="329.925938232" xlink:href="#mb2350e324a" y="26.5517652785"/>
    </g>
   </g>
   <g id="line2d_5">
    <g clip-path="url(#p78a0dc69a9)">
     <use style="fill:#f29312;opacity:0.8;stroke:#f29312;stroke-width:0.5;" x="86.2578013399" xlink:href="#mb2350e324a" y="119.477110438"/>
     <use style="fill:#f29312;opacity:0.8;stroke:#f29312;stroke-width:0.5;" x="129.43185268" xlink:href="#mb2350e324a" y="85.959676377"/>
     <use style="fill:#f29312;opacity:0.8;stroke:#f29312;stroke-width:0.5;" x="154.687053718" xlink:href="#mb2350e324a" y="61.8843373566"/>
     <use style="fill:#f29312;opacity:0.8;stroke:#f29312;stroke-width:0.5;" x="172.60590402" xlink:href="#mb2350e324a" y="53.0242663443"/>
     <use style="fill:#f29312;opacity:0.8;stroke:#f29312;stroke-width:0.5;" x="186.504844116" xlink:href="#mb2350e324a" y="47.5391551583"/>
     <use style="fill:#f29312;opacity:0.8;stroke:#f29312;stroke-width:0.5;" x="211.760045154" xlink:href="#mb2350e324a" y="59.4489665234"/>
     <use style="fill:#f29312;opacity:0.8;stroke:#f29312;stroke-width:0.5;" x="229.678895456" xlink:href="#mb2350e324a" y="56.5067360572"/>
     <use style="fill:#f29312;opacity:0.8;stroke:#f29312;stroke-width:0.5;" x="254.934096494" xlink:href="#mb2350e324a" y="46.8251277663"/>
     <use style="fill:#f29312;opacity:0.8;stroke:#f29312;stroke-width:0.5;" x="272.852946796" xlink:href="#mb2350e324a" y="42.9121688469"/>
     <use style="fill:#f29312;opacity:0.8;stroke:#f29312;stroke-width:0.5;" x="298.108147834" xlink:href="#mb2350e324a" y="18.4618462917"/>
     <use style="fill:#f29312;opacity:0.8;stroke:#f29312;stroke-width:0.5;" x="316.026998136" xlink:href="#mb2350e324a" y="18.9602494068"/>
     <use style="fill:#f29312;opacity:0.8;stroke:#f29312;stroke-width:0.5;" x="329.925938232" xlink:href="#mb2350e324a" y="25.6901976632"/>
    </g>
   </g>
   <g id="line2d_6">
    <path clip-path="url(#p78a0dc69a9)" d="M 86.257801 150.40593 
L 129.431853 87.176833 
L 154.687054 68.924065 
L 172.605904 60.669099 
L 186.504844 54.56691 
L 211.760045 106.412562 
L 229.678895 96.021704 
L 254.934096 50.058476 
L 272.852947 54.326347 
L 298.108148 65.714855 
L 316.026998 38.489496 
L 329.925938 26.120981 
" style="fill:none;opacity:0.8;stroke:#f29312;stroke-linecap:square;stroke-width:2.0;"/>
   </g>
   <g id="line2d_7">
    <defs>
     <path d="M 3 0 
L -3 -0 
" id="m6435962961" style="stroke:#4caf50;stroke-width:0.5;"/>
    </defs>
    <g clip-path="url(#p78a0dc69a9)">
     <use style="fill:#4caf50;opacity:0.8;stroke:#4caf50;stroke-width:0.5;" x="86.2578013399" xlink:href="#m6435962961" y="126.943302934"/>
     <use style="fill:#4caf50;opacity:0.8;stroke:#4caf50;stroke-width:0.5;" x="129.43185268" xlink:href="#m6435962961" y="163.325815096"/>
     <use style="fill:#4caf50;opacity:0.8;stroke:#4caf50;stroke-width:0.5;" x="154.687053718" xlink:href="#m6435962961" y="81.7300930404"/>
     <use style="fill:#4caf50;opacity:0.8;stroke:#4caf50;stroke-width:0.5;" x="172.60590402" xlink:href="#m6435962961" y="125.853164409"/>
     <use style="fill:#4caf50;opacity:0.8;stroke:#4caf50;stroke-width:0.5;" x="186.504844116" xlink:href="#m6435962961" y="51.4790536734"/>
     <use style="fill:#4caf50;opacity:0.8;stroke:#4caf50;stroke-width:0.5;" x="211.760045154" xlink:href="#m6435962961" y="132.96174813"/>
     <use style="fill:#4caf50;opacity:0.8;stroke:#4caf50;stroke-width:0.5;" x="229.678895456" xlink:href="#m6435962961" y="61.0803982891"/>
     <use style="fill:#4caf50;opacity:0.8;stroke:#4caf50;stroke-width:0.5;" x="254.934096494" xlink:href="#m6435962961" y="132.692028956"/>
     <use style="fill:#4caf50;opacity:0.8;stroke:#4caf50;stroke-width:0.5;" x="272.852946796" xlink:href="#m6435962961" y="120.221502107"/>
     <use style="fill:#4caf50;opacity:0.8;stroke:#4caf50;stroke-width:0.5;" x="298.108147834" xlink:href="#m6435962961" y="54.9199240282"/>
     <use style="fill:#4caf50;opacity:0.8;stroke:#4caf50;stroke-width:0.5;" x="316.026998136" xlink:href="#m6435962961" y="114.801042802"/>
     <use style="fill:#4caf50;opacity:0.8;stroke:#4caf50;stroke-width:0.5;" x="329.925938232" xlink:href="#m6435962961" y="39.6996320786"/>
    </g>
   </g>
   <g id="line2d_8">
    <g clip-path="url(#p78a0dc69a9)">
     <use style="fill:#4caf50;opacity:0.8;stroke:#4caf50;stroke-width:0.5;" x="86.2578013399" xlink:href="#m6435962961" y="126.310034772"/>
     <use style="fill:#4caf50;opacity:0.8;stroke:#4caf50;stroke-width:0.5;" x="129.43185268" xlink:href="#m6435962961" y="96.4943797459"/>
     <use style="fill:#4caf50;opacity:0.8;stroke:#4caf50;stroke-width:0.5;" x="154.687053718" xlink:href="#m6435962961" y="62.7948197286"/>
     <use style="fill:#4caf50;opacity:0.8;stroke:#4caf50;stroke-width:0.5;" x="172.60590402" xlink:href="#m6435962961" y="45.3201651061"/>
     <use style="fill:#4caf50;opacity:0.8;stroke:#4caf50;stroke-width:0.5;" x="186.504844116" xlink:href="#m6435962961" y="50.4529608016"/>
     <use style="fill:#4caf50;opacity:0.8;stroke:#4caf50;stroke-width:0.5;" x="211.760045154" xlink:href="#m6435962961" y="47.3407439276"/>
     <use style="fill:#4caf50;opacity:0.8;stroke:#4caf50;stroke-width:0.5;" x="229.678895456" xlink:href="#m6435962961" y="44.06126467"/>
     <use style="fill:#4caf50;opacity:0.8;stroke:#4caf50;stroke-width:0.5;" x="254.934096494" xlink:href="#m6435962961" y="41.2379831348"/>
     <use style="fill:#4caf50;opacity:0.8;stroke:#4caf50;stroke-width:0.5;" x="272.852946796" xlink:href="#m6435962961" y="33.9921614779"/>
     <use style="fill:#4caf50;opacity:0.8;stroke:#4caf50;stroke-width:0.5;" x="298.108147834" xlink:href="#m6435962961" y="28.1804044211"/>
     <use style="fill:#4caf50;opacity:0.8;stroke:#4caf50;stroke-width:0.5;" x="316.026998136" xlink:href="#m6435962961" y="21.9516006717"/>
     <use style="fill:#4caf50;opacity:0.8;stroke:#4caf50;stroke-width:0.5;" x="329.925938232" xlink:href="#m6435962961" y="21.900968618"/>
    </g>
   </g>
   <g id="line2d_9">
    <path clip-path="url(#p78a0dc69a9)" d="M 86.257801 126.626669 
L 129.431853 129.910097 
L 154.687054 72.262456 
L 172.605904 85.586665 
L 186.504844 50.966007 
L 211.760045 90.151246 
L 229.678895 52.570831 
L 254.934096 86.965006 
L 272.852947 77.106832 
L 298.108148 41.550164 
L 316.026998 68.376322 
L 329.925938 30.8003 
" style="fill:none;opacity:0.8;stroke:#4caf50;stroke-linecap:square;stroke-width:2.0;"/>
   </g>
   <g id="line2d_10">
    <defs>
     <path d="M 3 0 
L -3 -0 
" id="m610c980a3b" style="stroke:#2196f3;stroke-width:0.5;"/>
    </defs>
    <g clip-path="url(#p78a0dc69a9)">
     <use style="fill:#2196f3;opacity:0.8;stroke:#2196f3;stroke-width:0.5;" x="86.2578013399" xlink:href="#m610c980a3b" y="176.229453097"/>
     <use style="fill:#2196f3;opacity:0.8;stroke:#2196f3;stroke-width:0.5;" x="129.43185268" xlink:href="#m610c980a3b" y="88.719898598"/>
     <use style="fill:#2196f3;opacity:0.8;stroke:#2196f3;stroke-width:0.5;" x="154.687053718" xlink:href="#m610c980a3b" y="82.3838963782"/>
     <use style="fill:#2196f3;opacity:0.8;stroke:#2196f3;stroke-width:0.5;" x="172.60590402" xlink:href="#m610c980a3b" y="69.6688894548"/>
     <use style="fill:#2196f3;opacity:0.8;stroke:#2196f3;stroke-width:0.5;" x="186.504844116" xlink:href="#m610c980a3b" y="120.110733441"/>
     <use style="fill:#2196f3;opacity:0.8;stroke:#2196f3;stroke-width:0.5;" x="211.760045154" xlink:href="#m610c980a3b" y="76.1106340225"/>
     <use style="fill:#2196f3;opacity:0.8;stroke:#2196f3;stroke-width:0.5;" x="229.678895456" xlink:href="#m610c980a3b" y="121.232761329"/>
     <use style="fill:#2196f3;opacity:0.8;stroke:#2196f3;stroke-width:0.5;" x="254.934096494" xlink:href="#m610c980a3b" y="62.1877241967"/>
     <use style="fill:#2196f3;opacity:0.8;stroke:#2196f3;stroke-width:0.5;" x="272.852946796" xlink:href="#m610c980a3b" y="50.6744724668"/>
     <use style="fill:#2196f3;opacity:0.8;stroke:#2196f3;stroke-width:0.5;" x="298.108147834" xlink:href="#m610c980a3b" y="114.700154682"/>
     <use style="fill:#2196f3;opacity:0.8;stroke:#2196f3;stroke-width:0.5;" x="316.026998136" xlink:href="#m610c980a3b" y="132.029538638"/>
     <use style="fill:#2196f3;opacity:0.8;stroke:#2196f3;stroke-width:0.5;" x="329.925938232" xlink:href="#m610c980a3b" y="27.0133680572"/>
    </g>
   </g>
   <g id="line2d_11">
    <g clip-path="url(#p78a0dc69a9)">
     <use style="fill:#2196f3;opacity:0.8;stroke:#2196f3;stroke-width:0.5;" x="86.2578013399" xlink:href="#m610c980a3b" y="118.901451922"/>
     <use style="fill:#2196f3;opacity:0.8;stroke:#2196f3;stroke-width:0.5;" x="129.43185268" xlink:href="#m610c980a3b" y="86.1276693487"/>
     <use style="fill:#2196f3;opacity:0.8;stroke:#2196f3;stroke-width:0.5;" x="154.687053718" xlink:href="#m610c980a3b" y="62.6529126398"/>
     <use style="fill:#2196f3;opacity:0.8;stroke:#2196f3;stroke-width:0.5;" x="172.60590402" xlink:href="#m610c980a3b" y="54.2590293189"/>
     <use style="fill:#2196f3;opacity:0.8;stroke:#2196f3;stroke-width:0.5;" x="186.504844116" xlink:href="#m610c980a3b" y="35.6260068777"/>
     <use style="fill:#2196f3;opacity:0.8;stroke:#2196f3;stroke-width:0.5;" x="211.760045154" xlink:href="#m610c980a3b" y="58.519265823"/>
     <use style="fill:#2196f3;opacity:0.8;stroke:#2196f3;stroke-width:0.5;" x="229.678895456" xlink:href="#m610c980a3b" y="28.7469855842"/>
     <use style="fill:#2196f3;opacity:0.8;stroke:#2196f3;stroke-width:0.5;" x="254.934096494" xlink:href="#m610c980a3b" y="45.0469321392"/>
     <use style="fill:#2196f3;opacity:0.8;stroke:#2196f3;stroke-width:0.5;" x="272.852946796" xlink:href="#m610c980a3b" y="39.4738534417"/>
     <use style="fill:#2196f3;opacity:0.8;stroke:#2196f3;stroke-width:0.5;" x="298.108147834" xlink:href="#m610c980a3b" y="28.2780856789"/>
     <use style="fill:#2196f3;opacity:0.8;stroke:#2196f3;stroke-width:0.5;" x="316.026998136" xlink:href="#m610c980a3b" y="48.7532849257"/>
     <use style="fill:#2196f3;opacity:0.8;stroke:#2196f3;stroke-width:0.5;" x="329.925938232" xlink:href="#m610c980a3b" y="25.0393590741"/>
    </g>
   </g>
   <g id="line2d_12">
    <path clip-path="url(#p78a0dc69a9)" d="M 86.257801 147.565453 
L 129.431853 87.423784 
L 154.687054 72.518405 
L 172.605904 61.963959 
L 186.504844 77.86837 
L 211.760045 67.31495 
L 229.678895 74.989873 
L 254.934096 53.617328 
L 272.852947 45.074163 
L 298.108148 71.48912 
L 316.026998 90.391412 
L 329.925938 26.026364 
" style="fill:none;opacity:0.8;stroke:#2196f3;stroke-linecap:square;stroke-width:2.0;"/>
   </g>
   <g id="patch_3">
    <path d="M 43.08375 196.336875 
L 43.08375 13.006875 
" style="fill:none;stroke:#000000;stroke-linecap:square;stroke-linejoin:miter;"/>
   </g>
   <g id="patch_4">
    <path d="M 329.925938 196.336875 
L 329.925938 13.006875 
" style="fill:none;stroke:#000000;stroke-linecap:square;stroke-linejoin:miter;"/>
   </g>
   <g id="patch_5">
    <path d="M 43.08375 196.336875 
L 329.925938 196.336875 
" style="fill:none;stroke:#000000;stroke-linecap:square;stroke-linejoin:miter;"/>
   </g>
   <g id="patch_6">
    <path d="M 43.08375 13.006875 
L 329.925938 13.006875 
" style="fill:none;stroke:#000000;stroke-linecap:square;stroke-linejoin:miter;"/>
   </g>
   <g id="matplotlib.axis_1">
    <g id="xtick_1">
     <g id="line2d_13">
      <path clip-path="url(#p78a0dc69a9)" d="M 43.08375 196.336875 
L 43.08375 13.006875 
" style="fill:none;stroke:#000000;stroke-dasharray:1.000000,3.000000;stroke-dashoffset:0.0;stroke-width:0.5;"/>
     </g>
     <g id="line2d_14">
      <defs>
       <path d="M 0 0 
L 0 -4 
" id="m19fafec656" style="stroke:#000000;stroke-width:0.5;"/>
      </defs>
      <g>
       <use style="stroke:#000000;stroke-width:0.5;" x="43.08375" xlink:href="#m19fafec656" y="196.336875"/>
      </g>
     </g>
     <g id="line2d_15">
      <defs>
       <path d="M 0 0 
L 0 4 
" id="m7dd5da7f11" style="stroke:#000000;stroke-width:0.5;"/>
      </defs>
      <g>
       <use style="stroke:#000000;stroke-width:0.5;" x="43.08375" xlink:href="#m7dd5da7f11" y="13.006875"/>
      </g>
     </g>
     <g id="text_1">
      <!-- $\mathdefault{10^{1}}$ -->
      <defs>
       <path d="M 12.40625 8.296875 
L 28.515625 8.296875 
L 28.515625 63.921875 
L 10.984375 60.40625 
L 10.984375 69.390625 
L 28.421875 72.90625 
L 38.28125 72.90625 
L 38.28125 8.296875 
L 54.390625 8.296875 
L 54.390625 0 
L 12.40625 0 
z
" id="BitstreamVeraSans-Roman-31"/>
       <path d="M 31.78125 66.40625 
Q 24.171875 66.40625 20.328125 58.90625 
Q 16.5 51.421875 16.5 36.375 
Q 16.5 21.390625 20.328125 13.890625 
Q 24.171875 6.390625 31.78125 6.390625 
Q 39.453125 6.390625 43.28125 13.890625 
Q 47.125 21.390625 47.125 36.375 
Q 47.125 51.421875 43.28125 58.90625 
Q 39.453125 66.40625 31.78125 66.40625 
M 31.78125 74.21875 
Q 44.046875 74.21875 50.515625 64.515625 
Q 56.984375 54.828125 56.984375 36.375 
Q 56.984375 17.96875 50.515625 8.265625 
Q 44.046875 -1.421875 31.78125 -1.421875 
Q 19.53125 -1.421875 13.0625 8.265625 
Q 6.59375 17.96875 6.59375 36.375 
Q 6.59375 54.828125 13.0625 64.515625 
Q 19.53125 74.21875 31.78125 74.21875 
" id="BitstreamVeraSans-Roman-30"/>
      </defs>
      <g transform="translate(31.92375 209.96125)scale(0.12 -0.12)">
       <use transform="translate(0.0 0.7156250000000028)" xlink:href="#BitstreamVeraSans-Roman-31"/>
       <use transform="translate(63.623046875 0.7156250000000028)" xlink:href="#BitstreamVeraSans-Roman-30"/>
       <use transform="translate(132.75859375 47.965625)scale(0.7)" xlink:href="#BitstreamVeraSans-Roman-31"/>
      </g>
     </g>
    </g>
    <g id="xtick_2">
     <g id="line2d_16">
      <path clip-path="url(#p78a0dc69a9)" d="M 186.504844 196.336875 
L 186.504844 13.006875 
" style="fill:none;stroke:#000000;stroke-dasharray:1.000000,3.000000;stroke-dashoffset:0.0;stroke-width:0.5;"/>
     </g>
     <g id="line2d_17">
      <g>
       <use style="stroke:#000000;stroke-width:0.5;" x="186.504844116" xlink:href="#m19fafec656" y="196.336875"/>
      </g>
     </g>
     <g id="line2d_18">
      <g>
       <use style="stroke:#000000;stroke-width:0.5;" x="186.504844116" xlink:href="#m7dd5da7f11" y="13.006875"/>
      </g>
     </g>
     <g id="text_2">
      <!-- $\mathdefault{10^{2}}$ -->
      <defs>
       <path d="M 19.1875 8.296875 
L 53.609375 8.296875 
L 53.609375 0 
L 7.328125 0 
L 7.328125 8.296875 
Q 12.9375 14.109375 22.625 23.890625 
Q 32.328125 33.6875 34.8125 36.53125 
Q 39.546875 41.84375 41.421875 45.53125 
Q 43.3125 49.21875 43.3125 52.78125 
Q 43.3125 58.59375 39.234375 62.25 
Q 35.15625 65.921875 28.609375 65.921875 
Q 23.96875 65.921875 18.8125 64.3125 
Q 13.671875 62.703125 7.8125 59.421875 
L 7.8125 69.390625 
Q 13.765625 71.78125 18.9375 73 
Q 24.125 74.21875 28.421875 74.21875 
Q 39.75 74.21875 46.484375 68.546875 
Q 53.21875 62.890625 53.21875 53.421875 
Q 53.21875 48.921875 51.53125 44.890625 
Q 49.859375 40.875 45.40625 35.40625 
Q 44.1875 33.984375 37.640625 27.21875 
Q 31.109375 20.453125 19.1875 8.296875 
" id="BitstreamVeraSans-Roman-32"/>
      </defs>
      <g transform="translate(175.344844116 210.08125)scale(0.12 -0.12)">
       <use transform="translate(0.0 0.796875)" xlink:href="#BitstreamVeraSans-Roman-31"/>
       <use transform="translate(63.623046875 0.796875)" xlink:href="#BitstreamVeraSans-Roman-30"/>
       <use transform="translate(132.75859375 48.046875)scale(0.7)" xlink:href="#BitstreamVeraSans-Roman-32"/>
      </g>
     </g>
    </g>
    <g id="xtick_3">
     <g id="line2d_19">
      <path clip-path="url(#p78a0dc69a9)" d="M 329.925938 196.336875 
L 329.925938 13.006875 
" style="fill:none;stroke:#000000;stroke-dasharray:1.000000,3.000000;stroke-dashoffset:0.0;stroke-width:0.5;"/>
     </g>
     <g id="line2d_20">
      <g>
       <use style="stroke:#000000;stroke-width:0.5;" x="329.925938232" xlink:href="#m19fafec656" y="196.336875"/>
      </g>
     </g>
     <g id="line2d_21">
      <g>
       <use style="stroke:#000000;stroke-width:0.5;" x="329.925938232" xlink:href="#m7dd5da7f11" y="13.006875"/>
      </g>
     </g>
     <g id="text_3">
      <!-- $\mathdefault{10^{3}}$ -->
      <defs>
       <path d="M 40.578125 39.3125 
Q 47.65625 37.796875 51.625 33 
Q 55.609375 28.21875 55.609375 21.1875 
Q 55.609375 10.40625 48.1875 4.484375 
Q 40.765625 -1.421875 27.09375 -1.421875 
Q 22.515625 -1.421875 17.65625 -0.515625 
Q 12.796875 0.390625 7.625 2.203125 
L 7.625 11.71875 
Q 11.71875 9.328125 16.59375 8.109375 
Q 21.484375 6.890625 26.8125 6.890625 
Q 36.078125 6.890625 40.9375 10.546875 
Q 45.796875 14.203125 45.796875 21.1875 
Q 45.796875 27.640625 41.28125 31.265625 
Q 36.765625 34.90625 28.71875 34.90625 
L 20.21875 34.90625 
L 20.21875 43.015625 
L 29.109375 43.015625 
Q 36.375 43.015625 40.234375 45.921875 
Q 44.09375 48.828125 44.09375 54.296875 
Q 44.09375 59.90625 40.109375 62.90625 
Q 36.140625 65.921875 28.71875 65.921875 
Q 24.65625 65.921875 20.015625 65.03125 
Q 15.375 64.15625 9.8125 62.3125 
L 9.8125 71.09375 
Q 15.4375 72.65625 20.34375 73.4375 
Q 25.25 74.21875 29.59375 74.21875 
Q 40.828125 74.21875 47.359375 69.109375 
Q 53.90625 64.015625 53.90625 55.328125 
Q 53.90625 49.265625 50.4375 45.09375 
Q 46.96875 40.921875 40.578125 39.3125 
" id="BitstreamVeraSans-Roman-33"/>
      </defs>
      <g transform="translate(318.765938232 210.08125)scale(0.12 -0.12)">
       <use transform="translate(0.0 0.796875)" xlink:href="#BitstreamVeraSans-Roman-31"/>
       <use transform="translate(63.623046875 0.796875)" xlink:href="#BitstreamVeraSans-Roman-30"/>
       <use transform="translate(132.75859375 48.046875)scale(0.7)" xlink:href="#BitstreamVeraSans-Roman-33"/>
      </g>
     </g>
    </g>
    <g id="xtick_4">
     <g id="line2d_22">
      <defs>
       <path d="M 0 0 
L 0 -2 
" id="mc0d05773c2" style="stroke:#000000;stroke-width:0.5;"/>
      </defs>
      <g>
       <use style="stroke:#000000;stroke-width:0.5;" x="86.2578013399" xlink:href="#mc0d05773c2" y="196.336875"/>
      </g>
     </g>
     <g id="line2d_23">
      <defs>
       <path d="M 0 0 
L 0 2 
" id="m4d3628af1d" style="stroke:#000000;stroke-width:0.5;"/>
      </defs>
      <g>
       <use style="stroke:#000000;stroke-width:0.5;" x="86.2578013399" xlink:href="#m4d3628af1d" y="13.006875"/>
      </g>
     </g>
    </g>
    <g id="xtick_5">
     <g id="line2d_24">
      <g>
       <use style="stroke:#000000;stroke-width:0.5;" x="111.513002378" xlink:href="#mc0d05773c2" y="196.336875"/>
      </g>
     </g>
     <g id="line2d_25">
      <g>
       <use style="stroke:#000000;stroke-width:0.5;" x="111.513002378" xlink:href="#m4d3628af1d" y="13.006875"/>
      </g>
     </g>
    </g>
    <g id="xtick_6">
     <g id="line2d_26">
      <g>
       <use style="stroke:#000000;stroke-width:0.5;" x="129.43185268" xlink:href="#mc0d05773c2" y="196.336875"/>
      </g>
     </g>
     <g id="line2d_27">
      <g>
       <use style="stroke:#000000;stroke-width:0.5;" x="129.43185268" xlink:href="#m4d3628af1d" y="13.006875"/>
      </g>
     </g>
    </g>
    <g id="xtick_7">
     <g id="line2d_28">
      <g>
       <use style="stroke:#000000;stroke-width:0.5;" x="143.330792776" xlink:href="#mc0d05773c2" y="196.336875"/>
      </g>
     </g>
     <g id="line2d_29">
      <g>
       <use style="stroke:#000000;stroke-width:0.5;" x="143.330792776" xlink:href="#m4d3628af1d" y="13.006875"/>
      </g>
     </g>
    </g>
    <g id="xtick_8">
     <g id="line2d_30">
      <g>
       <use style="stroke:#000000;stroke-width:0.5;" x="154.687053718" xlink:href="#mc0d05773c2" y="196.336875"/>
      </g>
     </g>
     <g id="line2d_31">
      <g>
       <use style="stroke:#000000;stroke-width:0.5;" x="154.687053718" xlink:href="#m4d3628af1d" y="13.006875"/>
      </g>
     </g>
    </g>
    <g id="xtick_9">
     <g id="line2d_32">
      <g>
       <use style="stroke:#000000;stroke-width:0.5;" x="164.288635534" xlink:href="#mc0d05773c2" y="196.336875"/>
      </g>
     </g>
     <g id="line2d_33">
      <g>
       <use style="stroke:#000000;stroke-width:0.5;" x="164.288635534" xlink:href="#m4d3628af1d" y="13.006875"/>
      </g>
     </g>
    </g>
    <g id="xtick_10">
     <g id="line2d_34">
      <g>
       <use style="stroke:#000000;stroke-width:0.5;" x="172.60590402" xlink:href="#mc0d05773c2" y="196.336875"/>
      </g>
     </g>
     <g id="line2d_35">
      <g>
       <use style="stroke:#000000;stroke-width:0.5;" x="172.60590402" xlink:href="#m4d3628af1d" y="13.006875"/>
      </g>
     </g>
    </g>
    <g id="xtick_11">
     <g id="line2d_36">
      <g>
       <use style="stroke:#000000;stroke-width:0.5;" x="179.942254756" xlink:href="#mc0d05773c2" y="196.336875"/>
      </g>
     </g>
     <g id="line2d_37">
      <g>
       <use style="stroke:#000000;stroke-width:0.5;" x="179.942254756" xlink:href="#m4d3628af1d" y="13.006875"/>
      </g>
     </g>
    </g>
    <g id="xtick_12">
     <g id="line2d_38">
      <g>
       <use style="stroke:#000000;stroke-width:0.5;" x="229.678895456" xlink:href="#mc0d05773c2" y="196.336875"/>
      </g>
     </g>
     <g id="line2d_39">
      <g>
       <use style="stroke:#000000;stroke-width:0.5;" x="229.678895456" xlink:href="#m4d3628af1d" y="13.006875"/>
      </g>
     </g>
    </g>
    <g id="xtick_13">
     <g id="line2d_40">
      <g>
       <use style="stroke:#000000;stroke-width:0.5;" x="254.934096494" xlink:href="#mc0d05773c2" y="196.336875"/>
      </g>
     </g>
     <g id="line2d_41">
      <g>
       <use style="stroke:#000000;stroke-width:0.5;" x="254.934096494" xlink:href="#m4d3628af1d" y="13.006875"/>
      </g>
     </g>
    </g>
    <g id="xtick_14">
     <g id="line2d_42">
      <g>
       <use style="stroke:#000000;stroke-width:0.5;" x="272.852946796" xlink:href="#mc0d05773c2" y="196.336875"/>
      </g>
     </g>
     <g id="line2d_43">
      <g>
       <use style="stroke:#000000;stroke-width:0.5;" x="272.852946796" xlink:href="#m4d3628af1d" y="13.006875"/>
      </g>
     </g>
    </g>
    <g id="xtick_15">
     <g id="line2d_44">
      <g>
       <use style="stroke:#000000;stroke-width:0.5;" x="286.751886892" xlink:href="#mc0d05773c2" y="196.336875"/>
      </g>
     </g>
     <g id="line2d_45">
      <g>
       <use style="stroke:#000000;stroke-width:0.5;" x="286.751886892" xlink:href="#m4d3628af1d" y="13.006875"/>
      </g>
     </g>
    </g>
    <g id="xtick_16">
     <g id="line2d_46">
      <g>
       <use style="stroke:#000000;stroke-width:0.5;" x="298.108147834" xlink:href="#mc0d05773c2" y="196.336875"/>
      </g>
     </g>
     <g id="line2d_47">
      <g>
       <use style="stroke:#000000;stroke-width:0.5;" x="298.108147834" xlink:href="#m4d3628af1d" y="13.006875"/>
      </g>
     </g>
    </g>
    <g id="xtick_17">
     <g id="line2d_48">
      <g>
       <use style="stroke:#000000;stroke-width:0.5;" x="307.709729651" xlink:href="#mc0d05773c2" y="196.336875"/>
      </g>
     </g>
     <g id="line2d_49">
      <g>
       <use style="stroke:#000000;stroke-width:0.5;" x="307.709729651" xlink:href="#m4d3628af1d" y="13.006875"/>
      </g>
     </g>
    </g>
    <g id="xtick_18">
     <g id="line2d_50">
      <g>
       <use style="stroke:#000000;stroke-width:0.5;" x="316.026998136" xlink:href="#mc0d05773c2" y="196.336875"/>
      </g>
     </g>
     <g id="line2d_51">
      <g>
       <use style="stroke:#000000;stroke-width:0.5;" x="316.026998136" xlink:href="#m4d3628af1d" y="13.006875"/>
      </g>
     </g>
    </g>
    <g id="xtick_19">
     <g id="line2d_52">
      <g>
       <use style="stroke:#000000;stroke-width:0.5;" x="323.363348872" xlink:href="#mc0d05773c2" y="196.336875"/>
      </g>
     </g>
     <g id="line2d_53">
      <g>
       <use style="stroke:#000000;stroke-width:0.5;" x="323.363348872" xlink:href="#m4d3628af1d" y="13.006875"/>
      </g>
     </g>
    </g>
    <g id="text_4">
     <!-- matrix size (n) -->
     <defs>
      <path d="M 56.203125 29.59375 
L 56.203125 25.203125 
L 14.890625 25.203125 
Q 15.484375 15.921875 20.484375 11.0625 
Q 25.484375 6.203125 34.421875 6.203125 
Q 39.59375 6.203125 44.453125 7.46875 
Q 49.3125 8.734375 54.109375 11.28125 
L 54.109375 2.78125 
Q 49.265625 0.734375 44.1875 -0.34375 
Q 39.109375 -1.421875 33.890625 -1.421875 
Q 20.796875 -1.421875 13.15625 6.1875 
Q 5.515625 13.8125 5.515625 26.8125 
Q 5.515625 40.234375 12.765625 48.109375 
Q 20.015625 56 32.328125 56 
Q 43.359375 56 49.78125 48.890625 
Q 56.203125 41.796875 56.203125 29.59375 
M 47.21875 32.234375 
Q 47.125 39.59375 43.09375 43.984375 
Q 39.0625 48.390625 32.421875 48.390625 
Q 24.90625 48.390625 20.390625 44.140625 
Q 15.875 39.890625 15.1875 32.171875 
z
" id="BitstreamVeraSans-Roman-65"/>
      <path d="M 18.3125 70.21875 
L 18.3125 54.6875 
L 36.8125 54.6875 
L 36.8125 47.703125 
L 18.3125 47.703125 
L 18.3125 18.015625 
Q 18.3125 11.328125 20.140625 9.421875 
Q 21.96875 7.515625 27.59375 7.515625 
L 36.8125 7.515625 
L 36.8125 0 
L 27.59375 0 
Q 17.1875 0 13.234375 3.875 
Q 9.28125 7.765625 9.28125 18.015625 
L 9.28125 47.703125 
L 2.6875 47.703125 
L 2.6875 54.6875 
L 9.28125 54.6875 
L 9.28125 70.21875 
z
" id="BitstreamVeraSans-Roman-74"/>
      <path id="BitstreamVeraSans-Roman-20"/>
      <path d="M 9.421875 54.6875 
L 18.40625 54.6875 
L 18.40625 0 
L 9.421875 0 
z
M 9.421875 75.984375 
L 18.40625 75.984375 
L 18.40625 64.59375 
L 9.421875 64.59375 
z
" id="BitstreamVeraSans-Roman-69"/>
      <path d="M 41.109375 46.296875 
Q 39.59375 47.171875 37.8125 47.578125 
Q 36.03125 48 33.890625 48 
Q 26.265625 48 22.1875 43.046875 
Q 18.109375 38.09375 18.109375 28.8125 
L 18.109375 0 
L 9.078125 0 
L 9.078125 54.6875 
L 18.109375 54.6875 
L 18.109375 46.1875 
Q 20.953125 51.171875 25.484375 53.578125 
Q 30.03125 56 36.53125 56 
Q 37.453125 56 38.578125 55.875 
Q 39.703125 55.765625 41.0625 55.515625 
z
" id="BitstreamVeraSans-Roman-72"/>
      <path d="M 44.28125 53.078125 
L 44.28125 44.578125 
Q 40.484375 46.53125 36.375 47.5 
Q 32.28125 48.484375 27.875 48.484375 
Q 21.1875 48.484375 17.84375 46.4375 
Q 14.5 44.390625 14.5 40.28125 
Q 14.5 37.15625 16.890625 35.375 
Q 19.28125 33.59375 26.515625 31.984375 
L 29.59375 31.296875 
Q 39.15625 29.25 43.1875 25.515625 
Q 47.21875 21.78125 47.21875 15.09375 
Q 47.21875 7.46875 41.1875 3.015625 
Q 35.15625 -1.421875 24.609375 -1.421875 
Q 20.21875 -1.421875 15.453125 -0.5625 
Q 10.6875 0.296875 5.421875 2 
L 5.421875 11.28125 
Q 10.40625 8.6875 15.234375 7.390625 
Q 20.0625 6.109375 24.8125 6.109375 
Q 31.15625 6.109375 34.5625 8.28125 
Q 37.984375 10.453125 37.984375 14.40625 
Q 37.984375 18.0625 35.515625 20.015625 
Q 33.0625 21.96875 24.703125 23.78125 
L 21.578125 24.515625 
Q 13.234375 26.265625 9.515625 29.90625 
Q 5.8125 33.546875 5.8125 39.890625 
Q 5.8125 47.609375 11.28125 51.796875 
Q 16.75 56 26.8125 56 
Q 31.78125 56 36.171875 55.265625 
Q 40.578125 54.546875 44.28125 53.078125 
" id="BitstreamVeraSans-Roman-73"/>
      <path d="M 54.890625 33.015625 
L 54.890625 0 
L 45.90625 0 
L 45.90625 32.71875 
Q 45.90625 40.484375 42.875 44.328125 
Q 39.84375 48.1875 33.796875 48.1875 
Q 26.515625 48.1875 22.3125 43.546875 
Q 18.109375 38.921875 18.109375 30.90625 
L 18.109375 0 
L 9.078125 0 
L 9.078125 54.6875 
L 18.109375 54.6875 
L 18.109375 46.1875 
Q 21.34375 51.125 25.703125 53.5625 
Q 30.078125 56 35.796875 56 
Q 45.21875 56 50.046875 50.171875 
Q 54.890625 44.34375 54.890625 33.015625 
" id="BitstreamVeraSans-Roman-6e"/>
      <path d="M 52 44.1875 
Q 55.375 50.25 60.0625 53.125 
Q 64.75 56 71.09375 56 
Q 79.640625 56 84.28125 50.015625 
Q 88.921875 44.046875 88.921875 33.015625 
L 88.921875 0 
L 79.890625 0 
L 79.890625 32.71875 
Q 79.890625 40.578125 77.09375 44.375 
Q 74.3125 48.1875 68.609375 48.1875 
Q 61.625 48.1875 57.5625 43.546875 
Q 53.515625 38.921875 53.515625 30.90625 
L 53.515625 0 
L 44.484375 0 
L 44.484375 32.71875 
Q 44.484375 40.625 41.703125 44.40625 
Q 38.921875 48.1875 33.109375 48.1875 
Q 26.21875 48.1875 22.15625 43.53125 
Q 18.109375 38.875 18.109375 30.90625 
L 18.109375 0 
L 9.078125 0 
L 9.078125 54.6875 
L 18.109375 54.6875 
L 18.109375 46.1875 
Q 21.1875 51.21875 25.484375 53.609375 
Q 29.78125 56 35.6875 56 
Q 41.65625 56 45.828125 52.96875 
Q 50 49.953125 52 44.1875 
" id="BitstreamVeraSans-Roman-6d"/>
      <path d="M 54.890625 54.6875 
L 35.109375 28.078125 
L 55.90625 0 
L 45.3125 0 
L 29.390625 21.484375 
L 13.484375 0 
L 2.875 0 
L 24.125 28.609375 
L 4.6875 54.6875 
L 15.28125 54.6875 
L 29.78125 35.203125 
L 44.28125 54.6875 
z
" id="BitstreamVeraSans-Roman-78"/>
      <path d="M 34.28125 27.484375 
Q 23.390625 27.484375 19.1875 25 
Q 14.984375 22.515625 14.984375 16.5 
Q 14.984375 11.71875 18.140625 8.90625 
Q 21.296875 6.109375 26.703125 6.109375 
Q 34.1875 6.109375 38.703125 11.40625 
Q 43.21875 16.703125 43.21875 25.484375 
L 43.21875 27.484375 
z
M 52.203125 31.203125 
L 52.203125 0 
L 43.21875 0 
L 43.21875 8.296875 
Q 40.140625 3.328125 35.546875 0.953125 
Q 30.953125 -1.421875 24.3125 -1.421875 
Q 15.921875 -1.421875 10.953125 3.296875 
Q 6 8.015625 6 15.921875 
Q 6 25.140625 12.171875 29.828125 
Q 18.359375 34.515625 30.609375 34.515625 
L 43.21875 34.515625 
L 43.21875 35.40625 
Q 43.21875 41.609375 39.140625 45 
Q 35.0625 48.390625 27.6875 48.390625 
Q 23 48.390625 18.546875 47.265625 
Q 14.109375 46.140625 10.015625 43.890625 
L 10.015625 52.203125 
Q 14.9375 54.109375 19.578125 55.046875 
Q 24.21875 56 28.609375 56 
Q 40.484375 56 46.34375 49.84375 
Q 52.203125 43.703125 52.203125 31.203125 
" id="BitstreamVeraSans-Roman-61"/>
      <path d="M 5.515625 54.6875 
L 48.1875 54.6875 
L 48.1875 46.484375 
L 14.40625 7.171875 
L 48.1875 7.171875 
L 48.1875 0 
L 4.296875 0 
L 4.296875 8.203125 
L 38.09375 47.515625 
L 5.515625 47.515625 
z
" id="BitstreamVeraSans-Roman-7a"/>
      <path d="M 31 75.875 
Q 24.46875 64.65625 21.28125 53.65625 
Q 18.109375 42.671875 18.109375 31.390625 
Q 18.109375 20.125 21.3125 9.0625 
Q 24.515625 -2 31 -13.1875 
L 23.1875 -13.1875 
Q 15.875 -1.703125 12.234375 9.375 
Q 8.59375 20.453125 8.59375 31.390625 
Q 8.59375 42.28125 12.203125 53.3125 
Q 15.828125 64.359375 23.1875 75.875 
z
" id="BitstreamVeraSans-Roman-28"/>
      <path d="M 8.015625 75.875 
L 15.828125 75.875 
Q 23.140625 64.359375 26.78125 53.3125 
Q 30.421875 42.28125 30.421875 31.390625 
Q 30.421875 20.453125 26.78125 9.375 
Q 23.140625 -1.703125 15.828125 -13.1875 
L 8.015625 -13.1875 
Q 14.5 -2 17.703125 9.0625 
Q 20.90625 20.125 20.90625 31.390625 
Q 20.90625 42.671875 17.703125 53.65625 
Q 14.5 64.65625 8.015625 75.875 
" id="BitstreamVeraSans-Roman-29"/>
     </defs>
     <g transform="translate(143.015156616 226.695)scale(0.12 -0.12)">
      <use xlink:href="#BitstreamVeraSans-Roman-6d"/>
      <use x="97.412109375" xlink:href="#BitstreamVeraSans-Roman-61"/>
      <use x="158.69140625" xlink:href="#BitstreamVeraSans-Roman-74"/>
      <use x="197.900390625" xlink:href="#BitstreamVeraSans-Roman-72"/>
      <use x="239.013671875" xlink:href="#BitstreamVeraSans-Roman-69"/>
      <use x="266.796875" xlink:href="#BitstreamVeraSans-Roman-78"/>
      <use x="325.9765625" xlink:href="#BitstreamVeraSans-Roman-20"/>
      <use x="357.763671875" xlink:href="#BitstreamVeraSans-Roman-73"/>
      <use x="409.86328125" xlink:href="#BitstreamVeraSans-Roman-69"/>
      <use x="437.646484375" xlink:href="#BitstreamVeraSans-Roman-7a"/>
      <use x="490.13671875" xlink:href="#BitstreamVeraSans-Roman-65"/>
      <use x="551.66015625" xlink:href="#BitstreamVeraSans-Roman-20"/>
      <use x="583.447265625" xlink:href="#BitstreamVeraSans-Roman-28"/>
      <use x="622.4609375" xlink:href="#BitstreamVeraSans-Roman-6e"/>
      <use x="685.83984375" xlink:href="#BitstreamVeraSans-Roman-29"/>
     </g>
    </g>
   </g>
   <g id="matplotlib.axis_2">
    <g id="ytick_1">
     <g id="line2d_54">
      <path clip-path="url(#p78a0dc69a9)" d="M 43.08375 196.336875 
L 329.925938 196.336875 
" style="fill:none;stroke:#000000;stroke-dasharray:1.000000,3.000000;stroke-dashoffset:0.0;stroke-width:0.5;"/>
     </g>
     <g id="line2d_55">
      <defs>
       <path d="M 0 0 
L 4 0 
" id="ma0620e4932" style="stroke:#000000;stroke-width:0.5;"/>
      </defs>
      <g>
       <use style="stroke:#000000;stroke-width:0.5;" x="43.08375" xlink:href="#ma0620e4932" y="196.336875"/>
      </g>
     </g>
     <g id="line2d_56">
      <defs>
       <path d="M 0 0 
L -4 0 
" id="mfac6fa0106" style="stroke:#000000;stroke-width:0.5;"/>
      </defs>
      <g>
       <use style="stroke:#000000;stroke-width:0.5;" x="329.925938232" xlink:href="#mfac6fa0106" y="196.336875"/>
      </g>
     </g>
     <g id="text_5">
      <!-- 4 -->
      <defs>
       <path d="M 37.796875 64.3125 
L 12.890625 25.390625 
L 37.796875 25.390625 
z
M 35.203125 72.90625 
L 47.609375 72.90625 
L 47.609375 25.390625 
L 58.015625 25.390625 
L 58.015625 17.1875 
L 47.609375 17.1875 
L 47.609375 0 
L 37.796875 0 
L 37.796875 17.1875 
L 4.890625 17.1875 
L 4.890625 26.703125 
z
" id="BitstreamVeraSans-Roman-34"/>
      </defs>
      <g transform="translate(31.44875 199.648125)scale(0.12 -0.12)">
       <use xlink:href="#BitstreamVeraSans-Roman-34"/>
      </g>
     </g>
    </g>
    <g id="ytick_2">
     <g id="line2d_57">
      <path clip-path="url(#p78a0dc69a9)" d="M 43.08375 159.670875 
L 329.925938 159.670875 
" style="fill:none;stroke:#000000;stroke-dasharray:1.000000,3.000000;stroke-dashoffset:0.0;stroke-width:0.5;"/>
     </g>
     <g id="line2d_58">
      <g>
       <use style="stroke:#000000;stroke-width:0.5;" x="43.08375" xlink:href="#ma0620e4932" y="159.670875"/>
      </g>
     </g>
     <g id="line2d_59">
      <g>
       <use style="stroke:#000000;stroke-width:0.5;" x="329.925938232" xlink:href="#mfac6fa0106" y="159.670875"/>
      </g>
     </g>
     <g id="text_6">
      <!-- 6 -->
      <defs>
       <path d="M 33.015625 40.375 
Q 26.375 40.375 22.484375 35.828125 
Q 18.609375 31.296875 18.609375 23.390625 
Q 18.609375 15.53125 22.484375 10.953125 
Q 26.375 6.390625 33.015625 6.390625 
Q 39.65625 6.390625 43.53125 10.953125 
Q 47.40625 15.53125 47.40625 23.390625 
Q 47.40625 31.296875 43.53125 35.828125 
Q 39.65625 40.375 33.015625 40.375 
M 52.59375 71.296875 
L 52.59375 62.3125 
Q 48.875 64.0625 45.09375 64.984375 
Q 41.3125 65.921875 37.59375 65.921875 
Q 27.828125 65.921875 22.671875 59.328125 
Q 17.53125 52.734375 16.796875 39.40625 
Q 19.671875 43.65625 24.015625 45.921875 
Q 28.375 48.1875 33.59375 48.1875 
Q 44.578125 48.1875 50.953125 41.515625 
Q 57.328125 34.859375 57.328125 23.390625 
Q 57.328125 12.15625 50.6875 5.359375 
Q 44.046875 -1.421875 33.015625 -1.421875 
Q 20.359375 -1.421875 13.671875 8.265625 
Q 6.984375 17.96875 6.984375 36.375 
Q 6.984375 53.65625 15.1875 63.9375 
Q 23.390625 74.21875 37.203125 74.21875 
Q 40.921875 74.21875 44.703125 73.484375 
Q 48.484375 72.75 52.59375 71.296875 
" id="BitstreamVeraSans-Roman-36"/>
      </defs>
      <g transform="translate(31.44875 162.982125)scale(0.12 -0.12)">
       <use xlink:href="#BitstreamVeraSans-Roman-36"/>
      </g>
     </g>
    </g>
    <g id="ytick_3">
     <g id="line2d_60">
      <path clip-path="url(#p78a0dc69a9)" d="M 43.08375 123.004875 
L 329.925938 123.004875 
" style="fill:none;stroke:#000000;stroke-dasharray:1.000000,3.000000;stroke-dashoffset:0.0;stroke-width:0.5;"/>
     </g>
     <g id="line2d_61">
      <g>
       <use style="stroke:#000000;stroke-width:0.5;" x="43.08375" xlink:href="#ma0620e4932" y="123.004875"/>
      </g>
     </g>
     <g id="line2d_62">
      <g>
       <use style="stroke:#000000;stroke-width:0.5;" x="329.925938232" xlink:href="#mfac6fa0106" y="123.004875"/>
      </g>
     </g>
     <g id="text_7">
      <!-- 8 -->
      <defs>
       <path d="M 31.78125 34.625 
Q 24.75 34.625 20.71875 30.859375 
Q 16.703125 27.09375 16.703125 20.515625 
Q 16.703125 13.921875 20.71875 10.15625 
Q 24.75 6.390625 31.78125 6.390625 
Q 38.8125 6.390625 42.859375 10.171875 
Q 46.921875 13.96875 46.921875 20.515625 
Q 46.921875 27.09375 42.890625 30.859375 
Q 38.875 34.625 31.78125 34.625 
M 21.921875 38.8125 
Q 15.578125 40.375 12.03125 44.71875 
Q 8.5 49.078125 8.5 55.328125 
Q 8.5 64.0625 14.71875 69.140625 
Q 20.953125 74.21875 31.78125 74.21875 
Q 42.671875 74.21875 48.875 69.140625 
Q 55.078125 64.0625 55.078125 55.328125 
Q 55.078125 49.078125 51.53125 44.71875 
Q 48 40.375 41.703125 38.8125 
Q 48.828125 37.15625 52.796875 32.3125 
Q 56.78125 27.484375 56.78125 20.515625 
Q 56.78125 9.90625 50.3125 4.234375 
Q 43.84375 -1.421875 31.78125 -1.421875 
Q 19.734375 -1.421875 13.25 4.234375 
Q 6.78125 9.90625 6.78125 20.515625 
Q 6.78125 27.484375 10.78125 32.3125 
Q 14.796875 37.15625 21.921875 38.8125 
M 18.3125 54.390625 
Q 18.3125 48.734375 21.84375 45.5625 
Q 25.390625 42.390625 31.78125 42.390625 
Q 38.140625 42.390625 41.71875 45.5625 
Q 45.3125 48.734375 45.3125 54.390625 
Q 45.3125 60.0625 41.71875 63.234375 
Q 38.140625 66.40625 31.78125 66.40625 
Q 25.390625 66.40625 21.84375 63.234375 
Q 18.3125 60.0625 18.3125 54.390625 
" id="BitstreamVeraSans-Roman-38"/>
      </defs>
      <g transform="translate(31.44875 126.316125)scale(0.12 -0.12)">
       <use xlink:href="#BitstreamVeraSans-Roman-38"/>
      </g>
     </g>
    </g>
    <g id="ytick_4">
     <g id="line2d_63">
      <path clip-path="url(#p78a0dc69a9)" d="M 43.08375 86.338875 
L 329.925938 86.338875 
" style="fill:none;stroke:#000000;stroke-dasharray:1.000000,3.000000;stroke-dashoffset:0.0;stroke-width:0.5;"/>
     </g>
     <g id="line2d_64">
      <g>
       <use style="stroke:#000000;stroke-width:0.5;" x="43.08375" xlink:href="#ma0620e4932" y="86.338875"/>
      </g>
     </g>
     <g id="line2d_65">
      <g>
       <use style="stroke:#000000;stroke-width:0.5;" x="329.925938232" xlink:href="#mfac6fa0106" y="86.338875"/>
      </g>
     </g>
     <g id="text_8">
      <!-- 10 -->
      <g transform="translate(23.81375 89.650125)scale(0.12 -0.12)">
       <use xlink:href="#BitstreamVeraSans-Roman-31"/>
       <use x="63.623046875" xlink:href="#BitstreamVeraSans-Roman-30"/>
      </g>
     </g>
    </g>
    <g id="ytick_5">
     <g id="line2d_66">
      <path clip-path="url(#p78a0dc69a9)" d="M 43.08375 49.672875 
L 329.925938 49.672875 
" style="fill:none;stroke:#000000;stroke-dasharray:1.000000,3.000000;stroke-dashoffset:0.0;stroke-width:0.5;"/>
     </g>
     <g id="line2d_67">
      <g>
       <use style="stroke:#000000;stroke-width:0.5;" x="43.08375" xlink:href="#ma0620e4932" y="49.672875"/>
      </g>
     </g>
     <g id="line2d_68">
      <g>
       <use style="stroke:#000000;stroke-width:0.5;" x="329.925938232" xlink:href="#mfac6fa0106" y="49.672875"/>
      </g>
     </g>
     <g id="text_9">
      <!-- 12 -->
      <g transform="translate(23.81375 52.984125)scale(0.12 -0.12)">
       <use xlink:href="#BitstreamVeraSans-Roman-31"/>
       <use x="63.623046875" xlink:href="#BitstreamVeraSans-Roman-32"/>
      </g>
     </g>
    </g>
    <g id="ytick_6">
     <g id="line2d_69">
      <path clip-path="url(#p78a0dc69a9)" d="M 43.08375 13.006875 
L 329.925938 13.006875 
" style="fill:none;stroke:#000000;stroke-dasharray:1.000000,3.000000;stroke-dashoffset:0.0;stroke-width:0.5;"/>
     </g>
     <g id="line2d_70">
      <g>
       <use style="stroke:#000000;stroke-width:0.5;" x="43.08375" xlink:href="#ma0620e4932" y="13.006875"/>
      </g>
     </g>
     <g id="line2d_71">
      <g>
       <use style="stroke:#000000;stroke-width:0.5;" x="329.925938232" xlink:href="#mfac6fa0106" y="13.006875"/>
      </g>
     </g>
     <g id="text_10">
      <!-- 14 -->
      <g transform="translate(23.81375 16.318125)scale(0.12 -0.12)">
       <use xlink:href="#BitstreamVeraSans-Roman-31"/>
       <use x="63.623046875" xlink:href="#BitstreamVeraSans-Roman-34"/>
      </g>
     </g>
    </g>
    <g id="text_11">
     <!-- effective performance /GFLOPS -->
     <defs>
      <path d="M 39.40625 66.21875 
Q 28.65625 66.21875 22.328125 58.203125 
Q 16.015625 50.203125 16.015625 36.375 
Q 16.015625 22.609375 22.328125 14.59375 
Q 28.65625 6.59375 39.40625 6.59375 
Q 50.140625 6.59375 56.421875 14.59375 
Q 62.703125 22.609375 62.703125 36.375 
Q 62.703125 50.203125 56.421875 58.203125 
Q 50.140625 66.21875 39.40625 66.21875 
M 39.40625 74.21875 
Q 54.734375 74.21875 63.90625 63.9375 
Q 73.09375 53.65625 73.09375 36.375 
Q 73.09375 19.140625 63.90625 8.859375 
Q 54.734375 -1.421875 39.40625 -1.421875 
Q 24.03125 -1.421875 14.8125 8.828125 
Q 5.609375 19.09375 5.609375 36.375 
Q 5.609375 53.65625 14.8125 63.9375 
Q 24.03125 74.21875 39.40625 74.21875 
" id="BitstreamVeraSans-Roman-4f"/>
      <path d="M 53.515625 70.515625 
L 53.515625 60.890625 
Q 47.90625 63.578125 42.921875 64.890625 
Q 37.9375 66.21875 33.296875 66.21875 
Q 25.25 66.21875 20.875 63.09375 
Q 16.5 59.96875 16.5 54.203125 
Q 16.5 49.359375 19.40625 46.890625 
Q 22.3125 44.4375 30.421875 42.921875 
L 36.375 41.703125 
Q 47.40625 39.59375 52.65625 34.296875 
Q 57.90625 29 57.90625 20.125 
Q 57.90625 9.515625 50.796875 4.046875 
Q 43.703125 -1.421875 29.984375 -1.421875 
Q 24.8125 -1.421875 18.96875 -0.25 
Q 13.140625 0.921875 6.890625 3.21875 
L 6.890625 13.375 
Q 12.890625 10.015625 18.65625 8.296875 
Q 24.421875 6.59375 29.984375 6.59375 
Q 38.421875 6.59375 43.015625 9.90625 
Q 47.609375 13.234375 47.609375 19.390625 
Q 47.609375 24.75 44.3125 27.78125 
Q 41.015625 30.8125 33.5 32.328125 
L 27.484375 33.5 
Q 16.453125 35.6875 11.515625 40.375 
Q 6.59375 45.0625 6.59375 53.421875 
Q 6.59375 63.09375 13.40625 68.65625 
Q 20.21875 74.21875 32.171875 74.21875 
Q 37.3125 74.21875 42.625 73.28125 
Q 47.953125 72.359375 53.515625 70.515625 
" id="BitstreamVeraSans-Roman-53"/>
      <path d="M 37.109375 75.984375 
L 37.109375 68.5 
L 28.515625 68.5 
Q 23.6875 68.5 21.796875 66.546875 
Q 19.921875 64.59375 19.921875 59.515625 
L 19.921875 54.6875 
L 34.71875 54.6875 
L 34.71875 47.703125 
L 19.921875 47.703125 
L 19.921875 0 
L 10.890625 0 
L 10.890625 47.703125 
L 2.296875 47.703125 
L 2.296875 54.6875 
L 10.890625 54.6875 
L 10.890625 58.5 
Q 10.890625 67.625 15.140625 71.796875 
Q 19.390625 75.984375 28.609375 75.984375 
z
" id="BitstreamVeraSans-Roman-66"/>
      <path d="M 19.671875 64.796875 
L 19.671875 37.40625 
L 32.078125 37.40625 
Q 38.96875 37.40625 42.71875 40.96875 
Q 46.484375 44.53125 46.484375 51.125 
Q 46.484375 57.671875 42.71875 61.234375 
Q 38.96875 64.796875 32.078125 64.796875 
z
M 9.8125 72.90625 
L 32.078125 72.90625 
Q 44.34375 72.90625 50.609375 67.359375 
Q 56.890625 61.8125 56.890625 51.125 
Q 56.890625 40.328125 50.609375 34.8125 
Q 44.34375 29.296875 32.078125 29.296875 
L 19.671875 29.296875 
L 19.671875 0 
L 9.8125 0 
z
" id="BitstreamVeraSans-Roman-50"/>
      <path d="M 30.609375 48.390625 
Q 23.390625 48.390625 19.1875 42.75 
Q 14.984375 37.109375 14.984375 27.296875 
Q 14.984375 17.484375 19.15625 11.84375 
Q 23.34375 6.203125 30.609375 6.203125 
Q 37.796875 6.203125 41.984375 11.859375 
Q 46.1875 17.53125 46.1875 27.296875 
Q 46.1875 37.015625 41.984375 42.703125 
Q 37.796875 48.390625 30.609375 48.390625 
M 30.609375 56 
Q 42.328125 56 49.015625 48.375 
Q 55.71875 40.765625 55.71875 27.296875 
Q 55.71875 13.875 49.015625 6.21875 
Q 42.328125 -1.421875 30.609375 -1.421875 
Q 18.84375 -1.421875 12.171875 6.21875 
Q 5.515625 13.875 5.515625 27.296875 
Q 5.515625 40.765625 12.171875 48.375 
Q 18.84375 56 30.609375 56 
" id="BitstreamVeraSans-Roman-6f"/>
      <path d="M 59.515625 10.40625 
L 59.515625 29.984375 
L 43.40625 29.984375 
L 43.40625 38.09375 
L 69.28125 38.09375 
L 69.28125 6.78125 
Q 63.578125 2.734375 56.6875 0.65625 
Q 49.8125 -1.421875 42 -1.421875 
Q 24.90625 -1.421875 15.25 8.5625 
Q 5.609375 18.5625 5.609375 36.375 
Q 5.609375 54.25 15.25 64.234375 
Q 24.90625 74.21875 42 74.21875 
Q 49.125 74.21875 55.546875 72.453125 
Q 61.96875 70.703125 67.390625 67.28125 
L 67.390625 56.78125 
Q 61.921875 61.421875 55.765625 63.765625 
Q 49.609375 66.109375 42.828125 66.109375 
Q 29.4375 66.109375 22.71875 58.640625 
Q 16.015625 51.171875 16.015625 36.375 
Q 16.015625 21.625 22.71875 14.15625 
Q 29.4375 6.6875 42.828125 6.6875 
Q 48.046875 6.6875 52.140625 7.59375 
Q 56.25 8.5 59.515625 10.40625 
" id="BitstreamVeraSans-Roman-47"/>
      <path d="M 18.109375 8.203125 
L 18.109375 -20.796875 
L 9.078125 -20.796875 
L 9.078125 54.6875 
L 18.109375 54.6875 
L 18.109375 46.390625 
Q 20.953125 51.265625 25.265625 53.625 
Q 29.59375 56 35.59375 56 
Q 45.5625 56 51.78125 48.09375 
Q 58.015625 40.1875 58.015625 27.296875 
Q 58.015625 14.40625 51.78125 6.484375 
Q 45.5625 -1.421875 35.59375 -1.421875 
Q 29.59375 -1.421875 25.265625 0.953125 
Q 20.953125 3.328125 18.109375 8.203125 
M 48.6875 27.296875 
Q 48.6875 37.203125 44.609375 42.84375 
Q 40.53125 48.484375 33.40625 48.484375 
Q 26.265625 48.484375 22.1875 42.84375 
Q 18.109375 37.203125 18.109375 27.296875 
Q 18.109375 17.390625 22.1875 11.75 
Q 26.265625 6.109375 33.40625 6.109375 
Q 40.53125 6.109375 44.609375 11.75 
Q 48.6875 17.390625 48.6875 27.296875 
" id="BitstreamVeraSans-Roman-70"/>
      <path d="M 25.390625 72.90625 
L 33.6875 72.90625 
L 8.296875 -9.28125 
L 0 -9.28125 
z
" id="BitstreamVeraSans-Roman-2f"/>
      <path d="M 48.78125 52.59375 
L 48.78125 44.1875 
Q 44.96875 46.296875 41.140625 47.34375 
Q 37.3125 48.390625 33.40625 48.390625 
Q 24.65625 48.390625 19.8125 42.84375 
Q 14.984375 37.3125 14.984375 27.296875 
Q 14.984375 17.28125 19.8125 11.734375 
Q 24.65625 6.203125 33.40625 6.203125 
Q 37.3125 6.203125 41.140625 7.25 
Q 44.96875 8.296875 48.78125 10.40625 
L 48.78125 2.09375 
Q 45.015625 0.34375 40.984375 -0.53125 
Q 36.96875 -1.421875 32.421875 -1.421875 
Q 20.0625 -1.421875 12.78125 6.34375 
Q 5.515625 14.109375 5.515625 27.296875 
Q 5.515625 40.671875 12.859375 48.328125 
Q 20.21875 56 33.015625 56 
Q 37.15625 56 41.109375 55.140625 
Q 45.0625 54.296875 48.78125 52.59375 
" id="BitstreamVeraSans-Roman-63"/>
      <path d="M 9.8125 72.90625 
L 51.703125 72.90625 
L 51.703125 64.59375 
L 19.671875 64.59375 
L 19.671875 43.109375 
L 48.578125 43.109375 
L 48.578125 34.8125 
L 19.671875 34.8125 
L 19.671875 0 
L 9.8125 0 
z
" id="BitstreamVeraSans-Roman-46"/>
      <path d="M 2.984375 54.6875 
L 12.5 54.6875 
L 29.59375 8.796875 
L 46.6875 54.6875 
L 56.203125 54.6875 
L 35.6875 0 
L 23.484375 0 
z
" id="BitstreamVeraSans-Roman-76"/>
      <path d="M 9.8125 72.90625 
L 19.671875 72.90625 
L 19.671875 8.296875 
L 55.171875 8.296875 
L 55.171875 0 
L 9.8125 0 
z
" id="BitstreamVeraSans-Roman-4c"/>
     </defs>
     <g transform="translate(16.318125 198.7978125)rotate(-90.0)scale(0.12 -0.12)">
      <use xlink:href="#BitstreamVeraSans-Roman-65"/>
      <use x="61.5234375" xlink:href="#BitstreamVeraSans-Roman-66"/>
      <use x="96.728515625" xlink:href="#BitstreamVeraSans-Roman-66"/>
      <use x="131.93359375" xlink:href="#BitstreamVeraSans-Roman-65"/>
      <use x="193.45703125" xlink:href="#BitstreamVeraSans-Roman-63"/>
      <use x="248.4375" xlink:href="#BitstreamVeraSans-Roman-74"/>
      <use x="287.646484375" xlink:href="#BitstreamVeraSans-Roman-69"/>
      <use x="315.4296875" xlink:href="#BitstreamVeraSans-Roman-76"/>
      <use x="374.609375" xlink:href="#BitstreamVeraSans-Roman-65"/>
      <use x="436.1328125" xlink:href="#BitstreamVeraSans-Roman-20"/>
      <use x="467.919921875" xlink:href="#BitstreamVeraSans-Roman-70"/>
      <use x="531.396484375" xlink:href="#BitstreamVeraSans-Roman-65"/>
      <use x="592.919921875" xlink:href="#BitstreamVeraSans-Roman-72"/>
      <use x="634.033203125" xlink:href="#BitstreamVeraSans-Roman-66"/>
      <use x="669.23828125" xlink:href="#BitstreamVeraSans-Roman-6f"/>
      <use x="730.419921875" xlink:href="#BitstreamVeraSans-Roman-72"/>
      <use x="771.517578125" xlink:href="#BitstreamVeraSans-Roman-6d"/>
      <use x="868.9296875" xlink:href="#BitstreamVeraSans-Roman-61"/>
      <use x="930.208984375" xlink:href="#BitstreamVeraSans-Roman-6e"/>
      <use x="993.587890625" xlink:href="#BitstreamVeraSans-Roman-63"/>
      <use x="1048.568359375" xlink:href="#BitstreamVeraSans-Roman-65"/>
      <use x="1110.091796875" xlink:href="#BitstreamVeraSans-Roman-20"/>
      <use x="1141.87890625" xlink:href="#BitstreamVeraSans-Roman-2f"/>
      <use x="1175.5703125" xlink:href="#BitstreamVeraSans-Roman-47"/>
      <use x="1253.060546875" xlink:href="#BitstreamVeraSans-Roman-46"/>
      <use x="1310.580078125" xlink:href="#BitstreamVeraSans-Roman-4c"/>
      <use x="1366.24609375" xlink:href="#BitstreamVeraSans-Roman-4f"/>
      <use x="1444.95703125" xlink:href="#BitstreamVeraSans-Roman-50"/>
      <use x="1505.259765625" xlink:href="#BitstreamVeraSans-Roman-53"/>
     </g>
    </g>
   </g>
   <g id="legend_1">
    <g id="patch_7">
     <path d="M 337.125938 149.104875 
L 414.663188 149.104875 
L 414.663188 60.238875 
L 337.125938 60.238875 
z
" style="fill:#ffffff;stroke:#000000;stroke-linejoin:miter;"/>
    </g>
    <g id="LineCollection_5">
     <path d="M 347.205938 79.100625 
L 347.205938 64.700625 
" style="fill:none;stroke:#e91e63;stroke-opacity:0.8;stroke-width:2.0;"/>
     <path d="M 367.365938 79.100625 
L 367.365938 64.700625 
" style="fill:none;stroke:#e91e63;stroke-opacity:0.8;stroke-width:2.0;"/>
    </g>
    <g id="line2d_72">
     <g>
      <use style="fill:#e91e63;opacity:0.8;stroke:#e91e63;stroke-width:0.5;" x="347.205938232" xlink:href="#m185c772746" y="79.100625"/>
      <use style="fill:#e91e63;opacity:0.8;stroke:#e91e63;stroke-width:0.5;" x="367.365938232" xlink:href="#m185c772746" y="79.100625"/>
     </g>
    </g>
    <g id="line2d_73">
     <g>
      <use style="fill:#e91e63;opacity:0.8;stroke:#e91e63;stroke-width:0.5;" x="347.205938232" xlink:href="#m185c772746" y="64.700625"/>
      <use style="fill:#e91e63;opacity:0.8;stroke:#e91e63;stroke-width:0.5;" x="367.365938232" xlink:href="#m185c772746" y="64.700625"/>
     </g>
    </g>
    <g id="line2d_74">
     <path d="M 347.205938 71.900625 
L 367.365938 71.900625 
" style="fill:none;opacity:0.8;stroke:#e91e63;stroke-linecap:square;stroke-width:2.0;"/>
    </g>
    <g id="line2d_75"/>
    <g id="text_12">
     <!-- -O0 -->
     <defs>
      <path d="M 4.890625 31.390625 
L 31.203125 31.390625 
L 31.203125 23.390625 
L 4.890625 23.390625 
z
" id="BitstreamVeraSans-Roman-2d"/>
     </defs>
     <g transform="translate(383.205938232 76.940625)scale(0.144 -0.144)">
      <use xlink:href="#BitstreamVeraSans-Roman-2d"/>
      <use x="36.115234375" xlink:href="#BitstreamVeraSans-Roman-4f"/>
      <use x="114.826171875" xlink:href="#BitstreamVeraSans-Roman-30"/>
     </g>
    </g>
    <g id="LineCollection_6">
     <path d="M 347.205938 100.237125 
L 347.205938 85.837125 
" style="fill:none;stroke:#f29312;stroke-opacity:0.8;stroke-width:2.0;"/>
     <path d="M 367.365938 100.237125 
L 367.365938 85.837125 
" style="fill:none;stroke:#f29312;stroke-opacity:0.8;stroke-width:2.0;"/>
    </g>
    <g id="line2d_76">
     <g>
      <use style="fill:#f29312;opacity:0.8;stroke:#f29312;stroke-width:0.5;" x="347.205938232" xlink:href="#mb2350e324a" y="100.237125"/>
      <use style="fill:#f29312;opacity:0.8;stroke:#f29312;stroke-width:0.5;" x="367.365938232" xlink:href="#mb2350e324a" y="100.237125"/>
     </g>
    </g>
    <g id="line2d_77">
     <g>
      <use style="fill:#f29312;opacity:0.8;stroke:#f29312;stroke-width:0.5;" x="347.205938232" xlink:href="#mb2350e324a" y="85.837125"/>
      <use style="fill:#f29312;opacity:0.8;stroke:#f29312;stroke-width:0.5;" x="367.365938232" xlink:href="#mb2350e324a" y="85.837125"/>
     </g>
    </g>
    <g id="line2d_78">
     <path d="M 347.205938 93.037125 
L 367.365938 93.037125 
" style="fill:none;opacity:0.8;stroke:#f29312;stroke-linecap:square;stroke-width:2.0;"/>
    </g>
    <g id="line2d_79"/>
    <g id="text_13">
     <!-- -O1 -->
     <g transform="translate(383.205938232 98.077125)scale(0.144 -0.144)">
      <use xlink:href="#BitstreamVeraSans-Roman-2d"/>
      <use x="36.115234375" xlink:href="#BitstreamVeraSans-Roman-4f"/>
      <use x="114.826171875" xlink:href="#BitstreamVeraSans-Roman-31"/>
     </g>
    </g>
    <g id="LineCollection_7">
     <path d="M 347.205938 121.373625 
L 347.205938 106.973625 
" style="fill:none;stroke:#4caf50;stroke-opacity:0.8;stroke-width:2.0;"/>
     <path d="M 367.365938 121.373625 
L 367.365938 106.973625 
" style="fill:none;stroke:#4caf50;stroke-opacity:0.8;stroke-width:2.0;"/>
    </g>
    <g id="line2d_80">
     <g>
      <use style="fill:#4caf50;opacity:0.8;stroke:#4caf50;stroke-width:0.5;" x="347.205938232" xlink:href="#m6435962961" y="121.373625"/>
      <use style="fill:#4caf50;opacity:0.8;stroke:#4caf50;stroke-width:0.5;" x="367.365938232" xlink:href="#m6435962961" y="121.373625"/>
     </g>
    </g>
    <g id="line2d_81">
     <g>
      <use style="fill:#4caf50;opacity:0.8;stroke:#4caf50;stroke-width:0.5;" x="347.205938232" xlink:href="#m6435962961" y="106.973625"/>
      <use style="fill:#4caf50;opacity:0.8;stroke:#4caf50;stroke-width:0.5;" x="367.365938232" xlink:href="#m6435962961" y="106.973625"/>
     </g>
    </g>
    <g id="line2d_82">
     <path d="M 347.205938 114.173625 
L 367.365938 114.173625 
" style="fill:none;opacity:0.8;stroke:#4caf50;stroke-linecap:square;stroke-width:2.0;"/>
    </g>
    <g id="line2d_83"/>
    <g id="text_14">
     <!-- -O2 -->
     <g transform="translate(383.205938232 119.213625)scale(0.144 -0.144)">
      <use xlink:href="#BitstreamVeraSans-Roman-2d"/>
      <use x="36.115234375" xlink:href="#BitstreamVeraSans-Roman-4f"/>
      <use x="114.826171875" xlink:href="#BitstreamVeraSans-Roman-32"/>
     </g>
    </g>
    <g id="LineCollection_8">
     <path d="M 347.205938 142.510125 
L 347.205938 128.110125 
" style="fill:none;stroke:#2196f3;stroke-opacity:0.8;stroke-width:2.0;"/>
     <path d="M 367.365938 142.510125 
L 367.365938 128.110125 
" style="fill:none;stroke:#2196f3;stroke-opacity:0.8;stroke-width:2.0;"/>
    </g>
    <g id="line2d_84">
     <g>
      <use style="fill:#2196f3;opacity:0.8;stroke:#2196f3;stroke-width:0.5;" x="347.205938232" xlink:href="#m610c980a3b" y="142.510125"/>
      <use style="fill:#2196f3;opacity:0.8;stroke:#2196f3;stroke-width:0.5;" x="367.365938232" xlink:href="#m610c980a3b" y="142.510125"/>
     </g>
    </g>
    <g id="line2d_85">
     <g>
      <use style="fill:#2196f3;opacity:0.8;stroke:#2196f3;stroke-width:0.5;" x="347.205938232" xlink:href="#m610c980a3b" y="128.110125"/>
      <use style="fill:#2196f3;opacity:0.8;stroke:#2196f3;stroke-width:0.5;" x="367.365938232" xlink:href="#m610c980a3b" y="128.110125"/>
     </g>
    </g>
    <g id="line2d_86">
     <path d="M 347.205938 135.310125 
L 367.365938 135.310125 
" style="fill:none;opacity:0.8;stroke:#2196f3;stroke-linecap:square;stroke-width:2.0;"/>
    </g>
    <g id="line2d_87"/>
    <g id="text_15">
     <!-- -O3 -->
     <g transform="translate(383.205938232 140.350125)scale(0.144 -0.144)">
      <use xlink:href="#BitstreamVeraSans-Roman-2d"/>
      <use x="36.115234375" xlink:href="#BitstreamVeraSans-Roman-4f"/>
      <use x="114.826171875" xlink:href="#BitstreamVeraSans-Roman-33"/>
     </g>
    </g>
   </g>
  </g>
 </g>
 <defs>
  <clipPath id="p78a0dc69a9">
   <rect height="183.33" width="286.842188232" x="43.08375" y="13.006875"/>
  </clipPath>
 </defs>
</svg>
