<?xml version="1.0" encoding="utf-8" standalone="no"?>
<!DOCTYPE svg PUBLIC "-//W3C//DTD SVG 1.1//EN"
  "http://www.w3.org/Graphics/SVG/1.1/DTD/svg11.dtd">
<!-- Created with matplotlib (http://matplotlib.org/) -->
<svg height="416pt" version="1.1" viewBox="0 0 784 416" width="784pt" xmlns="http://www.w3.org/2000/svg" xmlns:xlink="http://www.w3.org/1999/xlink">
 <defs>
  <style type="text/css">
*{stroke-linecap:butt;stroke-linejoin:round;stroke-miterlimit:100000;}
  </style>
 </defs>
 <g id="figure_1">
  <g id="patch_1">
   <path d="M 0 416.390625 
L 784.561688 416.390625 
L 784.561688 0 
L 0 0 
z
" style="fill:#ffffff;"/>
  </g>
  <g id="axes_1">
   <g id="patch_2">
    <path d="M 50.71875 376.336875 
L 545.910938 376.336875 
L 545.910938 13.006875 
L 50.71875 13.006875 
z
" style="fill:#ffffff;"/>
   </g>
   <g id="LineCollection_1">
    <path clip-path="url(#p5ff589434f)" d="M 125.252601 352.871977 
L 125.252601 352.75419 
" style="fill:none;stroke:#e91e63;stroke-opacity:0.8;stroke-width:2.0;"/>
    <path clip-path="url(#p5ff589434f)" d="M 199.786452 354.900875 
L 199.786452 354.841647 
" style="fill:none;stroke:#e91e63;stroke-opacity:0.8;stroke-width:2.0;"/>
    <path clip-path="url(#p5ff589434f)" d="M 243.38596 364.756306 
L 243.38596 358.463432 
" style="fill:none;stroke:#e91e63;stroke-opacity:0.8;stroke-width:2.0;"/>
    <path clip-path="url(#p5ff589434f)" d="M 274.320303 361.634394 
L 274.320303 356.673822 
" style="fill:none;stroke:#e91e63;stroke-opacity:0.8;stroke-width:2.0;"/>
    <path clip-path="url(#p5ff589434f)" d="M 298.314844 356.579695 
L 298.314844 356.511954 
" style="fill:none;stroke:#e91e63;stroke-opacity:0.8;stroke-width:2.0;"/>
    <path clip-path="url(#p5ff589434f)" d="M 341.914352 357.741603 
L 341.914352 357.690842 
" style="fill:none;stroke:#e91e63;stroke-opacity:0.8;stroke-width:2.0;"/>
    <path clip-path="url(#p5ff589434f)" d="M 372.848695 360.269367 
L 372.848695 358.806398 
" style="fill:none;stroke:#e91e63;stroke-opacity:0.8;stroke-width:2.0;"/>
    <path clip-path="url(#p5ff589434f)" d="M 416.448203 358.796671 
L 416.448203 358.631294 
" style="fill:none;stroke:#e91e63;stroke-opacity:0.8;stroke-width:2.0;"/>
    <path clip-path="url(#p5ff589434f)" d="M 447.382546 358.404187 
L 447.382546 358.260832 
" style="fill:none;stroke:#e91e63;stroke-opacity:0.8;stroke-width:2.0;"/>
    <path clip-path="url(#p5ff589434f)" d="M 490.982054 359.707397 
L 490.982054 358.140112 
" style="fill:none;stroke:#e91e63;stroke-opacity:0.8;stroke-width:2.0;"/>
    <path clip-path="url(#p5ff589434f)" d="M 521.916398 359.609431 
L 521.916398 357.890277 
" style="fill:none;stroke:#e91e63;stroke-opacity:0.8;stroke-width:2.0;"/>
    <path clip-path="url(#p5ff589434f)" d="M 545.910938 357.803796 
L 545.910938 357.7075 
" style="fill:none;stroke:#e91e63;stroke-opacity:0.8;stroke-width:2.0;"/>
   </g>
   <g id="LineCollection_2">
    <path clip-path="url(#p5ff589434f)" d="M 125.252601 339.833326 
L 125.252601 339.733001 
" style="fill:none;stroke:#f29312;stroke-opacity:0.8;stroke-width:2.0;"/>
    <path clip-path="url(#p5ff589434f)" d="M 199.786452 350.778625 
L 199.786452 348.437437 
" style="fill:none;stroke:#f29312;stroke-opacity:0.8;stroke-width:2.0;"/>
    <path clip-path="url(#p5ff589434f)" d="M 243.38596 350.97906 
L 243.38596 348.608196 
" style="fill:none;stroke:#f29312;stroke-opacity:0.8;stroke-width:2.0;"/>
    <path clip-path="url(#p5ff589434f)" d="M 274.320303 361.786899 
L 274.320303 353.08595 
" style="fill:none;stroke:#f29312;stroke-opacity:0.8;stroke-width:2.0;"/>
    <path clip-path="url(#p5ff589434f)" d="M 298.314844 351.210086 
L 298.314844 351.087199 
" style="fill:none;stroke:#f29312;stroke-opacity:0.8;stroke-width:2.0;"/>
    <path clip-path="url(#p5ff589434f)" d="M 341.914352 362.39432 
L 341.914352 352.767459 
" style="fill:none;stroke:#f29312;stroke-opacity:0.8;stroke-width:2.0;"/>
    <path clip-path="url(#p5ff589434f)" d="M 372.848695 352.427768 
L 372.848695 352.31394 
" style="fill:none;stroke:#f29312;stroke-opacity:0.8;stroke-width:2.0;"/>
    <path clip-path="url(#p5ff589434f)" d="M 416.448203 355.619163 
L 416.448203 353.598676 
" style="fill:none;stroke:#f29312;stroke-opacity:0.8;stroke-width:2.0;"/>
    <path clip-path="url(#p5ff589434f)" d="M 447.382546 356.043665 
L 447.382546 353.872328 
" style="fill:none;stroke:#f29312;stroke-opacity:0.8;stroke-width:2.0;"/>
    <path clip-path="url(#p5ff589434f)" d="M 490.982054 356.034607 
L 490.982054 353.983653 
" style="fill:none;stroke:#f29312;stroke-opacity:0.8;stroke-width:2.0;"/>
    <path clip-path="url(#p5ff589434f)" d="M 521.916398 354.441992 
L 521.916398 354.159783 
" style="fill:none;stroke:#f29312;stroke-opacity:0.8;stroke-width:2.0;"/>
    <path clip-path="url(#p5ff589434f)" d="M 545.910938 355.818925 
L 545.910938 354.393614 
" style="fill:none;stroke:#f29312;stroke-opacity:0.8;stroke-width:2.0;"/>
   </g>
   <g id="LineCollection_3">
    <path clip-path="url(#p5ff589434f)" d="M 125.252601 360.160974 
L 125.252601 349.935602 
" style="fill:none;stroke:#4caf50;stroke-opacity:0.8;stroke-width:2.0;"/>
    <path clip-path="url(#p5ff589434f)" d="M 199.786452 340.048591 
L 199.786452 339.904358 
" style="fill:none;stroke:#4caf50;stroke-opacity:0.8;stroke-width:2.0;"/>
    <path clip-path="url(#p5ff589434f)" d="M 243.38596 340.438416 
L 243.38596 336.716304 
" style="fill:none;stroke:#4caf50;stroke-opacity:0.8;stroke-width:2.0;"/>
    <path clip-path="url(#p5ff589434f)" d="M 274.320303 334.52188 
L 274.320303 334.425491 
" style="fill:none;stroke:#4caf50;stroke-opacity:0.8;stroke-width:2.0;"/>
    <path clip-path="url(#p5ff589434f)" d="M 298.314844 333.217729 
L 298.314844 332.901446 
" style="fill:none;stroke:#4caf50;stroke-opacity:0.8;stroke-width:2.0;"/>
    <path clip-path="url(#p5ff589434f)" d="M 341.914352 336.017878 
L 341.914352 334.018595 
" style="fill:none;stroke:#4caf50;stroke-opacity:0.8;stroke-width:2.0;"/>
    <path clip-path="url(#p5ff589434f)" d="M 372.848695 332.527629 
L 372.848695 332.355242 
" style="fill:none;stroke:#4caf50;stroke-opacity:0.8;stroke-width:2.0;"/>
    <path clip-path="url(#p5ff589434f)" d="M 416.448203 336.395909 
L 416.448203 332.31865 
" style="fill:none;stroke:#4caf50;stroke-opacity:0.8;stroke-width:2.0;"/>
    <path clip-path="url(#p5ff589434f)" d="M 447.382546 333.655509 
L 447.382546 330.611095 
" style="fill:none;stroke:#4caf50;stroke-opacity:0.8;stroke-width:2.0;"/>
    <path clip-path="url(#p5ff589434f)" d="M 490.982054 347.91431 
L 490.982054 338.001604 
" style="fill:none;stroke:#4caf50;stroke-opacity:0.8;stroke-width:2.0;"/>
    <path clip-path="url(#p5ff589434f)" d="M 521.916398 349.151198 
L 521.916398 328.019668 
" style="fill:none;stroke:#4caf50;stroke-opacity:0.8;stroke-width:2.0;"/>
    <path clip-path="url(#p5ff589434f)" d="M 545.910938 328.378774 
L 545.910938 327.962965 
" style="fill:none;stroke:#4caf50;stroke-opacity:0.8;stroke-width:2.0;"/>
   </g>
   <g id="LineCollection_4">
    <path clip-path="url(#p5ff589434f)" d="M 125.252601 329.876282 
L 125.252601 326.784796 
" style="fill:none;stroke:#2196f3;stroke-opacity:0.8;stroke-width:2.0;"/>
    <path clip-path="url(#p5ff589434f)" d="M 199.786452 312.884864 
L 199.786452 312.395988 
" style="fill:none;stroke:#2196f3;stroke-opacity:0.8;stroke-width:2.0;"/>
    <path clip-path="url(#p5ff589434f)" d="M 243.38596 296.331656 
L 243.38596 287.926329 
" style="fill:none;stroke:#2196f3;stroke-opacity:0.8;stroke-width:2.0;"/>
    <path clip-path="url(#p5ff589434f)" d="M 274.320303 312.623891 
L 274.320303 290.291232 
" style="fill:none;stroke:#2196f3;stroke-opacity:0.8;stroke-width:2.0;"/>
    <path clip-path="url(#p5ff589434f)" d="M 298.314844 298.309405 
L 298.314844 256.222092 
" style="fill:none;stroke:#2196f3;stroke-opacity:0.8;stroke-width:2.0;"/>
    <path clip-path="url(#p5ff589434f)" d="M 341.914352 287.107665 
L 341.914352 280.367455 
" style="fill:none;stroke:#2196f3;stroke-opacity:0.8;stroke-width:2.0;"/>
    <path clip-path="url(#p5ff589434f)" d="M 372.848695 283.504228 
L 372.848695 229.416739 
" style="fill:none;stroke:#2196f3;stroke-opacity:0.8;stroke-width:2.0;"/>
    <path clip-path="url(#p5ff589434f)" d="M 416.448203 282.977679 
L 416.448203 252.454097 
" style="fill:none;stroke:#2196f3;stroke-opacity:0.8;stroke-width:2.0;"/>
    <path clip-path="url(#p5ff589434f)" d="M 447.382546 272.783038 
L 447.382546 235.250274 
" style="fill:none;stroke:#2196f3;stroke-opacity:0.8;stroke-width:2.0;"/>
    <path clip-path="url(#p5ff589434f)" d="M 490.982054 229.501158 
L 490.982054 229.148112 
" style="fill:none;stroke:#2196f3;stroke-opacity:0.8;stroke-width:2.0;"/>
    <path clip-path="url(#p5ff589434f)" d="M 521.916398 275.636508 
L 521.916398 228.17684 
" style="fill:none;stroke:#2196f3;stroke-opacity:0.8;stroke-width:2.0;"/>
    <path clip-path="url(#p5ff589434f)" d="M 545.910938 292.734606 
L 545.910938 258.299072 
" style="fill:none;stroke:#2196f3;stroke-opacity:0.8;stroke-width:2.0;"/>
   </g>
   <g id="LineCollection_5">
    <path clip-path="url(#p5ff589434f)" d="M 125.252601 344.555918 
L 125.252601 330.168836 
" style="fill:none;stroke:#1a237e;stroke-opacity:0.8;stroke-width:2.0;"/>
    <path clip-path="url(#p5ff589434f)" d="M 199.786452 313.700106 
L 199.786452 313.626854 
" style="fill:none;stroke:#1a237e;stroke-opacity:0.8;stroke-width:2.0;"/>
    <path clip-path="url(#p5ff589434f)" d="M 243.38596 291.922053 
L 243.38596 290.668461 
" style="fill:none;stroke:#1a237e;stroke-opacity:0.8;stroke-width:2.0;"/>
    <path clip-path="url(#p5ff589434f)" d="M 274.320303 284.814556 
L 274.320303 268.133399 
" style="fill:none;stroke:#1a237e;stroke-opacity:0.8;stroke-width:2.0;"/>
    <path clip-path="url(#p5ff589434f)" d="M 298.314844 278.832573 
L 298.314844 260.237959 
" style="fill:none;stroke:#1a237e;stroke-opacity:0.8;stroke-width:2.0;"/>
    <path clip-path="url(#p5ff589434f)" d="M 341.914352 234.828916 
L 341.914352 209.741356 
" style="fill:none;stroke:#1a237e;stroke-opacity:0.8;stroke-width:2.0;"/>
    <path clip-path="url(#p5ff589434f)" d="M 372.848695 183.988907 
L 372.848695 140.826804 
" style="fill:none;stroke:#1a237e;stroke-opacity:0.8;stroke-width:2.0;"/>
    <path clip-path="url(#p5ff589434f)" d="M 416.448203 194.49372 
L 416.448203 93.647427 
" style="fill:none;stroke:#1a237e;stroke-opacity:0.8;stroke-width:2.0;"/>
    <path clip-path="url(#p5ff589434f)" d="M 447.382546 195.491453 
L 447.382546 140.480666 
" style="fill:none;stroke:#1a237e;stroke-opacity:0.8;stroke-width:2.0;"/>
    <path clip-path="url(#p5ff589434f)" d="M 490.982054 185.023902 
L 490.982054 127.026096 
" style="fill:none;stroke:#1a237e;stroke-opacity:0.8;stroke-width:2.0;"/>
    <path clip-path="url(#p5ff589434f)" d="M 521.916398 142.499835 
L 521.916398 33.658475 
" style="fill:none;stroke:#1a237e;stroke-opacity:0.8;stroke-width:2.0;"/>
    <path clip-path="url(#p5ff589434f)" d="M 545.910938 164.846323 
L 545.910938 61.1725 
" style="fill:none;stroke:#1a237e;stroke-opacity:0.8;stroke-width:2.0;"/>
   </g>
   <g id="line2d_1">
    <defs>
     <path d="M 3 0 
L -3 -0 
" id="m9fdc63b9f1" style="stroke:#e91e63;stroke-width:0.5;"/>
    </defs>
    <g clip-path="url(#p5ff589434f)">
     <use style="fill:#e91e63;opacity:0.8;stroke:#e91e63;stroke-width:0.5;" x="125.252601138" xlink:href="#m9fdc63b9f1" y="352.871977123"/>
     <use style="fill:#e91e63;opacity:0.8;stroke:#e91e63;stroke-width:0.5;" x="199.786452276" xlink:href="#m9fdc63b9f1" y="354.900874578"/>
     <use style="fill:#e91e63;opacity:0.8;stroke:#e91e63;stroke-width:0.5;" x="243.385960227" xlink:href="#m9fdc63b9f1" y="364.756305548"/>
     <use style="fill:#e91e63;opacity:0.8;stroke:#e91e63;stroke-width:0.5;" x="274.320303415" xlink:href="#m9fdc63b9f1" y="361.634394143"/>
     <use style="fill:#e91e63;opacity:0.8;stroke:#e91e63;stroke-width:0.5;" x="298.314844116" xlink:href="#m9fdc63b9f1" y="356.579694924"/>
     <use style="fill:#e91e63;opacity:0.8;stroke:#e91e63;stroke-width:0.5;" x="341.914352066" xlink:href="#m9fdc63b9f1" y="357.741603411"/>
     <use style="fill:#e91e63;opacity:0.8;stroke:#e91e63;stroke-width:0.5;" x="372.848695254" xlink:href="#m9fdc63b9f1" y="360.269367149"/>
     <use style="fill:#e91e63;opacity:0.8;stroke:#e91e63;stroke-width:0.5;" x="416.448203205" xlink:href="#m9fdc63b9f1" y="358.796671095"/>
     <use style="fill:#e91e63;opacity:0.8;stroke:#e91e63;stroke-width:0.5;" x="447.382546393" xlink:href="#m9fdc63b9f1" y="358.404187181"/>
     <use style="fill:#e91e63;opacity:0.8;stroke:#e91e63;stroke-width:0.5;" x="490.982054343" xlink:href="#m9fdc63b9f1" y="359.707396997"/>
     <use style="fill:#e91e63;opacity:0.8;stroke:#e91e63;stroke-width:0.5;" x="521.916397531" xlink:href="#m9fdc63b9f1" y="359.609430746"/>
     <use style="fill:#e91e63;opacity:0.8;stroke:#e91e63;stroke-width:0.5;" x="545.910938232" xlink:href="#m9fdc63b9f1" y="357.803795923"/>
    </g>
   </g>
   <g id="line2d_2">
    <g clip-path="url(#p5ff589434f)">
     <use style="fill:#e91e63;opacity:0.8;stroke:#e91e63;stroke-width:0.5;" x="125.252601138" xlink:href="#m9fdc63b9f1" y="352.75419"/>
     <use style="fill:#e91e63;opacity:0.8;stroke:#e91e63;stroke-width:0.5;" x="199.786452276" xlink:href="#m9fdc63b9f1" y="354.841646613"/>
     <use style="fill:#e91e63;opacity:0.8;stroke:#e91e63;stroke-width:0.5;" x="243.385960227" xlink:href="#m9fdc63b9f1" y="358.4634317"/>
     <use style="fill:#e91e63;opacity:0.8;stroke:#e91e63;stroke-width:0.5;" x="274.320303415" xlink:href="#m9fdc63b9f1" y="356.673822014"/>
     <use style="fill:#e91e63;opacity:0.8;stroke:#e91e63;stroke-width:0.5;" x="298.314844116" xlink:href="#m9fdc63b9f1" y="356.511954332"/>
     <use style="fill:#e91e63;opacity:0.8;stroke:#e91e63;stroke-width:0.5;" x="341.914352066" xlink:href="#m9fdc63b9f1" y="357.690841718"/>
     <use style="fill:#e91e63;opacity:0.8;stroke:#e91e63;stroke-width:0.5;" x="372.848695254" xlink:href="#m9fdc63b9f1" y="358.806397724"/>
     <use style="fill:#e91e63;opacity:0.8;stroke:#e91e63;stroke-width:0.5;" x="416.448203205" xlink:href="#m9fdc63b9f1" y="358.631294322"/>
     <use style="fill:#e91e63;opacity:0.8;stroke:#e91e63;stroke-width:0.5;" x="447.382546393" xlink:href="#m9fdc63b9f1" y="358.260831662"/>
     <use style="fill:#e91e63;opacity:0.8;stroke:#e91e63;stroke-width:0.5;" x="490.982054343" xlink:href="#m9fdc63b9f1" y="358.140111929"/>
     <use style="fill:#e91e63;opacity:0.8;stroke:#e91e63;stroke-width:0.5;" x="521.916397531" xlink:href="#m9fdc63b9f1" y="357.890276574"/>
     <use style="fill:#e91e63;opacity:0.8;stroke:#e91e63;stroke-width:0.5;" x="545.910938232" xlink:href="#m9fdc63b9f1" y="357.707499619"/>
    </g>
   </g>
   <g id="line2d_3">
    <path clip-path="url(#p5ff589434f)" d="M 125.252601 352.813084 
L 199.786452 354.871261 
L 243.38596 361.609869 
L 274.320303 359.154108 
L 298.314844 356.545825 
L 341.914352 357.716223 
L 372.848695 359.537882 
L 416.448203 358.713983 
L 447.382546 358.332509 
L 490.982054 358.923754 
L 521.916398 358.749854 
L 545.910938 357.755648 
" style="fill:none;opacity:0.8;stroke:#e91e63;stroke-linecap:square;stroke-width:2.0;"/>
   </g>
   <g id="line2d_4">
    <defs>
     <path d="M 3 0 
L -3 -0 
" id="me22757736c" style="stroke:#f29312;stroke-width:0.5;"/>
    </defs>
    <g clip-path="url(#p5ff589434f)">
     <use style="fill:#f29312;opacity:0.8;stroke:#f29312;stroke-width:0.5;" x="125.252601138" xlink:href="#me22757736c" y="339.833325625"/>
     <use style="fill:#f29312;opacity:0.8;stroke:#f29312;stroke-width:0.5;" x="199.786452276" xlink:href="#me22757736c" y="350.778625014"/>
     <use style="fill:#f29312;opacity:0.8;stroke:#f29312;stroke-width:0.5;" x="243.385960227" xlink:href="#me22757736c" y="350.979060375"/>
     <use style="fill:#f29312;opacity:0.8;stroke:#f29312;stroke-width:0.5;" x="274.320303415" xlink:href="#me22757736c" y="361.78689893"/>
     <use style="fill:#f29312;opacity:0.8;stroke:#f29312;stroke-width:0.5;" x="298.314844116" xlink:href="#me22757736c" y="351.210085841"/>
     <use style="fill:#f29312;opacity:0.8;stroke:#f29312;stroke-width:0.5;" x="341.914352066" xlink:href="#me22757736c" y="362.394319687"/>
     <use style="fill:#f29312;opacity:0.8;stroke:#f29312;stroke-width:0.5;" x="372.848695254" xlink:href="#me22757736c" y="352.427768194"/>
     <use style="fill:#f29312;opacity:0.8;stroke:#f29312;stroke-width:0.5;" x="416.448203205" xlink:href="#me22757736c" y="355.61916289"/>
     <use style="fill:#f29312;opacity:0.8;stroke:#f29312;stroke-width:0.5;" x="447.382546393" xlink:href="#me22757736c" y="356.043664545"/>
     <use style="fill:#f29312;opacity:0.8;stroke:#f29312;stroke-width:0.5;" x="490.982054343" xlink:href="#me22757736c" y="356.034607165"/>
     <use style="fill:#f29312;opacity:0.8;stroke:#f29312;stroke-width:0.5;" x="521.916397531" xlink:href="#me22757736c" y="354.441992355"/>
     <use style="fill:#f29312;opacity:0.8;stroke:#f29312;stroke-width:0.5;" x="545.910938232" xlink:href="#me22757736c" y="355.818925288"/>
    </g>
   </g>
   <g id="line2d_5">
    <g clip-path="url(#p5ff589434f)">
     <use style="fill:#f29312;opacity:0.8;stroke:#f29312;stroke-width:0.5;" x="125.252601138" xlink:href="#me22757736c" y="339.733001249"/>
     <use style="fill:#f29312;opacity:0.8;stroke:#f29312;stroke-width:0.5;" x="199.786452276" xlink:href="#me22757736c" y="348.437437078"/>
     <use style="fill:#f29312;opacity:0.8;stroke:#f29312;stroke-width:0.5;" x="243.385960227" xlink:href="#me22757736c" y="348.608196306"/>
     <use style="fill:#f29312;opacity:0.8;stroke:#f29312;stroke-width:0.5;" x="274.320303415" xlink:href="#me22757736c" y="353.085949915"/>
     <use style="fill:#f29312;opacity:0.8;stroke:#f29312;stroke-width:0.5;" x="298.314844116" xlink:href="#me22757736c" y="351.08719901"/>
     <use style="fill:#f29312;opacity:0.8;stroke:#f29312;stroke-width:0.5;" x="341.914352066" xlink:href="#me22757736c" y="352.767458857"/>
     <use style="fill:#f29312;opacity:0.8;stroke:#f29312;stroke-width:0.5;" x="372.848695254" xlink:href="#me22757736c" y="352.313940017"/>
     <use style="fill:#f29312;opacity:0.8;stroke:#f29312;stroke-width:0.5;" x="416.448203205" xlink:href="#me22757736c" y="353.598675522"/>
     <use style="fill:#f29312;opacity:0.8;stroke:#f29312;stroke-width:0.5;" x="447.382546393" xlink:href="#me22757736c" y="353.872328351"/>
     <use style="fill:#f29312;opacity:0.8;stroke:#f29312;stroke-width:0.5;" x="490.982054343" xlink:href="#me22757736c" y="353.983653077"/>
     <use style="fill:#f29312;opacity:0.8;stroke:#f29312;stroke-width:0.5;" x="521.916397531" xlink:href="#me22757736c" y="354.159782745"/>
     <use style="fill:#f29312;opacity:0.8;stroke:#f29312;stroke-width:0.5;" x="545.910938232" xlink:href="#me22757736c" y="354.393613944"/>
    </g>
   </g>
   <g id="line2d_6">
    <path clip-path="url(#p5ff589434f)" d="M 125.252601 339.783163 
L 199.786452 349.608031 
L 243.38596 349.793628 
L 274.320303 357.436424 
L 298.314844 351.148642 
L 341.914352 357.580889 
L 372.848695 352.370854 
L 416.448203 354.608919 
L 447.382546 354.957996 
L 490.982054 355.00913 
L 521.916398 354.300888 
L 545.910938 355.10627 
" style="fill:none;opacity:0.8;stroke:#f29312;stroke-linecap:square;stroke-width:2.0;"/>
   </g>
   <g id="line2d_7">
    <defs>
     <path d="M 3 0 
L -3 -0 
" id="mf435f48f74" style="stroke:#4caf50;stroke-width:0.5;"/>
    </defs>
    <g clip-path="url(#p5ff589434f)">
     <use style="fill:#4caf50;opacity:0.8;stroke:#4caf50;stroke-width:0.5;" x="125.252601138" xlink:href="#mf435f48f74" y="360.160973962"/>
     <use style="fill:#4caf50;opacity:0.8;stroke:#4caf50;stroke-width:0.5;" x="199.786452276" xlink:href="#mf435f48f74" y="340.048591245"/>
     <use style="fill:#4caf50;opacity:0.8;stroke:#4caf50;stroke-width:0.5;" x="243.385960227" xlink:href="#mf435f48f74" y="340.438416264"/>
     <use style="fill:#4caf50;opacity:0.8;stroke:#4caf50;stroke-width:0.5;" x="274.320303415" xlink:href="#mf435f48f74" y="334.52188011"/>
     <use style="fill:#4caf50;opacity:0.8;stroke:#4caf50;stroke-width:0.5;" x="298.314844116" xlink:href="#mf435f48f74" y="333.217729448"/>
     <use style="fill:#4caf50;opacity:0.8;stroke:#4caf50;stroke-width:0.5;" x="341.914352066" xlink:href="#mf435f48f74" y="336.017877887"/>
     <use style="fill:#4caf50;opacity:0.8;stroke:#4caf50;stroke-width:0.5;" x="372.848695254" xlink:href="#mf435f48f74" y="332.527629129"/>
     <use style="fill:#4caf50;opacity:0.8;stroke:#4caf50;stroke-width:0.5;" x="416.448203205" xlink:href="#mf435f48f74" y="336.395909241"/>
     <use style="fill:#4caf50;opacity:0.8;stroke:#4caf50;stroke-width:0.5;" x="447.382546393" xlink:href="#mf435f48f74" y="333.655509272"/>
     <use style="fill:#4caf50;opacity:0.8;stroke:#4caf50;stroke-width:0.5;" x="490.982054343" xlink:href="#mf435f48f74" y="347.914310247"/>
     <use style="fill:#4caf50;opacity:0.8;stroke:#4caf50;stroke-width:0.5;" x="521.916397531" xlink:href="#mf435f48f74" y="349.151198079"/>
     <use style="fill:#4caf50;opacity:0.8;stroke:#4caf50;stroke-width:0.5;" x="545.910938232" xlink:href="#mf435f48f74" y="328.378774038"/>
    </g>
   </g>
   <g id="line2d_8">
    <g clip-path="url(#p5ff589434f)">
     <use style="fill:#4caf50;opacity:0.8;stroke:#4caf50;stroke-width:0.5;" x="125.252601138" xlink:href="#mf435f48f74" y="349.935602152"/>
     <use style="fill:#4caf50;opacity:0.8;stroke:#4caf50;stroke-width:0.5;" x="199.786452276" xlink:href="#mf435f48f74" y="339.904358171"/>
     <use style="fill:#4caf50;opacity:0.8;stroke:#4caf50;stroke-width:0.5;" x="243.385960227" xlink:href="#mf435f48f74" y="336.716303883"/>
     <use style="fill:#4caf50;opacity:0.8;stroke:#4caf50;stroke-width:0.5;" x="274.320303415" xlink:href="#mf435f48f74" y="334.425490763"/>
     <use style="fill:#4caf50;opacity:0.8;stroke:#4caf50;stroke-width:0.5;" x="298.314844116" xlink:href="#mf435f48f74" y="332.901445782"/>
     <use style="fill:#4caf50;opacity:0.8;stroke:#4caf50;stroke-width:0.5;" x="341.914352066" xlink:href="#mf435f48f74" y="334.018594855"/>
     <use style="fill:#4caf50;opacity:0.8;stroke:#4caf50;stroke-width:0.5;" x="372.848695254" xlink:href="#mf435f48f74" y="332.355242145"/>
     <use style="fill:#4caf50;opacity:0.8;stroke:#4caf50;stroke-width:0.5;" x="416.448203205" xlink:href="#mf435f48f74" y="332.318649871"/>
     <use style="fill:#4caf50;opacity:0.8;stroke:#4caf50;stroke-width:0.5;" x="447.382546393" xlink:href="#mf435f48f74" y="330.611094779"/>
     <use style="fill:#4caf50;opacity:0.8;stroke:#4caf50;stroke-width:0.5;" x="490.982054343" xlink:href="#mf435f48f74" y="338.001604395"/>
     <use style="fill:#4caf50;opacity:0.8;stroke:#4caf50;stroke-width:0.5;" x="521.916397531" xlink:href="#mf435f48f74" y="328.019667936"/>
     <use style="fill:#4caf50;opacity:0.8;stroke:#4caf50;stroke-width:0.5;" x="545.910938232" xlink:href="#mf435f48f74" y="327.962964647"/>
    </g>
   </g>
   <g id="line2d_9">
    <path clip-path="url(#p5ff589434f)" d="M 125.252601 355.048288 
L 199.786452 339.976475 
L 243.38596 338.57736 
L 274.320303 334.473685 
L 298.314844 333.059588 
L 341.914352 335.018236 
L 372.848695 332.441436 
L 416.448203 334.35728 
L 447.382546 332.133302 
L 490.982054 342.957957 
L 521.916398 338.585433 
L 545.910938 328.170869 
" style="fill:none;opacity:0.8;stroke:#4caf50;stroke-linecap:square;stroke-width:2.0;"/>
   </g>
   <g id="line2d_10">
    <defs>
     <path d="M 3 0 
L -3 -0 
" id="m2adf2710a9" style="stroke:#2196f3;stroke-width:0.5;"/>
    </defs>
    <g clip-path="url(#p5ff589434f)">
     <use style="fill:#2196f3;opacity:0.8;stroke:#2196f3;stroke-width:0.5;" x="125.252601138" xlink:href="#m2adf2710a9" y="329.876282386"/>
     <use style="fill:#2196f3;opacity:0.8;stroke:#2196f3;stroke-width:0.5;" x="199.786452276" xlink:href="#m2adf2710a9" y="312.884864382"/>
     <use style="fill:#2196f3;opacity:0.8;stroke:#2196f3;stroke-width:0.5;" x="243.385960227" xlink:href="#m2adf2710a9" y="296.331656439"/>
     <use style="fill:#2196f3;opacity:0.8;stroke:#2196f3;stroke-width:0.5;" x="274.320303415" xlink:href="#m2adf2710a9" y="312.623890931"/>
     <use style="fill:#2196f3;opacity:0.8;stroke:#2196f3;stroke-width:0.5;" x="298.314844116" xlink:href="#m2adf2710a9" y="298.309405031"/>
     <use style="fill:#2196f3;opacity:0.8;stroke:#2196f3;stroke-width:0.5;" x="341.914352066" xlink:href="#m2adf2710a9" y="287.107664852"/>
     <use style="fill:#2196f3;opacity:0.8;stroke:#2196f3;stroke-width:0.5;" x="372.848695254" xlink:href="#m2adf2710a9" y="283.504228106"/>
     <use style="fill:#2196f3;opacity:0.8;stroke:#2196f3;stroke-width:0.5;" x="416.448203205" xlink:href="#m2adf2710a9" y="282.97767899"/>
     <use style="fill:#2196f3;opacity:0.8;stroke:#2196f3;stroke-width:0.5;" x="447.382546393" xlink:href="#m2adf2710a9" y="272.783038433"/>
     <use style="fill:#2196f3;opacity:0.8;stroke:#2196f3;stroke-width:0.5;" x="490.982054343" xlink:href="#m2adf2710a9" y="229.501158494"/>
     <use style="fill:#2196f3;opacity:0.8;stroke:#2196f3;stroke-width:0.5;" x="521.916397531" xlink:href="#m2adf2710a9" y="275.636507926"/>
     <use style="fill:#2196f3;opacity:0.8;stroke:#2196f3;stroke-width:0.5;" x="545.910938232" xlink:href="#m2adf2710a9" y="292.734605635"/>
    </g>
   </g>
   <g id="line2d_11">
    <g clip-path="url(#p5ff589434f)">
     <use style="fill:#2196f3;opacity:0.8;stroke:#2196f3;stroke-width:0.5;" x="125.252601138" xlink:href="#m2adf2710a9" y="326.784796058"/>
     <use style="fill:#2196f3;opacity:0.8;stroke:#2196f3;stroke-width:0.5;" x="199.786452276" xlink:href="#m2adf2710a9" y="312.395988169"/>
     <use style="fill:#2196f3;opacity:0.8;stroke:#2196f3;stroke-width:0.5;" x="243.385960227" xlink:href="#m2adf2710a9" y="287.926329115"/>
     <use style="fill:#2196f3;opacity:0.8;stroke:#2196f3;stroke-width:0.5;" x="274.320303415" xlink:href="#m2adf2710a9" y="290.291231631"/>
     <use style="fill:#2196f3;opacity:0.8;stroke:#2196f3;stroke-width:0.5;" x="298.314844116" xlink:href="#m2adf2710a9" y="256.222091912"/>
     <use style="fill:#2196f3;opacity:0.8;stroke:#2196f3;stroke-width:0.5;" x="341.914352066" xlink:href="#m2adf2710a9" y="280.367455217"/>
     <use style="fill:#2196f3;opacity:0.8;stroke:#2196f3;stroke-width:0.5;" x="372.848695254" xlink:href="#m2adf2710a9" y="229.416738593"/>
     <use style="fill:#2196f3;opacity:0.8;stroke:#2196f3;stroke-width:0.5;" x="416.448203205" xlink:href="#m2adf2710a9" y="252.454096606"/>
     <use style="fill:#2196f3;opacity:0.8;stroke:#2196f3;stroke-width:0.5;" x="447.382546393" xlink:href="#m2adf2710a9" y="235.250274281"/>
     <use style="fill:#2196f3;opacity:0.8;stroke:#2196f3;stroke-width:0.5;" x="490.982054343" xlink:href="#m2adf2710a9" y="229.148112141"/>
     <use style="fill:#2196f3;opacity:0.8;stroke:#2196f3;stroke-width:0.5;" x="521.916397531" xlink:href="#m2adf2710a9" y="228.176840164"/>
     <use style="fill:#2196f3;opacity:0.8;stroke:#2196f3;stroke-width:0.5;" x="545.910938232" xlink:href="#m2adf2710a9" y="258.299072158"/>
    </g>
   </g>
   <g id="line2d_12">
    <path clip-path="url(#p5ff589434f)" d="M 125.252601 328.330539 
L 199.786452 312.640426 
L 243.38596 292.128993 
L 274.320303 301.457561 
L 298.314844 277.265748 
L 341.914352 283.73756 
L 372.848695 256.460483 
L 416.448203 267.715888 
L 447.382546 254.016656 
L 490.982054 229.324635 
L 521.916398 251.906674 
L 545.910938 275.516839 
" style="fill:none;opacity:0.8;stroke:#2196f3;stroke-linecap:square;stroke-width:2.0;"/>
   </g>
   <g id="line2d_13">
    <defs>
     <path d="M 3 0 
L -3 -0 
" id="m9a0b3eee96" style="stroke:#1a237e;stroke-width:0.5;"/>
    </defs>
    <g clip-path="url(#p5ff589434f)">
     <use style="fill:#1a237e;opacity:0.8;stroke:#1a237e;stroke-width:0.5;" x="125.252601138" xlink:href="#m9a0b3eee96" y="344.555918091"/>
     <use style="fill:#1a237e;opacity:0.8;stroke:#1a237e;stroke-width:0.5;" x="199.786452276" xlink:href="#m9a0b3eee96" y="313.700106413"/>
     <use style="fill:#1a237e;opacity:0.8;stroke:#1a237e;stroke-width:0.5;" x="243.385960227" xlink:href="#m9a0b3eee96" y="291.922052944"/>
     <use style="fill:#1a237e;opacity:0.8;stroke:#1a237e;stroke-width:0.5;" x="274.320303415" xlink:href="#m9a0b3eee96" y="284.814555777"/>
     <use style="fill:#1a237e;opacity:0.8;stroke:#1a237e;stroke-width:0.5;" x="298.314844116" xlink:href="#m9a0b3eee96" y="278.832573176"/>
     <use style="fill:#1a237e;opacity:0.8;stroke:#1a237e;stroke-width:0.5;" x="341.914352066" xlink:href="#m9a0b3eee96" y="234.828915839"/>
     <use style="fill:#1a237e;opacity:0.8;stroke:#1a237e;stroke-width:0.5;" x="372.848695254" xlink:href="#m9a0b3eee96" y="183.988907227"/>
     <use style="fill:#1a237e;opacity:0.8;stroke:#1a237e;stroke-width:0.5;" x="416.448203205" xlink:href="#m9a0b3eee96" y="194.493720129"/>
     <use style="fill:#1a237e;opacity:0.8;stroke:#1a237e;stroke-width:0.5;" x="447.382546393" xlink:href="#m9a0b3eee96" y="195.49145328"/>
     <use style="fill:#1a237e;opacity:0.8;stroke:#1a237e;stroke-width:0.5;" x="490.982054343" xlink:href="#m9a0b3eee96" y="185.02390237"/>
     <use style="fill:#1a237e;opacity:0.8;stroke:#1a237e;stroke-width:0.5;" x="521.916397531" xlink:href="#m9a0b3eee96" y="142.499834913"/>
     <use style="fill:#1a237e;opacity:0.8;stroke:#1a237e;stroke-width:0.5;" x="545.910938232" xlink:href="#m9a0b3eee96" y="164.846322738"/>
    </g>
   </g>
   <g id="line2d_14">
    <g clip-path="url(#p5ff589434f)">
     <use style="fill:#1a237e;opacity:0.8;stroke:#1a237e;stroke-width:0.5;" x="125.252601138" xlink:href="#m9a0b3eee96" y="330.168836308"/>
     <use style="fill:#1a237e;opacity:0.8;stroke:#1a237e;stroke-width:0.5;" x="199.786452276" xlink:href="#m9a0b3eee96" y="313.626854161"/>
     <use style="fill:#1a237e;opacity:0.8;stroke:#1a237e;stroke-width:0.5;" x="243.385960227" xlink:href="#m9a0b3eee96" y="290.668460821"/>
     <use style="fill:#1a237e;opacity:0.8;stroke:#1a237e;stroke-width:0.5;" x="274.320303415" xlink:href="#m9a0b3eee96" y="268.133399125"/>
     <use style="fill:#1a237e;opacity:0.8;stroke:#1a237e;stroke-width:0.5;" x="298.314844116" xlink:href="#m9a0b3eee96" y="260.237958539"/>
     <use style="fill:#1a237e;opacity:0.8;stroke:#1a237e;stroke-width:0.5;" x="341.914352066" xlink:href="#m9a0b3eee96" y="209.741356027"/>
     <use style="fill:#1a237e;opacity:0.8;stroke:#1a237e;stroke-width:0.5;" x="372.848695254" xlink:href="#m9a0b3eee96" y="140.82680394"/>
     <use style="fill:#1a237e;opacity:0.8;stroke:#1a237e;stroke-width:0.5;" x="416.448203205" xlink:href="#m9a0b3eee96" y="93.6474269303"/>
     <use style="fill:#1a237e;opacity:0.8;stroke:#1a237e;stroke-width:0.5;" x="447.382546393" xlink:href="#m9a0b3eee96" y="140.480665843"/>
     <use style="fill:#1a237e;opacity:0.8;stroke:#1a237e;stroke-width:0.5;" x="490.982054343" xlink:href="#m9a0b3eee96" y="127.026096464"/>
     <use style="fill:#1a237e;opacity:0.8;stroke:#1a237e;stroke-width:0.5;" x="521.916397531" xlink:href="#m9a0b3eee96" y="33.6584752278"/>
     <use style="fill:#1a237e;opacity:0.8;stroke:#1a237e;stroke-width:0.5;" x="545.910938232" xlink:href="#m9a0b3eee96" y="61.1725003771"/>
    </g>
   </g>
   <g id="line2d_15">
    <path clip-path="url(#p5ff589434f)" d="M 125.252601 337.362377 
L 199.786452 313.66348 
L 243.38596 291.295257 
L 274.320303 276.473977 
L 298.314844 269.535266 
L 341.914352 222.285136 
L 372.848695 162.407856 
L 416.448203 144.070574 
L 447.382546 167.98606 
L 490.982054 156.024999 
L 521.916398 88.079155 
L 545.910938 113.009412 
" style="fill:none;opacity:0.8;stroke:#1a237e;stroke-linecap:square;stroke-width:2.0;"/>
   </g>
   <g id="patch_3">
    <path d="M 545.910938 376.336875 
L 545.910938 13.006875 
" style="fill:none;stroke:#000000;stroke-linecap:square;stroke-linejoin:miter;"/>
   </g>
   <g id="patch_4">
    <path d="M 50.71875 13.006875 
L 545.910938 13.006875 
" style="fill:none;stroke:#000000;stroke-linecap:square;stroke-linejoin:miter;"/>
   </g>
   <g id="patch_5">
    <path d="M 50.71875 376.336875 
L 50.71875 13.006875 
" style="fill:none;stroke:#000000;stroke-linecap:square;stroke-linejoin:miter;"/>
   </g>
   <g id="patch_6">
    <path d="M 50.71875 376.336875 
L 545.910938 376.336875 
" style="fill:none;stroke:#000000;stroke-linecap:square;stroke-linejoin:miter;"/>
   </g>
   <g id="matplotlib.axis_1">
    <g id="xtick_1">
     <g id="line2d_16">
      <path clip-path="url(#p5ff589434f)" d="M 50.71875 376.336875 
L 50.71875 13.006875 
" style="fill:none;stroke:#000000;stroke-dasharray:1.000000,3.000000;stroke-dashoffset:0.0;stroke-width:0.5;"/>
     </g>
     <g id="line2d_17">
      <defs>
       <path d="M 0 0 
L 0 -4 
" id="mc92c198365" style="stroke:#000000;stroke-width:0.5;"/>
      </defs>
      <g>
       <use style="stroke:#000000;stroke-width:0.5;" x="50.71875" xlink:href="#mc92c198365" y="376.336875"/>
      </g>
     </g>
     <g id="line2d_18">
      <defs>
       <path d="M 0 0 
L 0 4 
" id="m9d983b6e01" style="stroke:#000000;stroke-width:0.5;"/>
      </defs>
      <g>
       <use style="stroke:#000000;stroke-width:0.5;" x="50.71875" xlink:href="#m9d983b6e01" y="13.006875"/>
      </g>
     </g>
     <g id="text_1">
      <!-- $\mathdefault{10^{1}}$ -->
      <defs>
       <path d="M 12.40625 8.296875 
L 28.515625 8.296875 
L 28.515625 63.921875 
L 10.984375 60.40625 
L 10.984375 69.390625 
L 28.421875 72.90625 
L 38.28125 72.90625 
L 38.28125 8.296875 
L 54.390625 8.296875 
L 54.390625 0 
L 12.40625 0 
z
" id="BitstreamVeraSans-Roman-31"/>
       <path d="M 31.78125 66.40625 
Q 24.171875 66.40625 20.328125 58.90625 
Q 16.5 51.421875 16.5 36.375 
Q 16.5 21.390625 20.328125 13.890625 
Q 24.171875 6.390625 31.78125 6.390625 
Q 39.453125 6.390625 43.28125 13.890625 
Q 47.125 21.390625 47.125 36.375 
Q 47.125 51.421875 43.28125 58.90625 
Q 39.453125 66.40625 31.78125 66.40625 
M 31.78125 74.21875 
Q 44.046875 74.21875 50.515625 64.515625 
Q 56.984375 54.828125 56.984375 36.375 
Q 56.984375 17.96875 50.515625 8.265625 
Q 44.046875 -1.421875 31.78125 -1.421875 
Q 19.53125 -1.421875 13.0625 8.265625 
Q 6.59375 17.96875 6.59375 36.375 
Q 6.59375 54.828125 13.0625 64.515625 
Q 19.53125 74.21875 31.78125 74.21875 
" id="BitstreamVeraSans-Roman-30"/>
      </defs>
      <g transform="translate(39.55875 389.96125)scale(0.12 -0.12)">
       <use transform="translate(0.0 0.7156250000000028)" xlink:href="#BitstreamVeraSans-Roman-31"/>
       <use transform="translate(63.623046875 0.7156250000000028)" xlink:href="#BitstreamVeraSans-Roman-30"/>
       <use transform="translate(132.75859375 47.965625)scale(0.7)" xlink:href="#BitstreamVeraSans-Roman-31"/>
      </g>
     </g>
    </g>
    <g id="xtick_2">
     <g id="line2d_19">
      <path clip-path="url(#p5ff589434f)" d="M 298.314844 376.336875 
L 298.314844 13.006875 
" style="fill:none;stroke:#000000;stroke-dasharray:1.000000,3.000000;stroke-dashoffset:0.0;stroke-width:0.5;"/>
     </g>
     <g id="line2d_20">
      <g>
       <use style="stroke:#000000;stroke-width:0.5;" x="298.314844116" xlink:href="#mc92c198365" y="376.336875"/>
      </g>
     </g>
     <g id="line2d_21">
      <g>
       <use style="stroke:#000000;stroke-width:0.5;" x="298.314844116" xlink:href="#m9d983b6e01" y="13.006875"/>
      </g>
     </g>
     <g id="text_2">
      <!-- $\mathdefault{10^{2}}$ -->
      <defs>
       <path d="M 19.1875 8.296875 
L 53.609375 8.296875 
L 53.609375 0 
L 7.328125 0 
L 7.328125 8.296875 
Q 12.9375 14.109375 22.625 23.890625 
Q 32.328125 33.6875 34.8125 36.53125 
Q 39.546875 41.84375 41.421875 45.53125 
Q 43.3125 49.21875 43.3125 52.78125 
Q 43.3125 58.59375 39.234375 62.25 
Q 35.15625 65.921875 28.609375 65.921875 
Q 23.96875 65.921875 18.8125 64.3125 
Q 13.671875 62.703125 7.8125 59.421875 
L 7.8125 69.390625 
Q 13.765625 71.78125 18.9375 73 
Q 24.125 74.21875 28.421875 74.21875 
Q 39.75 74.21875 46.484375 68.546875 
Q 53.21875 62.890625 53.21875 53.421875 
Q 53.21875 48.921875 51.53125 44.890625 
Q 49.859375 40.875 45.40625 35.40625 
Q 44.1875 33.984375 37.640625 27.21875 
Q 31.109375 20.453125 19.1875 8.296875 
" id="BitstreamVeraSans-Roman-32"/>
      </defs>
      <g transform="translate(287.154844116 390.08125)scale(0.12 -0.12)">
       <use transform="translate(0.0 0.796875)" xlink:href="#BitstreamVeraSans-Roman-31"/>
       <use transform="translate(63.623046875 0.796875)" xlink:href="#BitstreamVeraSans-Roman-30"/>
       <use transform="translate(132.75859375 48.046875)scale(0.7)" xlink:href="#BitstreamVeraSans-Roman-32"/>
      </g>
     </g>
    </g>
    <g id="xtick_3">
     <g id="line2d_22">
      <path clip-path="url(#p5ff589434f)" d="M 545.910938 376.336875 
L 545.910938 13.006875 
" style="fill:none;stroke:#000000;stroke-dasharray:1.000000,3.000000;stroke-dashoffset:0.0;stroke-width:0.5;"/>
     </g>
     <g id="line2d_23">
      <g>
       <use style="stroke:#000000;stroke-width:0.5;" x="545.910938232" xlink:href="#mc92c198365" y="376.336875"/>
      </g>
     </g>
     <g id="line2d_24">
      <g>
       <use style="stroke:#000000;stroke-width:0.5;" x="545.910938232" xlink:href="#m9d983b6e01" y="13.006875"/>
      </g>
     </g>
     <g id="text_3">
      <!-- $\mathdefault{10^{3}}$ -->
      <defs>
       <path d="M 40.578125 39.3125 
Q 47.65625 37.796875 51.625 33 
Q 55.609375 28.21875 55.609375 21.1875 
Q 55.609375 10.40625 48.1875 4.484375 
Q 40.765625 -1.421875 27.09375 -1.421875 
Q 22.515625 -1.421875 17.65625 -0.515625 
Q 12.796875 0.390625 7.625 2.203125 
L 7.625 11.71875 
Q 11.71875 9.328125 16.59375 8.109375 
Q 21.484375 6.890625 26.8125 6.890625 
Q 36.078125 6.890625 40.9375 10.546875 
Q 45.796875 14.203125 45.796875 21.1875 
Q 45.796875 27.640625 41.28125 31.265625 
Q 36.765625 34.90625 28.71875 34.90625 
L 20.21875 34.90625 
L 20.21875 43.015625 
L 29.109375 43.015625 
Q 36.375 43.015625 40.234375 45.921875 
Q 44.09375 48.828125 44.09375 54.296875 
Q 44.09375 59.90625 40.109375 62.90625 
Q 36.140625 65.921875 28.71875 65.921875 
Q 24.65625 65.921875 20.015625 65.03125 
Q 15.375 64.15625 9.8125 62.3125 
L 9.8125 71.09375 
Q 15.4375 72.65625 20.34375 73.4375 
Q 25.25 74.21875 29.59375 74.21875 
Q 40.828125 74.21875 47.359375 69.109375 
Q 53.90625 64.015625 53.90625 55.328125 
Q 53.90625 49.265625 50.4375 45.09375 
Q 46.96875 40.921875 40.578125 39.3125 
" id="BitstreamVeraSans-Roman-33"/>
      </defs>
      <g transform="translate(534.750938232 390.08125)scale(0.12 -0.12)">
       <use transform="translate(0.0 0.796875)" xlink:href="#BitstreamVeraSans-Roman-31"/>
       <use transform="translate(63.623046875 0.796875)" xlink:href="#BitstreamVeraSans-Roman-30"/>
       <use transform="translate(132.75859375 48.046875)scale(0.7)" xlink:href="#BitstreamVeraSans-Roman-33"/>
      </g>
     </g>
    </g>
    <g id="xtick_4">
     <g id="line2d_25">
      <defs>
       <path d="M 0 0 
L 0 -2 
" id="m0dc76a794b" style="stroke:#000000;stroke-width:0.5;"/>
      </defs>
      <g>
       <use style="stroke:#000000;stroke-width:0.5;" x="125.252601138" xlink:href="#m0dc76a794b" y="376.336875"/>
      </g>
     </g>
     <g id="line2d_26">
      <defs>
       <path d="M 0 0 
L 0 2 
" id="mb0aaa5c5e5" style="stroke:#000000;stroke-width:0.5;"/>
      </defs>
      <g>
       <use style="stroke:#000000;stroke-width:0.5;" x="125.252601138" xlink:href="#mb0aaa5c5e5" y="13.006875"/>
      </g>
     </g>
    </g>
    <g id="xtick_5">
     <g id="line2d_27">
      <g>
       <use style="stroke:#000000;stroke-width:0.5;" x="168.852109088" xlink:href="#m0dc76a794b" y="376.336875"/>
      </g>
     </g>
     <g id="line2d_28">
      <g>
       <use style="stroke:#000000;stroke-width:0.5;" x="168.852109088" xlink:href="#mb0aaa5c5e5" y="13.006875"/>
      </g>
     </g>
    </g>
    <g id="xtick_6">
     <g id="line2d_29">
      <g>
       <use style="stroke:#000000;stroke-width:0.5;" x="199.786452276" xlink:href="#m0dc76a794b" y="376.336875"/>
      </g>
     </g>
     <g id="line2d_30">
      <g>
       <use style="stroke:#000000;stroke-width:0.5;" x="199.786452276" xlink:href="#mb0aaa5c5e5" y="13.006875"/>
      </g>
     </g>
    </g>
    <g id="xtick_7">
     <g id="line2d_31">
      <g>
       <use style="stroke:#000000;stroke-width:0.5;" x="223.780992978" xlink:href="#m0dc76a794b" y="376.336875"/>
      </g>
     </g>
     <g id="line2d_32">
      <g>
       <use style="stroke:#000000;stroke-width:0.5;" x="223.780992978" xlink:href="#mb0aaa5c5e5" y="13.006875"/>
      </g>
     </g>
    </g>
    <g id="xtick_8">
     <g id="line2d_33">
      <g>
       <use style="stroke:#000000;stroke-width:0.5;" x="243.385960227" xlink:href="#m0dc76a794b" y="376.336875"/>
      </g>
     </g>
     <g id="line2d_34">
      <g>
       <use style="stroke:#000000;stroke-width:0.5;" x="243.385960227" xlink:href="#mb0aaa5c5e5" y="13.006875"/>
      </g>
     </g>
    </g>
    <g id="xtick_9">
     <g id="line2d_35">
      <g>
       <use style="stroke:#000000;stroke-width:0.5;" x="259.961723853" xlink:href="#m0dc76a794b" y="376.336875"/>
      </g>
     </g>
     <g id="line2d_36">
      <g>
       <use style="stroke:#000000;stroke-width:0.5;" x="259.961723853" xlink:href="#mb0aaa5c5e5" y="13.006875"/>
      </g>
     </g>
    </g>
    <g id="xtick_10">
     <g id="line2d_37">
      <g>
       <use style="stroke:#000000;stroke-width:0.5;" x="274.320303415" xlink:href="#m0dc76a794b" y="376.336875"/>
      </g>
     </g>
     <g id="line2d_38">
      <g>
       <use style="stroke:#000000;stroke-width:0.5;" x="274.320303415" xlink:href="#mb0aaa5c5e5" y="13.006875"/>
      </g>
     </g>
    </g>
    <g id="xtick_11">
     <g id="line2d_39">
      <g>
       <use style="stroke:#000000;stroke-width:0.5;" x="286.985468177" xlink:href="#m0dc76a794b" y="376.336875"/>
      </g>
     </g>
     <g id="line2d_40">
      <g>
       <use style="stroke:#000000;stroke-width:0.5;" x="286.985468177" xlink:href="#mb0aaa5c5e5" y="13.006875"/>
      </g>
     </g>
    </g>
    <g id="xtick_12">
     <g id="line2d_41">
      <g>
       <use style="stroke:#000000;stroke-width:0.5;" x="372.848695254" xlink:href="#m0dc76a794b" y="376.336875"/>
      </g>
     </g>
     <g id="line2d_42">
      <g>
       <use style="stroke:#000000;stroke-width:0.5;" x="372.848695254" xlink:href="#mb0aaa5c5e5" y="13.006875"/>
      </g>
     </g>
    </g>
    <g id="xtick_13">
     <g id="line2d_43">
      <g>
       <use style="stroke:#000000;stroke-width:0.5;" x="416.448203205" xlink:href="#m0dc76a794b" y="376.336875"/>
      </g>
     </g>
     <g id="line2d_44">
      <g>
       <use style="stroke:#000000;stroke-width:0.5;" x="416.448203205" xlink:href="#mb0aaa5c5e5" y="13.006875"/>
      </g>
     </g>
    </g>
    <g id="xtick_14">
     <g id="line2d_45">
      <g>
       <use style="stroke:#000000;stroke-width:0.5;" x="447.382546393" xlink:href="#m0dc76a794b" y="376.336875"/>
      </g>
     </g>
     <g id="line2d_46">
      <g>
       <use style="stroke:#000000;stroke-width:0.5;" x="447.382546393" xlink:href="#mb0aaa5c5e5" y="13.006875"/>
      </g>
     </g>
    </g>
    <g id="xtick_15">
     <g id="line2d_47">
      <g>
       <use style="stroke:#000000;stroke-width:0.5;" x="471.377087094" xlink:href="#m0dc76a794b" y="376.336875"/>
      </g>
     </g>
     <g id="line2d_48">
      <g>
       <use style="stroke:#000000;stroke-width:0.5;" x="471.377087094" xlink:href="#mb0aaa5c5e5" y="13.006875"/>
      </g>
     </g>
    </g>
    <g id="xtick_16">
     <g id="line2d_49">
      <g>
       <use style="stroke:#000000;stroke-width:0.5;" x="490.982054343" xlink:href="#m0dc76a794b" y="376.336875"/>
      </g>
     </g>
     <g id="line2d_50">
      <g>
       <use style="stroke:#000000;stroke-width:0.5;" x="490.982054343" xlink:href="#mb0aaa5c5e5" y="13.006875"/>
      </g>
     </g>
    </g>
    <g id="xtick_17">
     <g id="line2d_51">
      <g>
       <use style="stroke:#000000;stroke-width:0.5;" x="507.557817969" xlink:href="#m0dc76a794b" y="376.336875"/>
      </g>
     </g>
     <g id="line2d_52">
      <g>
       <use style="stroke:#000000;stroke-width:0.5;" x="507.557817969" xlink:href="#mb0aaa5c5e5" y="13.006875"/>
      </g>
     </g>
    </g>
    <g id="xtick_18">
     <g id="line2d_53">
      <g>
       <use style="stroke:#000000;stroke-width:0.5;" x="521.916397531" xlink:href="#m0dc76a794b" y="376.336875"/>
      </g>
     </g>
     <g id="line2d_54">
      <g>
       <use style="stroke:#000000;stroke-width:0.5;" x="521.916397531" xlink:href="#mb0aaa5c5e5" y="13.006875"/>
      </g>
     </g>
    </g>
    <g id="xtick_19">
     <g id="line2d_55">
      <g>
       <use style="stroke:#000000;stroke-width:0.5;" x="534.581562293" xlink:href="#m0dc76a794b" y="376.336875"/>
      </g>
     </g>
     <g id="line2d_56">
      <g>
       <use style="stroke:#000000;stroke-width:0.5;" x="534.581562293" xlink:href="#mb0aaa5c5e5" y="13.006875"/>
      </g>
     </g>
    </g>
    <g id="text_4">
     <!-- matrix size (n) -->
     <defs>
      <path d="M 5.515625 54.6875 
L 48.1875 54.6875 
L 48.1875 46.484375 
L 14.40625 7.171875 
L 48.1875 7.171875 
L 48.1875 0 
L 4.296875 0 
L 4.296875 8.203125 
L 38.09375 47.515625 
L 5.515625 47.515625 
z
" id="BitstreamVeraSans-Roman-7a"/>
      <path id="BitstreamVeraSans-Roman-20"/>
      <path d="M 54.890625 54.6875 
L 35.109375 28.078125 
L 55.90625 0 
L 45.3125 0 
L 29.390625 21.484375 
L 13.484375 0 
L 2.875 0 
L 24.125 28.609375 
L 4.6875 54.6875 
L 15.28125 54.6875 
L 29.78125 35.203125 
L 44.28125 54.6875 
z
" id="BitstreamVeraSans-Roman-78"/>
      <path d="M 31 75.875 
Q 24.46875 64.65625 21.28125 53.65625 
Q 18.109375 42.671875 18.109375 31.390625 
Q 18.109375 20.125 21.3125 9.0625 
Q 24.515625 -2 31 -13.1875 
L 23.1875 -13.1875 
Q 15.875 -1.703125 12.234375 9.375 
Q 8.59375 20.453125 8.59375 31.390625 
Q 8.59375 42.28125 12.203125 53.3125 
Q 15.828125 64.359375 23.1875 75.875 
z
" id="BitstreamVeraSans-Roman-28"/>
      <path d="M 41.109375 46.296875 
Q 39.59375 47.171875 37.8125 47.578125 
Q 36.03125 48 33.890625 48 
Q 26.265625 48 22.1875 43.046875 
Q 18.109375 38.09375 18.109375 28.8125 
L 18.109375 0 
L 9.078125 0 
L 9.078125 54.6875 
L 18.109375 54.6875 
L 18.109375 46.1875 
Q 20.953125 51.171875 25.484375 53.578125 
Q 30.03125 56 36.53125 56 
Q 37.453125 56 38.578125 55.875 
Q 39.703125 55.765625 41.0625 55.515625 
z
" id="BitstreamVeraSans-Roman-72"/>
      <path d="M 52 44.1875 
Q 55.375 50.25 60.0625 53.125 
Q 64.75 56 71.09375 56 
Q 79.640625 56 84.28125 50.015625 
Q 88.921875 44.046875 88.921875 33.015625 
L 88.921875 0 
L 79.890625 0 
L 79.890625 32.71875 
Q 79.890625 40.578125 77.09375 44.375 
Q 74.3125 48.1875 68.609375 48.1875 
Q 61.625 48.1875 57.5625 43.546875 
Q 53.515625 38.921875 53.515625 30.90625 
L 53.515625 0 
L 44.484375 0 
L 44.484375 32.71875 
Q 44.484375 40.625 41.703125 44.40625 
Q 38.921875 48.1875 33.109375 48.1875 
Q 26.21875 48.1875 22.15625 43.53125 
Q 18.109375 38.875 18.109375 30.90625 
L 18.109375 0 
L 9.078125 0 
L 9.078125 54.6875 
L 18.109375 54.6875 
L 18.109375 46.1875 
Q 21.1875 51.21875 25.484375 53.609375 
Q 29.78125 56 35.6875 56 
Q 41.65625 56 45.828125 52.96875 
Q 50 49.953125 52 44.1875 
" id="BitstreamVeraSans-Roman-6d"/>
      <path d="M 18.3125 70.21875 
L 18.3125 54.6875 
L 36.8125 54.6875 
L 36.8125 47.703125 
L 18.3125 47.703125 
L 18.3125 18.015625 
Q 18.3125 11.328125 20.140625 9.421875 
Q 21.96875 7.515625 27.59375 7.515625 
L 36.8125 7.515625 
L 36.8125 0 
L 27.59375 0 
Q 17.1875 0 13.234375 3.875 
Q 9.28125 7.765625 9.28125 18.015625 
L 9.28125 47.703125 
L 2.6875 47.703125 
L 2.6875 54.6875 
L 9.28125 54.6875 
L 9.28125 70.21875 
z
" id="BitstreamVeraSans-Roman-74"/>
      <path d="M 54.890625 33.015625 
L 54.890625 0 
L 45.90625 0 
L 45.90625 32.71875 
Q 45.90625 40.484375 42.875 44.328125 
Q 39.84375 48.1875 33.796875 48.1875 
Q 26.515625 48.1875 22.3125 43.546875 
Q 18.109375 38.921875 18.109375 30.90625 
L 18.109375 0 
L 9.078125 0 
L 9.078125 54.6875 
L 18.109375 54.6875 
L 18.109375 46.1875 
Q 21.34375 51.125 25.703125 53.5625 
Q 30.078125 56 35.796875 56 
Q 45.21875 56 50.046875 50.171875 
Q 54.890625 44.34375 54.890625 33.015625 
" id="BitstreamVeraSans-Roman-6e"/>
      <path d="M 8.015625 75.875 
L 15.828125 75.875 
Q 23.140625 64.359375 26.78125 53.3125 
Q 30.421875 42.28125 30.421875 31.390625 
Q 30.421875 20.453125 26.78125 9.375 
Q 23.140625 -1.703125 15.828125 -13.1875 
L 8.015625 -13.1875 
Q 14.5 -2 17.703125 9.0625 
Q 20.90625 20.125 20.90625 31.390625 
Q 20.90625 42.671875 17.703125 53.65625 
Q 14.5 64.65625 8.015625 75.875 
" id="BitstreamVeraSans-Roman-29"/>
      <path d="M 9.421875 54.6875 
L 18.40625 54.6875 
L 18.40625 0 
L 9.421875 0 
z
M 9.421875 75.984375 
L 18.40625 75.984375 
L 18.40625 64.59375 
L 9.421875 64.59375 
z
" id="BitstreamVeraSans-Roman-69"/>
      <path d="M 34.28125 27.484375 
Q 23.390625 27.484375 19.1875 25 
Q 14.984375 22.515625 14.984375 16.5 
Q 14.984375 11.71875 18.140625 8.90625 
Q 21.296875 6.109375 26.703125 6.109375 
Q 34.1875 6.109375 38.703125 11.40625 
Q 43.21875 16.703125 43.21875 25.484375 
L 43.21875 27.484375 
z
M 52.203125 31.203125 
L 52.203125 0 
L 43.21875 0 
L 43.21875 8.296875 
Q 40.140625 3.328125 35.546875 0.953125 
Q 30.953125 -1.421875 24.3125 -1.421875 
Q 15.921875 -1.421875 10.953125 3.296875 
Q 6 8.015625 6 15.921875 
Q 6 25.140625 12.171875 29.828125 
Q 18.359375 34.515625 30.609375 34.515625 
L 43.21875 34.515625 
L 43.21875 35.40625 
Q 43.21875 41.609375 39.140625 45 
Q 35.0625 48.390625 27.6875 48.390625 
Q 23 48.390625 18.546875 47.265625 
Q 14.109375 46.140625 10.015625 43.890625 
L 10.015625 52.203125 
Q 14.9375 54.109375 19.578125 55.046875 
Q 24.21875 56 28.609375 56 
Q 40.484375 56 46.34375 49.84375 
Q 52.203125 43.703125 52.203125 31.203125 
" id="BitstreamVeraSans-Roman-61"/>
      <path d="M 44.28125 53.078125 
L 44.28125 44.578125 
Q 40.484375 46.53125 36.375 47.5 
Q 32.28125 48.484375 27.875 48.484375 
Q 21.1875 48.484375 17.84375 46.4375 
Q 14.5 44.390625 14.5 40.28125 
Q 14.5 37.15625 16.890625 35.375 
Q 19.28125 33.59375 26.515625 31.984375 
L 29.59375 31.296875 
Q 39.15625 29.25 43.1875 25.515625 
Q 47.21875 21.78125 47.21875 15.09375 
Q 47.21875 7.46875 41.1875 3.015625 
Q 35.15625 -1.421875 24.609375 -1.421875 
Q 20.21875 -1.421875 15.453125 -0.5625 
Q 10.6875 0.296875 5.421875 2 
L 5.421875 11.28125 
Q 10.40625 8.6875 15.234375 7.390625 
Q 20.0625 6.109375 24.8125 6.109375 
Q 31.15625 6.109375 34.5625 8.28125 
Q 37.984375 10.453125 37.984375 14.40625 
Q 37.984375 18.0625 35.515625 20.015625 
Q 33.0625 21.96875 24.703125 23.78125 
L 21.578125 24.515625 
Q 13.234375 26.265625 9.515625 29.90625 
Q 5.8125 33.546875 5.8125 39.890625 
Q 5.8125 47.609375 11.28125 51.796875 
Q 16.75 56 26.8125 56 
Q 31.78125 56 36.171875 55.265625 
Q 40.578125 54.546875 44.28125 53.078125 
" id="BitstreamVeraSans-Roman-73"/>
      <path d="M 56.203125 29.59375 
L 56.203125 25.203125 
L 14.890625 25.203125 
Q 15.484375 15.921875 20.484375 11.0625 
Q 25.484375 6.203125 34.421875 6.203125 
Q 39.59375 6.203125 44.453125 7.46875 
Q 49.3125 8.734375 54.109375 11.28125 
L 54.109375 2.78125 
Q 49.265625 0.734375 44.1875 -0.34375 
Q 39.109375 -1.421875 33.890625 -1.421875 
Q 20.796875 -1.421875 13.15625 6.1875 
Q 5.515625 13.8125 5.515625 26.8125 
Q 5.515625 40.234375 12.765625 48.109375 
Q 20.015625 56 32.328125 56 
Q 43.359375 56 49.78125 48.890625 
Q 56.203125 41.796875 56.203125 29.59375 
M 47.21875 32.234375 
Q 47.125 39.59375 43.09375 43.984375 
Q 39.0625 48.390625 32.421875 48.390625 
Q 24.90625 48.390625 20.390625 44.140625 
Q 15.875 39.890625 15.1875 32.171875 
z
" id="BitstreamVeraSans-Roman-65"/>
     </defs>
     <g transform="translate(254.825156616 406.695)scale(0.12 -0.12)">
      <use xlink:href="#BitstreamVeraSans-Roman-6d"/>
      <use x="97.412109375" xlink:href="#BitstreamVeraSans-Roman-61"/>
      <use x="158.69140625" xlink:href="#BitstreamVeraSans-Roman-74"/>
      <use x="197.900390625" xlink:href="#BitstreamVeraSans-Roman-72"/>
      <use x="239.013671875" xlink:href="#BitstreamVeraSans-Roman-69"/>
      <use x="266.796875" xlink:href="#BitstreamVeraSans-Roman-78"/>
      <use x="325.9765625" xlink:href="#BitstreamVeraSans-Roman-20"/>
      <use x="357.763671875" xlink:href="#BitstreamVeraSans-Roman-73"/>
      <use x="409.86328125" xlink:href="#BitstreamVeraSans-Roman-69"/>
      <use x="437.646484375" xlink:href="#BitstreamVeraSans-Roman-7a"/>
      <use x="490.13671875" xlink:href="#BitstreamVeraSans-Roman-65"/>
      <use x="551.66015625" xlink:href="#BitstreamVeraSans-Roman-20"/>
      <use x="583.447265625" xlink:href="#BitstreamVeraSans-Roman-28"/>
      <use x="622.4609375" xlink:href="#BitstreamVeraSans-Roman-6e"/>
      <use x="685.83984375" xlink:href="#BitstreamVeraSans-Roman-29"/>
     </g>
    </g>
   </g>
   <g id="matplotlib.axis_2">
    <g id="ytick_1">
     <g id="line2d_57">
      <path clip-path="url(#p5ff589434f)" d="M 50.71875 376.336875 
L 545.910938 376.336875 
" style="fill:none;stroke:#000000;stroke-dasharray:1.000000,3.000000;stroke-dashoffset:0.0;stroke-width:0.5;"/>
     </g>
     <g id="line2d_58">
      <defs>
       <path d="M 0 0 
L 4 0 
" id="m244360ab52" style="stroke:#000000;stroke-width:0.5;"/>
      </defs>
      <g>
       <use style="stroke:#000000;stroke-width:0.5;" x="50.71875" xlink:href="#m244360ab52" y="376.336875"/>
      </g>
     </g>
     <g id="line2d_59">
      <defs>
       <path d="M 0 0 
L -4 0 
" id="m1a29d8b06d" style="stroke:#000000;stroke-width:0.5;"/>
      </defs>
      <g>
       <use style="stroke:#000000;stroke-width:0.5;" x="545.910938232" xlink:href="#m1a29d8b06d" y="376.336875"/>
      </g>
     </g>
     <g id="text_5">
      <!-- 0 -->
      <g transform="translate(39.08375 379.648125)scale(0.12 -0.12)">
       <use xlink:href="#BitstreamVeraSans-Roman-30"/>
      </g>
     </g>
    </g>
    <g id="ytick_2">
     <g id="line2d_60">
      <path clip-path="url(#p5ff589434f)" d="M 50.71875 303.670875 
L 545.910938 303.670875 
" style="fill:none;stroke:#000000;stroke-dasharray:1.000000,3.000000;stroke-dashoffset:0.0;stroke-width:0.5;"/>
     </g>
     <g id="line2d_61">
      <g>
       <use style="stroke:#000000;stroke-width:0.5;" x="50.71875" xlink:href="#m244360ab52" y="303.670875"/>
      </g>
     </g>
     <g id="line2d_62">
      <g>
       <use style="stroke:#000000;stroke-width:0.5;" x="545.910938232" xlink:href="#m1a29d8b06d" y="303.670875"/>
      </g>
     </g>
     <g id="text_6">
      <!-- 20 -->
      <g transform="translate(31.44875 306.982125)scale(0.12 -0.12)">
       <use xlink:href="#BitstreamVeraSans-Roman-32"/>
       <use x="63.623046875" xlink:href="#BitstreamVeraSans-Roman-30"/>
      </g>
     </g>
    </g>
    <g id="ytick_3">
     <g id="line2d_63">
      <path clip-path="url(#p5ff589434f)" d="M 50.71875 231.004875 
L 545.910938 231.004875 
" style="fill:none;stroke:#000000;stroke-dasharray:1.000000,3.000000;stroke-dashoffset:0.0;stroke-width:0.5;"/>
     </g>
     <g id="line2d_64">
      <g>
       <use style="stroke:#000000;stroke-width:0.5;" x="50.71875" xlink:href="#m244360ab52" y="231.004875"/>
      </g>
     </g>
     <g id="line2d_65">
      <g>
       <use style="stroke:#000000;stroke-width:0.5;" x="545.910938232" xlink:href="#m1a29d8b06d" y="231.004875"/>
      </g>
     </g>
     <g id="text_7">
      <!-- 40 -->
      <defs>
       <path d="M 37.796875 64.3125 
L 12.890625 25.390625 
L 37.796875 25.390625 
z
M 35.203125 72.90625 
L 47.609375 72.90625 
L 47.609375 25.390625 
L 58.015625 25.390625 
L 58.015625 17.1875 
L 47.609375 17.1875 
L 47.609375 0 
L 37.796875 0 
L 37.796875 17.1875 
L 4.890625 17.1875 
L 4.890625 26.703125 
z
" id="BitstreamVeraSans-Roman-34"/>
      </defs>
      <g transform="translate(31.44875 234.316125)scale(0.12 -0.12)">
       <use xlink:href="#BitstreamVeraSans-Roman-34"/>
       <use x="63.623046875" xlink:href="#BitstreamVeraSans-Roman-30"/>
      </g>
     </g>
    </g>
    <g id="ytick_4">
     <g id="line2d_66">
      <path clip-path="url(#p5ff589434f)" d="M 50.71875 158.338875 
L 545.910938 158.338875 
" style="fill:none;stroke:#000000;stroke-dasharray:1.000000,3.000000;stroke-dashoffset:0.0;stroke-width:0.5;"/>
     </g>
     <g id="line2d_67">
      <g>
       <use style="stroke:#000000;stroke-width:0.5;" x="50.71875" xlink:href="#m244360ab52" y="158.338875"/>
      </g>
     </g>
     <g id="line2d_68">
      <g>
       <use style="stroke:#000000;stroke-width:0.5;" x="545.910938232" xlink:href="#m1a29d8b06d" y="158.338875"/>
      </g>
     </g>
     <g id="text_8">
      <!-- 60 -->
      <defs>
       <path d="M 33.015625 40.375 
Q 26.375 40.375 22.484375 35.828125 
Q 18.609375 31.296875 18.609375 23.390625 
Q 18.609375 15.53125 22.484375 10.953125 
Q 26.375 6.390625 33.015625 6.390625 
Q 39.65625 6.390625 43.53125 10.953125 
Q 47.40625 15.53125 47.40625 23.390625 
Q 47.40625 31.296875 43.53125 35.828125 
Q 39.65625 40.375 33.015625 40.375 
M 52.59375 71.296875 
L 52.59375 62.3125 
Q 48.875 64.0625 45.09375 64.984375 
Q 41.3125 65.921875 37.59375 65.921875 
Q 27.828125 65.921875 22.671875 59.328125 
Q 17.53125 52.734375 16.796875 39.40625 
Q 19.671875 43.65625 24.015625 45.921875 
Q 28.375 48.1875 33.59375 48.1875 
Q 44.578125 48.1875 50.953125 41.515625 
Q 57.328125 34.859375 57.328125 23.390625 
Q 57.328125 12.15625 50.6875 5.359375 
Q 44.046875 -1.421875 33.015625 -1.421875 
Q 20.359375 -1.421875 13.671875 8.265625 
Q 6.984375 17.96875 6.984375 36.375 
Q 6.984375 53.65625 15.1875 63.9375 
Q 23.390625 74.21875 37.203125 74.21875 
Q 40.921875 74.21875 44.703125 73.484375 
Q 48.484375 72.75 52.59375 71.296875 
" id="BitstreamVeraSans-Roman-36"/>
      </defs>
      <g transform="translate(31.44875 161.650125)scale(0.12 -0.12)">
       <use xlink:href="#BitstreamVeraSans-Roman-36"/>
       <use x="63.623046875" xlink:href="#BitstreamVeraSans-Roman-30"/>
      </g>
     </g>
    </g>
    <g id="ytick_5">
     <g id="line2d_69">
      <path clip-path="url(#p5ff589434f)" d="M 50.71875 85.672875 
L 545.910938 85.672875 
" style="fill:none;stroke:#000000;stroke-dasharray:1.000000,3.000000;stroke-dashoffset:0.0;stroke-width:0.5;"/>
     </g>
     <g id="line2d_70">
      <g>
       <use style="stroke:#000000;stroke-width:0.5;" x="50.71875" xlink:href="#m244360ab52" y="85.672875"/>
      </g>
     </g>
     <g id="line2d_71">
      <g>
       <use style="stroke:#000000;stroke-width:0.5;" x="545.910938232" xlink:href="#m1a29d8b06d" y="85.672875"/>
      </g>
     </g>
     <g id="text_9">
      <!-- 80 -->
      <defs>
       <path d="M 31.78125 34.625 
Q 24.75 34.625 20.71875 30.859375 
Q 16.703125 27.09375 16.703125 20.515625 
Q 16.703125 13.921875 20.71875 10.15625 
Q 24.75 6.390625 31.78125 6.390625 
Q 38.8125 6.390625 42.859375 10.171875 
Q 46.921875 13.96875 46.921875 20.515625 
Q 46.921875 27.09375 42.890625 30.859375 
Q 38.875 34.625 31.78125 34.625 
M 21.921875 38.8125 
Q 15.578125 40.375 12.03125 44.71875 
Q 8.5 49.078125 8.5 55.328125 
Q 8.5 64.0625 14.71875 69.140625 
Q 20.953125 74.21875 31.78125 74.21875 
Q 42.671875 74.21875 48.875 69.140625 
Q 55.078125 64.0625 55.078125 55.328125 
Q 55.078125 49.078125 51.53125 44.71875 
Q 48 40.375 41.703125 38.8125 
Q 48.828125 37.15625 52.796875 32.3125 
Q 56.78125 27.484375 56.78125 20.515625 
Q 56.78125 9.90625 50.3125 4.234375 
Q 43.84375 -1.421875 31.78125 -1.421875 
Q 19.734375 -1.421875 13.25 4.234375 
Q 6.78125 9.90625 6.78125 20.515625 
Q 6.78125 27.484375 10.78125 32.3125 
Q 14.796875 37.15625 21.921875 38.8125 
M 18.3125 54.390625 
Q 18.3125 48.734375 21.84375 45.5625 
Q 25.390625 42.390625 31.78125 42.390625 
Q 38.140625 42.390625 41.71875 45.5625 
Q 45.3125 48.734375 45.3125 54.390625 
Q 45.3125 60.0625 41.71875 63.234375 
Q 38.140625 66.40625 31.78125 66.40625 
Q 25.390625 66.40625 21.84375 63.234375 
Q 18.3125 60.0625 18.3125 54.390625 
" id="BitstreamVeraSans-Roman-38"/>
      </defs>
      <g transform="translate(31.44875 88.984125)scale(0.12 -0.12)">
       <use xlink:href="#BitstreamVeraSans-Roman-38"/>
       <use x="63.623046875" xlink:href="#BitstreamVeraSans-Roman-30"/>
      </g>
     </g>
    </g>
    <g id="ytick_6">
     <g id="line2d_72">
      <path clip-path="url(#p5ff589434f)" d="M 50.71875 13.006875 
L 545.910938 13.006875 
" style="fill:none;stroke:#000000;stroke-dasharray:1.000000,3.000000;stroke-dashoffset:0.0;stroke-width:0.5;"/>
     </g>
     <g id="line2d_73">
      <g>
       <use style="stroke:#000000;stroke-width:0.5;" x="50.71875" xlink:href="#m244360ab52" y="13.006875"/>
      </g>
     </g>
     <g id="line2d_74">
      <g>
       <use style="stroke:#000000;stroke-width:0.5;" x="545.910938232" xlink:href="#m1a29d8b06d" y="13.006875"/>
      </g>
     </g>
     <g id="text_10">
      <!-- 100 -->
      <g transform="translate(23.81375 16.318125)scale(0.12 -0.12)">
       <use xlink:href="#BitstreamVeraSans-Roman-31"/>
       <use x="63.623046875" xlink:href="#BitstreamVeraSans-Roman-30"/>
       <use x="127.24609375" xlink:href="#BitstreamVeraSans-Roman-30"/>
      </g>
     </g>
    </g>
    <g id="text_11">
     <!-- effective performance /GFLOPS -->
     <defs>
      <path d="M 18.109375 8.203125 
L 18.109375 -20.796875 
L 9.078125 -20.796875 
L 9.078125 54.6875 
L 18.109375 54.6875 
L 18.109375 46.390625 
Q 20.953125 51.265625 25.265625 53.625 
Q 29.59375 56 35.59375 56 
Q 45.5625 56 51.78125 48.09375 
Q 58.015625 40.1875 58.015625 27.296875 
Q 58.015625 14.40625 51.78125 6.484375 
Q 45.5625 -1.421875 35.59375 -1.421875 
Q 29.59375 -1.421875 25.265625 0.953125 
Q 20.953125 3.328125 18.109375 8.203125 
M 48.6875 27.296875 
Q 48.6875 37.203125 44.609375 42.84375 
Q 40.53125 48.484375 33.40625 48.484375 
Q 26.265625 48.484375 22.1875 42.84375 
Q 18.109375 37.203125 18.109375 27.296875 
Q 18.109375 17.390625 22.1875 11.75 
Q 26.265625 6.109375 33.40625 6.109375 
Q 40.53125 6.109375 44.609375 11.75 
Q 48.6875 17.390625 48.6875 27.296875 
" id="BitstreamVeraSans-Roman-70"/>
      <path d="M 2.984375 54.6875 
L 12.5 54.6875 
L 29.59375 8.796875 
L 46.6875 54.6875 
L 56.203125 54.6875 
L 35.6875 0 
L 23.484375 0 
z
" id="BitstreamVeraSans-Roman-76"/>
      <path d="M 37.109375 75.984375 
L 37.109375 68.5 
L 28.515625 68.5 
Q 23.6875 68.5 21.796875 66.546875 
Q 19.921875 64.59375 19.921875 59.515625 
L 19.921875 54.6875 
L 34.71875 54.6875 
L 34.71875 47.703125 
L 19.921875 47.703125 
L 19.921875 0 
L 10.890625 0 
L 10.890625 47.703125 
L 2.296875 47.703125 
L 2.296875 54.6875 
L 10.890625 54.6875 
L 10.890625 58.5 
Q 10.890625 67.625 15.140625 71.796875 
Q 19.390625 75.984375 28.609375 75.984375 
z
" id="BitstreamVeraSans-Roman-66"/>
      <path d="M 53.515625 70.515625 
L 53.515625 60.890625 
Q 47.90625 63.578125 42.921875 64.890625 
Q 37.9375 66.21875 33.296875 66.21875 
Q 25.25 66.21875 20.875 63.09375 
Q 16.5 59.96875 16.5 54.203125 
Q 16.5 49.359375 19.40625 46.890625 
Q 22.3125 44.4375 30.421875 42.921875 
L 36.375 41.703125 
Q 47.40625 39.59375 52.65625 34.296875 
Q 57.90625 29 57.90625 20.125 
Q 57.90625 9.515625 50.796875 4.046875 
Q 43.703125 -1.421875 29.984375 -1.421875 
Q 24.8125 -1.421875 18.96875 -0.25 
Q 13.140625 0.921875 6.890625 3.21875 
L 6.890625 13.375 
Q 12.890625 10.015625 18.65625 8.296875 
Q 24.421875 6.59375 29.984375 6.59375 
Q 38.421875 6.59375 43.015625 9.90625 
Q 47.609375 13.234375 47.609375 19.390625 
Q 47.609375 24.75 44.3125 27.78125 
Q 41.015625 30.8125 33.5 32.328125 
L 27.484375 33.5 
Q 16.453125 35.6875 11.515625 40.375 
Q 6.59375 45.0625 6.59375 53.421875 
Q 6.59375 63.09375 13.40625 68.65625 
Q 20.21875 74.21875 32.171875 74.21875 
Q 37.3125 74.21875 42.625 73.28125 
Q 47.953125 72.359375 53.515625 70.515625 
" id="BitstreamVeraSans-Roman-53"/>
      <path d="M 30.609375 48.390625 
Q 23.390625 48.390625 19.1875 42.75 
Q 14.984375 37.109375 14.984375 27.296875 
Q 14.984375 17.484375 19.15625 11.84375 
Q 23.34375 6.203125 30.609375 6.203125 
Q 37.796875 6.203125 41.984375 11.859375 
Q 46.1875 17.53125 46.1875 27.296875 
Q 46.1875 37.015625 41.984375 42.703125 
Q 37.796875 48.390625 30.609375 48.390625 
M 30.609375 56 
Q 42.328125 56 49.015625 48.375 
Q 55.71875 40.765625 55.71875 27.296875 
Q 55.71875 13.875 49.015625 6.21875 
Q 42.328125 -1.421875 30.609375 -1.421875 
Q 18.84375 -1.421875 12.171875 6.21875 
Q 5.515625 13.875 5.515625 27.296875 
Q 5.515625 40.765625 12.171875 48.375 
Q 18.84375 56 30.609375 56 
" id="BitstreamVeraSans-Roman-6f"/>
      <path d="M 25.390625 72.90625 
L 33.6875 72.90625 
L 8.296875 -9.28125 
L 0 -9.28125 
z
" id="BitstreamVeraSans-Roman-2f"/>
      <path d="M 48.78125 52.59375 
L 48.78125 44.1875 
Q 44.96875 46.296875 41.140625 47.34375 
Q 37.3125 48.390625 33.40625 48.390625 
Q 24.65625 48.390625 19.8125 42.84375 
Q 14.984375 37.3125 14.984375 27.296875 
Q 14.984375 17.28125 19.8125 11.734375 
Q 24.65625 6.203125 33.40625 6.203125 
Q 37.3125 6.203125 41.140625 7.25 
Q 44.96875 8.296875 48.78125 10.40625 
L 48.78125 2.09375 
Q 45.015625 0.34375 40.984375 -0.53125 
Q 36.96875 -1.421875 32.421875 -1.421875 
Q 20.0625 -1.421875 12.78125 6.34375 
Q 5.515625 14.109375 5.515625 27.296875 
Q 5.515625 40.671875 12.859375 48.328125 
Q 20.21875 56 33.015625 56 
Q 37.15625 56 41.109375 55.140625 
Q 45.0625 54.296875 48.78125 52.59375 
" id="BitstreamVeraSans-Roman-63"/>
      <path d="M 59.515625 10.40625 
L 59.515625 29.984375 
L 43.40625 29.984375 
L 43.40625 38.09375 
L 69.28125 38.09375 
L 69.28125 6.78125 
Q 63.578125 2.734375 56.6875 0.65625 
Q 49.8125 -1.421875 42 -1.421875 
Q 24.90625 -1.421875 15.25 8.5625 
Q 5.609375 18.5625 5.609375 36.375 
Q 5.609375 54.25 15.25 64.234375 
Q 24.90625 74.21875 42 74.21875 
Q 49.125 74.21875 55.546875 72.453125 
Q 61.96875 70.703125 67.390625 67.28125 
L 67.390625 56.78125 
Q 61.921875 61.421875 55.765625 63.765625 
Q 49.609375 66.109375 42.828125 66.109375 
Q 29.4375 66.109375 22.71875 58.640625 
Q 16.015625 51.171875 16.015625 36.375 
Q 16.015625 21.625 22.71875 14.15625 
Q 29.4375 6.6875 42.828125 6.6875 
Q 48.046875 6.6875 52.140625 7.59375 
Q 56.25 8.5 59.515625 10.40625 
" id="BitstreamVeraSans-Roman-47"/>
      <path d="M 9.8125 72.90625 
L 19.671875 72.90625 
L 19.671875 8.296875 
L 55.171875 8.296875 
L 55.171875 0 
L 9.8125 0 
z
" id="BitstreamVeraSans-Roman-4c"/>
      <path d="M 9.8125 72.90625 
L 51.703125 72.90625 
L 51.703125 64.59375 
L 19.671875 64.59375 
L 19.671875 43.109375 
L 48.578125 43.109375 
L 48.578125 34.8125 
L 19.671875 34.8125 
L 19.671875 0 
L 9.8125 0 
z
" id="BitstreamVeraSans-Roman-46"/>
      <path d="M 39.40625 66.21875 
Q 28.65625 66.21875 22.328125 58.203125 
Q 16.015625 50.203125 16.015625 36.375 
Q 16.015625 22.609375 22.328125 14.59375 
Q 28.65625 6.59375 39.40625 6.59375 
Q 50.140625 6.59375 56.421875 14.59375 
Q 62.703125 22.609375 62.703125 36.375 
Q 62.703125 50.203125 56.421875 58.203125 
Q 50.140625 66.21875 39.40625 66.21875 
M 39.40625 74.21875 
Q 54.734375 74.21875 63.90625 63.9375 
Q 73.09375 53.65625 73.09375 36.375 
Q 73.09375 19.140625 63.90625 8.859375 
Q 54.734375 -1.421875 39.40625 -1.421875 
Q 24.03125 -1.421875 14.8125 8.828125 
Q 5.609375 19.09375 5.609375 36.375 
Q 5.609375 53.65625 14.8125 63.9375 
Q 24.03125 74.21875 39.40625 74.21875 
" id="BitstreamVeraSans-Roman-4f"/>
      <path d="M 19.671875 64.796875 
L 19.671875 37.40625 
L 32.078125 37.40625 
Q 38.96875 37.40625 42.71875 40.96875 
Q 46.484375 44.53125 46.484375 51.125 
Q 46.484375 57.671875 42.71875 61.234375 
Q 38.96875 64.796875 32.078125 64.796875 
z
M 9.8125 72.90625 
L 32.078125 72.90625 
Q 44.34375 72.90625 50.609375 67.359375 
Q 56.890625 61.8125 56.890625 51.125 
Q 56.890625 40.328125 50.609375 34.8125 
Q 44.34375 29.296875 32.078125 29.296875 
L 19.671875 29.296875 
L 19.671875 0 
L 9.8125 0 
z
" id="BitstreamVeraSans-Roman-50"/>
     </defs>
     <g transform="translate(16.318125 288.7978125)rotate(-90.0)scale(0.12 -0.12)">
      <use xlink:href="#BitstreamVeraSans-Roman-65"/>
      <use x="61.5234375" xlink:href="#BitstreamVeraSans-Roman-66"/>
      <use x="96.728515625" xlink:href="#BitstreamVeraSans-Roman-66"/>
      <use x="131.93359375" xlink:href="#BitstreamVeraSans-Roman-65"/>
      <use x="193.45703125" xlink:href="#BitstreamVeraSans-Roman-63"/>
      <use x="248.4375" xlink:href="#BitstreamVeraSans-Roman-74"/>
      <use x="287.646484375" xlink:href="#BitstreamVeraSans-Roman-69"/>
      <use x="315.4296875" xlink:href="#BitstreamVeraSans-Roman-76"/>
      <use x="374.609375" xlink:href="#BitstreamVeraSans-Roman-65"/>
      <use x="436.1328125" xlink:href="#BitstreamVeraSans-Roman-20"/>
      <use x="467.919921875" xlink:href="#BitstreamVeraSans-Roman-70"/>
      <use x="531.396484375" xlink:href="#BitstreamVeraSans-Roman-65"/>
      <use x="592.919921875" xlink:href="#BitstreamVeraSans-Roman-72"/>
      <use x="634.033203125" xlink:href="#BitstreamVeraSans-Roman-66"/>
      <use x="669.23828125" xlink:href="#BitstreamVeraSans-Roman-6f"/>
      <use x="730.419921875" xlink:href="#BitstreamVeraSans-Roman-72"/>
      <use x="771.517578125" xlink:href="#BitstreamVeraSans-Roman-6d"/>
      <use x="868.9296875" xlink:href="#BitstreamVeraSans-Roman-61"/>
      <use x="930.208984375" xlink:href="#BitstreamVeraSans-Roman-6e"/>
      <use x="993.587890625" xlink:href="#BitstreamVeraSans-Roman-63"/>
      <use x="1048.568359375" xlink:href="#BitstreamVeraSans-Roman-65"/>
      <use x="1110.091796875" xlink:href="#BitstreamVeraSans-Roman-20"/>
      <use x="1141.87890625" xlink:href="#BitstreamVeraSans-Roman-2f"/>
      <use x="1175.5703125" xlink:href="#BitstreamVeraSans-Roman-47"/>
      <use x="1253.060546875" xlink:href="#BitstreamVeraSans-Roman-46"/>
      <use x="1310.580078125" xlink:href="#BitstreamVeraSans-Roman-4c"/>
      <use x="1366.24609375" xlink:href="#BitstreamVeraSans-Roman-4f"/>
      <use x="1444.95703125" xlink:href="#BitstreamVeraSans-Roman-50"/>
      <use x="1505.259765625" xlink:href="#BitstreamVeraSans-Roman-53"/>
     </g>
    </g>
   </g>
   <g id="legend_1">
    <g id="patch_7">
     <path d="M 553.110938 249.673125 
L 777.361688 249.673125 
L 777.361688 139.670625 
L 553.110938 139.670625 
z
" style="fill:#ffffff;stroke:#000000;stroke-linejoin:miter;"/>
    </g>
    <g id="LineCollection_6">
     <path d="M 563.190938 158.532375 
L 563.190938 144.132375 
" style="fill:none;stroke:#e91e63;stroke-opacity:0.8;stroke-width:2.0;"/>
     <path d="M 583.350938 158.532375 
L 583.350938 144.132375 
" style="fill:none;stroke:#e91e63;stroke-opacity:0.8;stroke-width:2.0;"/>
    </g>
    <g id="line2d_75">
     <g>
      <use style="fill:#e91e63;opacity:0.8;stroke:#e91e63;stroke-width:0.5;" x="563.190938232" xlink:href="#m9fdc63b9f1" y="158.532375"/>
      <use style="fill:#e91e63;opacity:0.8;stroke:#e91e63;stroke-width:0.5;" x="583.350938232" xlink:href="#m9fdc63b9f1" y="158.532375"/>
     </g>
    </g>
    <g id="line2d_76">
     <g>
      <use style="fill:#e91e63;opacity:0.8;stroke:#e91e63;stroke-width:0.5;" x="563.190938232" xlink:href="#m9fdc63b9f1" y="144.132375"/>
      <use style="fill:#e91e63;opacity:0.8;stroke:#e91e63;stroke-width:0.5;" x="583.350938232" xlink:href="#m9fdc63b9f1" y="144.132375"/>
     </g>
    </g>
    <g id="line2d_77">
     <path d="M 563.190938 151.332375 
L 583.350938 151.332375 
" style="fill:none;opacity:0.8;stroke:#e91e63;stroke-linecap:square;stroke-width:2.0;"/>
    </g>
    <g id="line2d_78"/>
    <g id="text_12">
     <!-- gcc-data -->
     <defs>
      <path d="M 45.40625 27.984375 
Q 45.40625 37.75 41.375 43.109375 
Q 37.359375 48.484375 30.078125 48.484375 
Q 22.859375 48.484375 18.828125 43.109375 
Q 14.796875 37.75 14.796875 27.984375 
Q 14.796875 18.265625 18.828125 12.890625 
Q 22.859375 7.515625 30.078125 7.515625 
Q 37.359375 7.515625 41.375 12.890625 
Q 45.40625 18.265625 45.40625 27.984375 
M 54.390625 6.78125 
Q 54.390625 -7.171875 48.1875 -13.984375 
Q 42 -20.796875 29.203125 -20.796875 
Q 24.46875 -20.796875 20.265625 -20.09375 
Q 16.0625 -19.390625 12.109375 -17.921875 
L 12.109375 -9.1875 
Q 16.0625 -11.328125 19.921875 -12.34375 
Q 23.78125 -13.375 27.78125 -13.375 
Q 36.625 -13.375 41.015625 -8.765625 
Q 45.40625 -4.15625 45.40625 5.171875 
L 45.40625 9.625 
Q 42.625 4.78125 38.28125 2.390625 
Q 33.9375 0 27.875 0 
Q 17.828125 0 11.671875 7.65625 
Q 5.515625 15.328125 5.515625 27.984375 
Q 5.515625 40.671875 11.671875 48.328125 
Q 17.828125 56 27.875 56 
Q 33.9375 56 38.28125 53.609375 
Q 42.625 51.21875 45.40625 46.390625 
L 45.40625 54.6875 
L 54.390625 54.6875 
z
" id="BitstreamVeraSans-Roman-67"/>
      <path d="M 45.40625 46.390625 
L 45.40625 75.984375 
L 54.390625 75.984375 
L 54.390625 0 
L 45.40625 0 
L 45.40625 8.203125 
Q 42.578125 3.328125 38.25 0.953125 
Q 33.9375 -1.421875 27.875 -1.421875 
Q 17.96875 -1.421875 11.734375 6.484375 
Q 5.515625 14.40625 5.515625 27.296875 
Q 5.515625 40.1875 11.734375 48.09375 
Q 17.96875 56 27.875 56 
Q 33.9375 56 38.25 53.625 
Q 42.578125 51.265625 45.40625 46.390625 
M 14.796875 27.296875 
Q 14.796875 17.390625 18.875 11.75 
Q 22.953125 6.109375 30.078125 6.109375 
Q 37.203125 6.109375 41.296875 11.75 
Q 45.40625 17.390625 45.40625 27.296875 
Q 45.40625 37.203125 41.296875 42.84375 
Q 37.203125 48.484375 30.078125 48.484375 
Q 22.953125 48.484375 18.875 42.84375 
Q 14.796875 37.203125 14.796875 27.296875 
" id="BitstreamVeraSans-Roman-64"/>
      <path d="M 4.890625 31.390625 
L 31.203125 31.390625 
L 31.203125 23.390625 
L 4.890625 23.390625 
z
" id="BitstreamVeraSans-Roman-2d"/>
     </defs>
     <g transform="translate(599.190938232 156.372375)scale(0.144 -0.144)">
      <use xlink:href="#BitstreamVeraSans-Roman-67"/>
      <use x="63.4765625" xlink:href="#BitstreamVeraSans-Roman-63"/>
      <use x="118.45703125" xlink:href="#BitstreamVeraSans-Roman-63"/>
      <use x="173.4375" xlink:href="#BitstreamVeraSans-Roman-2d"/>
      <use x="209.521484375" xlink:href="#BitstreamVeraSans-Roman-64"/>
      <use x="272.998046875" xlink:href="#BitstreamVeraSans-Roman-61"/>
      <use x="334.27734375" xlink:href="#BitstreamVeraSans-Roman-74"/>
      <use x="373.486328125" xlink:href="#BitstreamVeraSans-Roman-61"/>
     </g>
    </g>
    <g id="LineCollection_7">
     <path d="M 563.190938 179.668875 
L 563.190938 165.268875 
" style="fill:none;stroke:#f29312;stroke-opacity:0.8;stroke-width:2.0;"/>
     <path d="M 583.350938 179.668875 
L 583.350938 165.268875 
" style="fill:none;stroke:#f29312;stroke-opacity:0.8;stroke-width:2.0;"/>
    </g>
    <g id="line2d_79">
     <g>
      <use style="fill:#f29312;opacity:0.8;stroke:#f29312;stroke-width:0.5;" x="563.190938232" xlink:href="#me22757736c" y="179.668875"/>
      <use style="fill:#f29312;opacity:0.8;stroke:#f29312;stroke-width:0.5;" x="583.350938232" xlink:href="#me22757736c" y="179.668875"/>
     </g>
    </g>
    <g id="line2d_80">
     <g>
      <use style="fill:#f29312;opacity:0.8;stroke:#f29312;stroke-width:0.5;" x="563.190938232" xlink:href="#me22757736c" y="165.268875"/>
      <use style="fill:#f29312;opacity:0.8;stroke:#f29312;stroke-width:0.5;" x="583.350938232" xlink:href="#me22757736c" y="165.268875"/>
     </g>
    </g>
    <g id="line2d_81">
     <path d="M 563.190938 172.468875 
L 583.350938 172.468875 
" style="fill:none;opacity:0.8;stroke:#f29312;stroke-linecap:square;stroke-width:2.0;"/>
    </g>
    <g id="line2d_82"/>
    <g id="text_13">
     <!-- clang-data -->
     <defs>
      <path d="M 9.421875 75.984375 
L 18.40625 75.984375 
L 18.40625 0 
L 9.421875 0 
z
" id="BitstreamVeraSans-Roman-6c"/>
     </defs>
     <g transform="translate(599.190938232 177.508875)scale(0.144 -0.144)">
      <use xlink:href="#BitstreamVeraSans-Roman-63"/>
      <use x="54.98046875" xlink:href="#BitstreamVeraSans-Roman-6c"/>
      <use x="82.763671875" xlink:href="#BitstreamVeraSans-Roman-61"/>
      <use x="144.04296875" xlink:href="#BitstreamVeraSans-Roman-6e"/>
      <use x="207.421875" xlink:href="#BitstreamVeraSans-Roman-67"/>
      <use x="270.8984375" xlink:href="#BitstreamVeraSans-Roman-2d"/>
      <use x="306.982421875" xlink:href="#BitstreamVeraSans-Roman-64"/>
      <use x="370.458984375" xlink:href="#BitstreamVeraSans-Roman-61"/>
      <use x="431.73828125" xlink:href="#BitstreamVeraSans-Roman-74"/>
      <use x="470.947265625" xlink:href="#BitstreamVeraSans-Roman-61"/>
     </g>
    </g>
    <g id="LineCollection_8">
     <path d="M 563.190938 200.805375 
L 563.190938 186.405375 
" style="fill:none;stroke:#4caf50;stroke-opacity:0.8;stroke-width:2.0;"/>
     <path d="M 583.350938 200.805375 
L 583.350938 186.405375 
" style="fill:none;stroke:#4caf50;stroke-opacity:0.8;stroke-width:2.0;"/>
    </g>
    <g id="line2d_83">
     <g>
      <use style="fill:#4caf50;opacity:0.8;stroke:#4caf50;stroke-width:0.5;" x="563.190938232" xlink:href="#mf435f48f74" y="200.805375"/>
      <use style="fill:#4caf50;opacity:0.8;stroke:#4caf50;stroke-width:0.5;" x="583.350938232" xlink:href="#mf435f48f74" y="200.805375"/>
     </g>
    </g>
    <g id="line2d_84">
     <g>
      <use style="fill:#4caf50;opacity:0.8;stroke:#4caf50;stroke-width:0.5;" x="563.190938232" xlink:href="#mf435f48f74" y="186.405375"/>
      <use style="fill:#4caf50;opacity:0.8;stroke:#4caf50;stroke-width:0.5;" x="583.350938232" xlink:href="#mf435f48f74" y="186.405375"/>
     </g>
    </g>
    <g id="line2d_85">
     <path d="M 563.190938 193.605375 
L 583.350938 193.605375 
" style="fill:none;opacity:0.8;stroke:#4caf50;stroke-linecap:square;stroke-width:2.0;"/>
    </g>
    <g id="line2d_86"/>
    <g id="text_14">
     <!-- eigen-data -->
     <g transform="translate(599.190938232 198.645375)scale(0.144 -0.144)">
      <use xlink:href="#BitstreamVeraSans-Roman-65"/>
      <use x="61.5234375" xlink:href="#BitstreamVeraSans-Roman-69"/>
      <use x="89.306640625" xlink:href="#BitstreamVeraSans-Roman-67"/>
      <use x="152.783203125" xlink:href="#BitstreamVeraSans-Roman-65"/>
      <use x="214.306640625" xlink:href="#BitstreamVeraSans-Roman-6e"/>
      <use x="277.685546875" xlink:href="#BitstreamVeraSans-Roman-2d"/>
      <use x="313.76953125" xlink:href="#BitstreamVeraSans-Roman-64"/>
      <use x="377.24609375" xlink:href="#BitstreamVeraSans-Roman-61"/>
      <use x="438.525390625" xlink:href="#BitstreamVeraSans-Roman-74"/>
      <use x="477.734375" xlink:href="#BitstreamVeraSans-Roman-61"/>
     </g>
    </g>
    <g id="LineCollection_9">
     <path d="M 563.190938 221.941875 
L 563.190938 207.541875 
" style="fill:none;stroke:#2196f3;stroke-opacity:0.8;stroke-width:2.0;"/>
     <path d="M 583.350938 221.941875 
L 583.350938 207.541875 
" style="fill:none;stroke:#2196f3;stroke-opacity:0.8;stroke-width:2.0;"/>
    </g>
    <g id="line2d_87">
     <g>
      <use style="fill:#2196f3;opacity:0.8;stroke:#2196f3;stroke-width:0.5;" x="563.190938232" xlink:href="#m2adf2710a9" y="221.941875"/>
      <use style="fill:#2196f3;opacity:0.8;stroke:#2196f3;stroke-width:0.5;" x="583.350938232" xlink:href="#m2adf2710a9" y="221.941875"/>
     </g>
    </g>
    <g id="line2d_88">
     <g>
      <use style="fill:#2196f3;opacity:0.8;stroke:#2196f3;stroke-width:0.5;" x="563.190938232" xlink:href="#m2adf2710a9" y="207.541875"/>
      <use style="fill:#2196f3;opacity:0.8;stroke:#2196f3;stroke-width:0.5;" x="583.350938232" xlink:href="#m2adf2710a9" y="207.541875"/>
     </g>
    </g>
    <g id="line2d_89">
     <path d="M 563.190938 214.741875 
L 583.350938 214.741875 
" style="fill:none;opacity:0.8;stroke:#2196f3;stroke-linecap:square;stroke-width:2.0;"/>
    </g>
    <g id="line2d_90"/>
    <g id="text_15">
     <!-- openblas-data -->
     <defs>
      <path d="M 48.6875 27.296875 
Q 48.6875 37.203125 44.609375 42.84375 
Q 40.53125 48.484375 33.40625 48.484375 
Q 26.265625 48.484375 22.1875 42.84375 
Q 18.109375 37.203125 18.109375 27.296875 
Q 18.109375 17.390625 22.1875 11.75 
Q 26.265625 6.109375 33.40625 6.109375 
Q 40.53125 6.109375 44.609375 11.75 
Q 48.6875 17.390625 48.6875 27.296875 
M 18.109375 46.390625 
Q 20.953125 51.265625 25.265625 53.625 
Q 29.59375 56 35.59375 56 
Q 45.5625 56 51.78125 48.09375 
Q 58.015625 40.1875 58.015625 27.296875 
Q 58.015625 14.40625 51.78125 6.484375 
Q 45.5625 -1.421875 35.59375 -1.421875 
Q 29.59375 -1.421875 25.265625 0.953125 
Q 20.953125 3.328125 18.109375 8.203125 
L 18.109375 0 
L 9.078125 0 
L 9.078125 75.984375 
L 18.109375 75.984375 
z
" id="BitstreamVeraSans-Roman-62"/>
     </defs>
     <g transform="translate(599.190938232 219.781875)scale(0.144 -0.144)">
      <use xlink:href="#BitstreamVeraSans-Roman-6f"/>
      <use x="61.181640625" xlink:href="#BitstreamVeraSans-Roman-70"/>
      <use x="124.658203125" xlink:href="#BitstreamVeraSans-Roman-65"/>
      <use x="186.181640625" xlink:href="#BitstreamVeraSans-Roman-6e"/>
      <use x="249.560546875" xlink:href="#BitstreamVeraSans-Roman-62"/>
      <use x="313.037109375" xlink:href="#BitstreamVeraSans-Roman-6c"/>
      <use x="340.8203125" xlink:href="#BitstreamVeraSans-Roman-61"/>
      <use x="402.099609375" xlink:href="#BitstreamVeraSans-Roman-73"/>
      <use x="454.19921875" xlink:href="#BitstreamVeraSans-Roman-2d"/>
      <use x="490.283203125" xlink:href="#BitstreamVeraSans-Roman-64"/>
      <use x="553.759765625" xlink:href="#BitstreamVeraSans-Roman-61"/>
      <use x="615.0390625" xlink:href="#BitstreamVeraSans-Roman-74"/>
      <use x="654.248046875" xlink:href="#BitstreamVeraSans-Roman-61"/>
     </g>
    </g>
    <g id="LineCollection_10">
     <path d="M 563.190938 243.078375 
L 563.190938 228.678375 
" style="fill:none;stroke:#1a237e;stroke-opacity:0.8;stroke-width:2.0;"/>
     <path d="M 583.350938 243.078375 
L 583.350938 228.678375 
" style="fill:none;stroke:#1a237e;stroke-opacity:0.8;stroke-width:2.0;"/>
    </g>
    <g id="line2d_91">
     <g>
      <use style="fill:#1a237e;opacity:0.8;stroke:#1a237e;stroke-width:0.5;" x="563.190938232" xlink:href="#m9a0b3eee96" y="243.078375"/>
      <use style="fill:#1a237e;opacity:0.8;stroke:#1a237e;stroke-width:0.5;" x="583.350938232" xlink:href="#m9a0b3eee96" y="243.078375"/>
     </g>
    </g>
    <g id="line2d_92">
     <g>
      <use style="fill:#1a237e;opacity:0.8;stroke:#1a237e;stroke-width:0.5;" x="563.190938232" xlink:href="#m9a0b3eee96" y="228.678375"/>
      <use style="fill:#1a237e;opacity:0.8;stroke:#1a237e;stroke-width:0.5;" x="583.350938232" xlink:href="#m9a0b3eee96" y="228.678375"/>
     </g>
    </g>
    <g id="line2d_93">
     <path d="M 563.190938 235.878375 
L 583.350938 235.878375 
" style="fill:none;opacity:0.8;stroke:#1a237e;stroke-linecap:square;stroke-width:2.0;"/>
    </g>
    <g id="line2d_94"/>
    <g id="text_16">
     <!-- openblas-4threads-data -->
     <defs>
      <path d="M 54.890625 33.015625 
L 54.890625 0 
L 45.90625 0 
L 45.90625 32.71875 
Q 45.90625 40.484375 42.875 44.328125 
Q 39.84375 48.1875 33.796875 48.1875 
Q 26.515625 48.1875 22.3125 43.546875 
Q 18.109375 38.921875 18.109375 30.90625 
L 18.109375 0 
L 9.078125 0 
L 9.078125 75.984375 
L 18.109375 75.984375 
L 18.109375 46.1875 
Q 21.34375 51.125 25.703125 53.5625 
Q 30.078125 56 35.796875 56 
Q 45.21875 56 50.046875 50.171875 
Q 54.890625 44.34375 54.890625 33.015625 
" id="BitstreamVeraSans-Roman-68"/>
     </defs>
     <g transform="translate(599.190938232 240.918375)scale(0.144 -0.144)">
      <use xlink:href="#BitstreamVeraSans-Roman-6f"/>
      <use x="61.181640625" xlink:href="#BitstreamVeraSans-Roman-70"/>
      <use x="124.658203125" xlink:href="#BitstreamVeraSans-Roman-65"/>
      <use x="186.181640625" xlink:href="#BitstreamVeraSans-Roman-6e"/>
      <use x="249.560546875" xlink:href="#BitstreamVeraSans-Roman-62"/>
      <use x="313.037109375" xlink:href="#BitstreamVeraSans-Roman-6c"/>
      <use x="340.8203125" xlink:href="#BitstreamVeraSans-Roman-61"/>
      <use x="402.099609375" xlink:href="#BitstreamVeraSans-Roman-73"/>
      <use x="454.19921875" xlink:href="#BitstreamVeraSans-Roman-2d"/>
      <use x="490.283203125" xlink:href="#BitstreamVeraSans-Roman-34"/>
      <use x="553.90625" xlink:href="#BitstreamVeraSans-Roman-74"/>
      <use x="593.115234375" xlink:href="#BitstreamVeraSans-Roman-68"/>
      <use x="656.494140625" xlink:href="#BitstreamVeraSans-Roman-72"/>
      <use x="697.576171875" xlink:href="#BitstreamVeraSans-Roman-65"/>
      <use x="759.099609375" xlink:href="#BitstreamVeraSans-Roman-61"/>
      <use x="820.37890625" xlink:href="#BitstreamVeraSans-Roman-64"/>
      <use x="883.85546875" xlink:href="#BitstreamVeraSans-Roman-73"/>
      <use x="935.955078125" xlink:href="#BitstreamVeraSans-Roman-2d"/>
      <use x="972.0390625" xlink:href="#BitstreamVeraSans-Roman-64"/>
      <use x="1035.515625" xlink:href="#BitstreamVeraSans-Roman-61"/>
      <use x="1096.794921875" xlink:href="#BitstreamVeraSans-Roman-74"/>
      <use x="1136.00390625" xlink:href="#BitstreamVeraSans-Roman-61"/>
     </g>
    </g>
   </g>
  </g>
 </g>
 <defs>
  <clipPath id="p5ff589434f">
   <rect height="363.33" width="495.192188232" x="50.71875" y="13.006875"/>
  </clipPath>
 </defs>
</svg>
